<?xml version="1.0" standalone="no"?>
<!DOCTYPE svg PUBLIC "-//W3C//DTD SVG 1.1//EN" "http://www.w3.org/Graphics/SVG/1.1/DTD/svg11.dtd" >
<svg>
<metadata>
Created by FontForge 20090914 at Tue Jul 26 11:41:37 2022
 By www-data
Copyright 2015 The Cormorant Project Authors (github.com/CatharsisFonts/Cormorant)
</metadata>
<defs>
<font id="CormorantSC-SemiBold" horiz-adv-x="0" >
  <font-face 
    font-family="Cormorant SC SemiBold"
    font-weight="600"
    font-stretch="normal"
    units-per-em="1000"
    panose-1="0 0 7 0 0 0 0 0 0 0"
    ascent="800"
    descent="-200"
    x-height="468"
    cap-height="625"
    bbox="-365.801 -282.154 1451.8 932.334"
    underline-thickness="50"
    underline-position="-50"
    unicode-range="U+0020-U+A729"
  />
<missing-glyph horiz-adv-x="501" 
d="M94 -275v1000h317v-1000h-317zM168 626h65v-38h-66v-32h166v32h-66v38h66v32h-165v-32zM167 426h166v34h-66v69h-100v-103zM200 460v35h33v-35h-33zM167 365h66v-36h-66v-34h100v70h66v33h-166v-33zM301 273h-134v-34h166v99h-32v-65zM233 160h34v24h34v-48h-101v80h-33
v-113h166v113h-100v-56zM167 -70h166v113h-166v-113zM200 -37v48h101v-48h-101zM167 -126h70l-70 -47v-33h166v33h-101l69 47h32v34h-166v-34z" />
    <glyph glyph-name=".notdef" horiz-adv-x="501" 
d="M94 -275v1000h317v-1000h-317zM168 626h65v-38h-66v-32h166v32h-66v38h66v32h-165v-32zM167 426h166v34h-66v69h-100v-103zM200 460v35h33v-35h-33zM167 365h66v-36h-66v-34h100v70h66v33h-166v-33zM301 273h-134v-34h166v99h-32v-65zM233 160h34v24h34v-48h-101v80h-33
v-113h166v113h-100v-56zM167 -70h166v113h-166v-113zM200 -37v48h101v-48h-101zM167 -126h70l-70 -47v-33h166v33h-101l69 47h32v34h-166v-34z" />
    <glyph glyph-name="space" unicode=" " horiz-adv-x="234" 
 />
    <glyph glyph-name="exclam" unicode="!" horiz-adv-x="258" 
d="M85.5 625.5c13.667 2.33301 28.165 3.5 43.498 3.5c14.667 0 29 -1.16699 43 -3.5s20.333 -5.16602 19 -8.49902c-13.333 -54 -23.5 -112.833 -30.5 -176.5s-13.5 -140.834 -19.5 -231.501l-1 -20c0 -2.66699 -4.33301 -4 -13 -4c-9.33301 0 -14 1.33301 -14 4
c-4.66699 93.333 -10.167 173.833 -16.5 241.5s-16.166 129.834 -29.499 186.501c-1.33301 3.33301 4.83398 6.16602 18.501 8.49902zM82.998 4c-10 10 -15 23.333 -15 40c0 16 5 28.833 15 38.5s23.333 14.5 40 14.5c17.333 0 30.666 -4.83301 39.999 -14.5
s14 -22.5 14 -38.5c0 -17.333 -4.66699 -30.833 -14 -40.5s-22.666 -14.5 -39.999 -14.5c-16.667 0 -30 5 -40 15z" />
    <glyph glyph-name="quotedbl" unicode="&#x22;" horiz-adv-x="296" 
d="M33 607c-0.666992 7.33301 8.99902 14.667 28.999 22s37.667 11 53 11c10.667 0 15.667 -2.33301 15 -7l-59 -267c-1.33301 -1.33301 -4.16602 -2.33301 -8.49902 -3s-6.5 0 -6.5 2zM181.999 607.001c-0.666992 7.33301 8.99902 14.667 28.999 22s37.667 11 53 11
c10.667 0 15.667 -2.33301 15 -7l-59 -267c-1.33301 -1.33301 -4.16602 -2.33301 -8.49902 -3s-6.5 0 -6.5 2z" />
    <glyph glyph-name="numbersign" unicode="#" horiz-adv-x="526" 
d="M466.5 311c1 -4.66699 1.50195 -9.66016 1.50195 -14.9932s-0.5 -10.333 -1.5 -15s-2.16699 -7 -3.5 -7h-66l-27 -154h58c1.33301 0 2.5 -2.33301 3.5 -7s1.5 -9.66699 1.5 -15c0 -6 -0.5 -11.333 -1.5 -16s-2.16699 -7 -3.5 -7h-66l-28 -157
c0 -2.66699 -8 -2.83398 -24 -0.500977s-23.333 4.83301 -22 7.5l27 150h-140l-28 -157c0 -2.66699 -8 -2.83398 -24 -0.500977s-23.333 4.83301 -22 7.5l27 150h-65c-1.33301 0 -2.5 2.5 -3.5 7.5s-1.5 10.5 -1.5 16.5c0 5.33301 0.333008 10.166 1 14.499
s1.66699 6.5 3 6.5h74l27 154h-65c-1.33301 0 -2.5 2.5 -3.5 7.5s-1.5 10.5 -1.5 16.5c0 4.66699 0.5 9.16699 1.5 13.5s1.83301 6.5 2.5 6.5h74l29 164c0 3.33301 7.66699 3.16602 23 -0.500977s22.666 -6.83398 21.999 -9.50098l-27 -154h140l29 164
c0 3.33301 7.66699 3.16602 23 -0.500977s22.666 -6.83398 21.999 -9.50098l-27 -154h58c1.33301 0 2.5 -2.33301 3.5 -7zM323.002 120.007l27 154h-140l-27 -154h140z" />
    <glyph glyph-name="dollar" unicode="$" horiz-adv-x="418" 
d="M341 34.5c-28 -25.667 -64.668 -40.8291 -110.001 -45.4961v-91c0 -4.66699 -4.33301 -7 -13 -7c-9.33301 0 -14 2.33301 -14 7v90c-28 0.666992 -54.667 4.33398 -80 11.001s-44.333 15 -57 25c-5.33301 2.66699 -8 9.66699 -8 21l-7 108v1
c0 2.66699 1.66699 4.16699 5 4.5s5.66602 -0.833984 6.99902 -3.50098c16 -35.333 36 -66.833 60 -94.5s50.667 -44.167 80 -49.5v197l-24 13c-26.667 14 -48 26.5 -64 37.5s-29.5 24.5 -40.5 40.5s-16.5 34.667 -16.5 56c0 34.667 13.833 63 41.5 85s62.167 35 103.5 39
v82c0 2.66699 1.33301 4.66699 4 6s6 2 10 2c3.33301 0 6.33301 -0.666992 9 -2s4 -3.33301 4 -6v-81c18.667 -0.666992 38 -3.16699 58 -7.5s37.333 -9.5 52 -15.5c5.33301 -2.66699 9 -5.33398 11 -8.00098s3.33301 -6.33398 4 -11.001l2 -92
c0 -2.66699 -1.66699 -4.33398 -5 -5.00098s-5.66602 0 -6.99902 2c-6.66699 20 -20.167 42.5 -40.5 67.5s-45.166 40.833 -74.499 47.5v-178l21 -10c28.667 -14.667 51.667 -27.667 69 -39s32 -25.5 44 -42.5s18 -37.167 18 -60.5c0 -36.667 -14 -67.834 -42 -93.501z
M150.999 336.505c12.667 -15 30.332 -28.833 52.999 -41.5v165c-23.333 -0.666992 -41.166 -7.5 -53.499 -20.5s-18.5 -29.5 -18.5 -49.5c0 -20.667 6.33301 -38.5 19 -53.5zM283.497 30.5049c13.667 12.333 20.5 30.8311 20.5 55.498c0 22.667 -6.33301 42.334 -19 59.001
s-30.667 32.334 -54 47.001v-183c21.333 2 38.833 9.16699 52.5 21.5z" />
    <glyph glyph-name="percent" unicode="%" horiz-adv-x="574" 
d="M57.5 259.5c-24.333 25 -36.502 55.833 -36.502 92.5c0 35.333 12.333 65.5 37 90.5s55.334 37.5 92.001 37.5s67 -12.667 91 -38s36 -56 36 -92s-12 -66.333 -36 -91s-54.333 -37 -91 -37c-37.333 0 -68.166 12.5 -92.499 37.5zM130.498 -2c-9 6 -13.167 10 -12.5 12
l318 466c2 2.66699 7.5 0.5 16.5 -6.5s12.833 -11.167 11.5 -12.5l-318 -466c-1.33301 -1.33301 -6.5 1 -15.5 7zM193.998 263.5c6 17.667 9 44.167 9 79.5c0 40 -5 70.333 -15 91s-24.667 31 -44 31s-32.5 -9.66699 -39.5 -29s-10.5 -46 -10.5 -80
c0 -79.333 21 -119 63 -119c18.667 0 31 8.83301 37 26.5zM349.498 32.5c-24.333 25 -36.502 55.833 -36.502 92.5c0 35.333 12.333 65.5 37 90.5s55.334 37.5 92.001 37.5s66.834 -12.667 90.501 -38s35.5 -56 35.5 -92c0 -36.667 -11.833 -67.167 -35.5 -91.5
s-53.834 -36.5 -90.501 -36.5c-37.333 0 -68.166 12.5 -92.499 37.5zM485.496 36.5c5.66699 17.667 8.49902 44.167 8.49902 79.5c0 40 -4.83301 70.333 -14.5 91s-24.167 31 -43.5 31c-18.667 0 -31.667 -9.66699 -39 -29s-11 -46 -11 -80c0 -79.333 21 -119 63 -119
c18.667 0 30.834 8.83301 36.501 26.5z" />
    <glyph glyph-name="ampersand" unicode="&#x26;" horiz-adv-x="546" 
d="M546 6c0 -4 -0.669922 -6.00195 -2.00293 -6.00195h-129c-16.667 0 -41 11 -73 33c-42 -30 -92 -45 -150 -45c-49.333 0 -86.833 10.167 -112.5 30.5s-38.5 44.833 -38.5 73.5c0 25.333 8.66699 47.833 26 67.5s42.666 41.5 75.999 65.5c-14.667 20 -26 38.333 -34 55
c-12 26.667 -18 51 -18 73c0 25.333 7 47.5 21 66.5s32.5 33.833 55.5 44.5s47.167 16 72.5 16c27.333 0 51.833 -5.83301 73.5 -17.5s32.5 -31.5 32.5 -59.5c0 -18 -4.5 -33.833 -13.5 -47.5s-20 -25.667 -33 -36s-31.167 -23.166 -54.5 -38.499l-24 -15
c30.667 -47.333 73.334 -94.666 128.001 -141.999l28 -23c14.667 26.667 22 54.334 22 83.001c0 22.667 -5.5 40.167 -16.5 52.5s-26.5 18.5 -46.5 18.5c-2 0 -3.16699 2 -3.5 6s0.833984 6 3.50098 6l184 1c2.66699 0 4 -2 4 -6s-1.33301 -6 -4 -6
c-17.333 0 -30.166 -2 -38.499 -6s-14 -9.16699 -17 -15.5s-7.16699 -17.5 -12.5 -33.5c-12.667 -42 -31.667 -80.333 -57 -115c31.333 -22.667 60.333 -40.334 87 -53.001s47.334 -19.667 62.001 -21c1.33301 0 2 -2 2 -6zM212.997 277.998
c18.667 16.667 33.167 33.667 43.5 51s15.5 36.333 15.5 57c0 22 -5.5 40 -16.5 54s-24.833 21 -41.5 21c-13.333 0 -24 -5 -32 -15s-12 -24.667 -12 -44c0 -34.667 14.333 -76 43 -124zM325.997 44.998c-20.667 15.333 -41.333 32.334 -62 51.001
c-46 42 -82.667 80.333 -110 115c-20 -24.667 -30 -51.334 -30 -80.001c0 -34 11.5 -60.667 34.5 -80s51.833 -29 86.5 -29c30 0 57 7.66699 81 23z" />
    <glyph glyph-name="quotesingle" unicode="'" horiz-adv-x="147" 
d="M33 607c-0.666992 7.33301 8.99902 14.667 28.999 22s37.667 11 53 11c10.667 0 15.667 -2.33301 15 -7l-59 -267c-1.33301 -1.33301 -4.16602 -2.33301 -8.49902 -3s-6.5 0 -6.5 2z" />
    <glyph glyph-name="parenleft" unicode="(" horiz-adv-x="309" 
d="M110 559c39.333 75.333 94 130.667 164 166c1.33301 0.666992 2.66602 0.166992 3.99902 -1.5s1.33301 -3.16699 0 -4.5c-44.667 -46.667 -77.334 -104.5 -98.001 -173.5s-31 -149.5 -31 -241.5s10.333 -172.5 31 -241.5s53.334 -126.833 98.001 -173.5
c1.33301 -0.666992 1.33301 -2 0 -4s-2.66602 -2.66699 -3.99902 -2c-70 36 -124.667 91.5 -164 166.5s-59 159.833 -59 254.5s19.667 179.667 59 255z" />
    <glyph glyph-name="parenright" unicode=")" horiz-adv-x="309" 
d="M199 49c-39.333 -75.333 -94 -130.667 -164 -166c-1.33301 -0.666992 -2.66602 -0.166992 -3.99902 1.5s-1.33301 3.16699 0 4.5c44.667 46.667 77.334 104.5 98.001 173.5s31 149.5 31 241.5s-10.333 172.5 -31 241.5s-53.334 126.833 -98.001 173.5
c-1.33301 0.666992 -1.33301 2 0 4s2.66602 2.66699 3.99902 2c70 -36 124.667 -91.5 164 -166.5s59 -159.833 59 -254.5s-19.667 -179.667 -59 -255z" />
    <glyph glyph-name="asterisk" unicode="*" horiz-adv-x="448" 
d="M209 657c-0.666992 7.33301 10.834 14.5 34.501 21.5s43.167 10.5 58.5 10.5c7.33301 0 10.666 -1.33301 9.99902 -4l-76 -156c-0.666992 -2 -2.5 -3 -5.5 -3s-4.5 1 -4.5 3zM76.001 535c-6.66699 0.666992 -10.001 12 -10.001 34c0 16.667 1.83301 33.5 5.5 50.5
s6.83398 24.167 9.50098 21.5l126 -121c1.33301 -0.666992 1.5 -2.5 0.5 -5.5s-2.16699 -4.16699 -3.5 -3.5zM250 504c-1.33301 0 -2.33203 1.33203 -2.99902 3.99902s-0.333984 4.33398 0.999023 5.00098l116 56c6 2.66699 14.5 -3.33301 25.5 -18s20.5 -30.167 28.5 -46.5
s10 -24.5 6 -24.5zM142.001 367.999c-8.66699 0 -20.6689 3 -36.002 9s-28.666 12.5 -39.999 19.5s-15.666 11.167 -12.999 12.5l153 82l2 1c2 0 3.83301 -0.833008 5.5 -2.5s2.16699 -3.16699 1.5 -4.5l-63 -113c-0.666992 -2.66699 -4 -4 -10 -4zM231.999 480.999
c-0.666992 1.33301 0.332031 3.16699 2.99902 5.5s4.66699 2.83301 6 1.5l89 -95c4 -4 0.833008 -13.5 -9.5 -28.5s-22.166 -28.667 -35.499 -41s-20.333 -16.5 -21 -12.5z" />
    <glyph glyph-name="plus" unicode="+" horiz-adv-x="398" 
d="M367.5 240c1 -4.66699 1.5 -9.66602 1.5 -14.999c0 -6 -0.5 -11.333 -1.5 -16s-2.16699 -7 -3.5 -7h-142v-142c0 -1.33301 -2.83301 -2.5 -8.5 -3.5s-11.5 -1.5 -17.5 -1.5c-13.333 0 -20 1 -20 3v144h-142c-1.33301 0 -2.5 2.5 -3.5 7.5s-1.5 10.5 -1.5 16.5
c0 5.33301 0.333008 10.166 1 14.499s1.66699 6.5 3 6.5h143v142c0 1.33301 2.5 2.5 7.5 3.5s10.167 1.5 15.5 1.5c6 0 11.333 -0.5 16 -1.5s7 -2.16699 7 -3.5v-142h142c1.33301 0 2.5 -2.33301 3.5 -7z" />
    <glyph glyph-name="comma" unicode="," horiz-adv-x="222" 
d="M153 68.5c12.667 -17 19.001 -41.166 19.001 -72.499c0 -29.333 -6.5 -56.333 -19.5 -81s-32.167 -49.334 -57.5 -74.001c-0.666992 -0.666992 -1.66699 -1 -3 -1c-2 0 -3.66699 1 -5 3s-1.33301 3.66699 0 5c32.667 33.333 49 72.666 49 117.999
c0 18.667 -3.33301 32.334 -10 41.001c-6 -10 -17.667 -15 -35 -15c-14.667 0 -26.334 4.5 -35.001 13.5s-13 21.167 -13 36.5c0 16.667 5.16699 29.5 15.5 38.5s24.5 13.5 42.5 13.5c22 0 39.333 -8.5 52 -25.5z" />
    <glyph glyph-name="hyphen" unicode="-" horiz-adv-x="282" 
d="M28.5 208c-1 6 -1.5 12.3311 -1.5 18.998c0 14.667 1 22.334 3 23.001l214 35c1.33301 0.666992 2.5 -1.66602 3.5 -6.99902s1.5 -11 1.5 -17s-0.5 -11.667 -1.5 -17s-2.16699 -8.33301 -3.5 -9l-212 -35c-1.33301 -0.666992 -2.5 2 -3.5 8z" />
    <glyph glyph-name="period" unicode="." horiz-adv-x="204" 
d="M63 4c-10 10 -15 23.333 -15 40c0 16 5 28.833 15 38.5s23.333 14.5 40 14.5c17.333 0 30.666 -4.83301 39.999 -14.5s14 -22.5 14 -38.5c0 -17.333 -4.66699 -30.833 -14 -40.5s-22.666 -14.5 -39.999 -14.5c-16.667 0 -30 5 -40 15z" />
    <glyph glyph-name="slash" unicode="/" horiz-adv-x="348" 
d="M47 -162c-14.667 4 -21.665 7.33301 -20.998 10l252 882c1.33301 2.66699 9.16602 2 23.499 -2s21.166 -7.66699 20.499 -11l-251 -881c-1.33301 -2.66699 -9.33301 -2 -24 2z" />
    <glyph glyph-name="zero" unicode="0" horiz-adv-x="547" 
d="M152 18.5c-36 21 -64.167 50.332 -84.5 87.999s-30.5 80.834 -30.5 129.501c0 47.333 10.167 89.333 30.5 126s48.666 65.167 84.999 85.5s77.5 30.5 123.5 30.5c45.333 0 85.833 -10.333 121.5 -31s63.334 -49.5 83.001 -86.5s29.5 -79.5 29.5 -127.5
s-10 -90.667 -30 -128s-47.833 -66.333 -83.5 -87s-76.167 -31 -121.5 -31c-46 0 -87 10.5 -123 31.5zM377 62.999c20 38 30 90.667 30 158c0 52.667 -6.5 97 -19.5 133s-30.167 62.667 -51.5 80s-45 26 -71 26c-40 0 -71.333 -20 -94 -60s-34 -92.333 -34 -157
c0 -46 6.16699 -86.833 18.5 -122.5s29.833 -63.667 52.5 -84s49 -30.5 79 -30.5c40 0 70 19 90 57z" />
    <glyph glyph-name="one" unicode="1" horiz-adv-x="344" 
d="M50 6c0 4 1 5.99902 3 5.99902c23.333 0 40.833 1.83301 52.5 5.5s19.667 10.167 24 19.5s6.5 24 6.5 44v272c0 20.667 -2.33301 35.667 -7 45s-13 14 -25 14c-11.333 0 -28.333 -4.66699 -51 -14l-2 -1c-2.66699 0 -4.66699 1.66699 -6 5s-0.666016 5.33301 2.00098 6
l164 72h2c2 0 3.66699 -0.833008 5 -2.5s2 -3.16699 2 -4.5v-392c0 -20.667 1.83301 -35.667 5.5 -45s11.167 -15.666 22.5 -18.999s29.666 -5 54.999 -5c1.33301 0 2 -2 2 -6s-0.666992 -6 -2 -6c-22 -0 -39 0.333008 -51 1l-74 1l-73 -1c-12.667 -0.666992 -30 -1 -52 -1
c-2 0 -3 2 -3 6z" />
    <glyph glyph-name="two" unicode="2" horiz-adv-x="449" 
d="M178 164c30.667 34.667 55.501 68.167 74.501 100.5s28.5 62.833 28.5 91.5c0 27.333 -7.83301 50.833 -23.5 70.5s-38.167 29.5 -67.5 29.5c-30.667 0 -56.167 -11.333 -76.5 -34s-38.833 -55.667 -55.5 -99c0 -1.33301 -1.33301 -2 -4 -2c-2 0 -4 0.5 -6 1.5
s-2.66699 1.83301 -2 2.5l42 165c0.666992 1.33301 2.83398 1.66602 6.50098 0.999023s5.16699 -1.66699 4.5 -3c-0.666992 -3.33301 -1 -7.33301 -1 -12c0 -12 5.33301 -18 16 -18c8 0 19 2.66699 33 8c18.667 5.33301 33.834 9.16602 45.501 11.499s25.167 3.5 40.5 3.5
c42.667 0 77 -11.5 103 -34.5s39 -52.833 39 -89.5c0 -22.667 -5.33301 -43.5 -16 -62.5s-24.334 -36.5 -41.001 -52.5s-41 -37 -73 -63c-51.333 -41.333 -90 -75.333 -116 -102c-4.66699 -4.66699 -3.33398 -7 3.99902 -7c88 0 148.833 1 182.5 3s56.5 6.5 68.5 13.5
s20.667 19.833 26 38.5c0.666992 2 2.66699 2.66699 6 2s5 -1.66699 5 -3l-11 -113c0 -2.66699 -0.833008 -5.16699 -2.5 -7.5s-3.83398 -3.5 -6.50098 -3.5h-358c-3.33301 0 -5.83301 1.33301 -7.5 4s-1.5 5.33398 0.5 8.00098c64 66.667 111.333 117.334 142 152.001z" />
    <glyph glyph-name="three" unicode="3" horiz-adv-x="444" 
d="M346.5 179.5c27.667 -25.667 41.498 -57.165 41.498 -94.498c0 -49.333 -28.333 -95.833 -85 -139.5s-140 -77.834 -250 -102.501c-2.66699 -0.666992 -4.5 1 -5.5 5s-0.5 6.33301 1.5 7c86.667 21.333 148.5 52 185.5 92s55.5 82.333 55.5 127
c0 32.667 -9.5 60.834 -28.5 84.501s-45.833 35.5 -80.5 35.5c-21.333 0 -40.333 -3.33301 -57 -10l-2 -1c-2.66699 0 -4.66699 1.33301 -6 4s-1 4.66699 1 6c19.333 12.667 47.666 21 84.999 25c24.667 23.333 41.667 44.333 51 63s14 40 14 64
c0 31.333 -8 57.166 -24 77.499s-39 30.5 -69 30.5c-34 0 -61.667 -9.16699 -83 -27.5s-38 -48.5 -50 -90.5c0 -1.33301 -1.66699 -2 -5 -2c-2 0 -3.83301 0.5 -5.5 1.5s-2.16699 1.83301 -1.5 2.5l39 152c0 0.666992 1.33301 1 4 1c6.66699 0 9.33398 -1 8.00098 -3l-2 -12
c0 -6.66699 1.66699 -11.5 5 -14.5s7.33301 -4.5 12 -4.5s10.834 1.16699 18.501 3.5s12.834 3.83301 15.501 4.5c30 11.333 58.667 17 86 17c40 0 74 -10.167 102 -30.5s42 -46.833 42 -79.5c0 -26.667 -10.333 -52.5 -31 -77.5s-52 -49.833 -94 -74.5
c47.333 -0.666992 84.833 -13.834 112.5 -39.501z" />
    <glyph glyph-name="four" unicode="4" horiz-adv-x="480" 
d="M443 27c0 -6.66699 -0.5 -12.667 -1.5 -18s-2.16699 -8 -3.5 -8l-72 3v-137c0 -6.66699 -2.66699 -11.334 -8 -14.001l-66 -33l-5 -2c-2.66699 0 -4 2.66699 -4 8v180c-46.667 1.33301 -133.667 2 -261 2c-3.33301 0 -5.66602 1.33301 -6.99902 4
s-1.33301 5.33398 0 8.00098l336 459c0.666992 1.33301 2.66699 2 6 2c6 0 9 -2.33301 9 -7v-429c15.333 0 39.666 0.666992 72.999 2c2.66699 0 4 -6.66699 4 -20zM283 43l0.000976562 292l-210 -287c-2.66699 -4.66699 -1 -7 5 -7c59.333 0 127.666 0.666992 204.999 2z
" />
    <glyph glyph-name="five" unicode="5" horiz-adv-x="433" 
d="M379 111c0 -52 -24.1631 -98.666 -72.4961 -139.999s-128.166 -84.333 -239.499 -129h-1c-2.66699 0 -4.83398 1.5 -6.50098 4.5s-1.16699 5.16699 1.5 6.5c80.667 39.333 137.5 78.5 170.5 117.5s49.5 80.167 49.5 123.5c0 49.333 -18.333 87.5 -55 114.5
s-89.667 40.5 -159 40.5c-3.33301 0 -6 1.16699 -8 3.5s-2.66699 5.16602 -2 8.49902l32 178c0.666992 4.66699 1.5 7.5 2.5 8.5s4.5 1.83301 10.5 2.5c92 10 153.833 17 185.5 21s52 8.16699 61 12.5s15.167 11.5 18.5 21.5c1.33301 2 3.66602 2.83301 6.99902 2.5
s4.66602 -1.83301 3.99902 -4.5l-20 -101c-2.66699 -8 -5.83398 -13 -9.50098 -15s-9.83398 -3 -18.501 -3l-212 -5c-8 0 -13 -4.66699 -15 -14l-16 -87c194.667 -2 292 -57.667 292 -167z" />
    <glyph glyph-name="six" unicode="6" horiz-adv-x="501" 
d="M429 257c22.667 -24.667 34 -55.002 34 -91.002c0 -34 -9 -64.667 -27 -92s-42.833 -48.666 -74.5 -63.999s-67.5 -23 -107.5 -23c-38.667 0 -73.667 10.667 -105 32s-55.833 51.333 -73.5 90s-26.5 82.334 -26.5 131.001c0 58.667 13.833 114.167 41.5 166.5
s68.5 96.666 122.5 132.999s118.333 59.166 193 68.499c2 0.666992 3.5 -0.666016 4.5 -3.99902s0.166992 -5.33301 -2.5 -6c-56.667 -12 -104.5 -35 -143.5 -69s-68 -74.5 -87 -121.5s-28.5 -96.167 -28.5 -147.5c0 -43.333 5.66699 -84.333 17 -123
s27.166 -69.667 47.499 -93s43.5 -35 69.5 -35c27.333 0 47.333 11.5 60 34.5s19 55.167 19 96.5c0 38.667 -6.66699 68.834 -20 90.501s-32.666 32.5 -57.999 32.5c-14 0 -26.667 -2.83301 -38 -8.5s-23.333 -15.167 -36 -28.5l-2 -1c-2.66699 0 -5.16699 1 -7.5 3
s-2.83301 3.66699 -1.5 5c14.667 20 33 35.167 55 45.5s46.333 15.5 73 15.5c45.333 0 79.333 -12.333 102 -37z" />
    <glyph glyph-name="seven" unicode="7" horiz-adv-x="476" 
d="M211 -127l-91.999 -31.001c-1.33301 -0.666992 -3 0 -5 2s-2.66699 3.66699 -2 5l274 534c2 4.66699 0.333008 7 -5 7c-111.333 0 -187.5 -1.33301 -228.5 -4s-67.167 -8 -78.5 -16s-20.333 -24 -27 -48c-0.666992 -2 -2.33398 -3 -5.00098 -3
c-2 0 -3.83301 0.5 -5.5 1.5s-2.16699 2.16699 -1.5 3.5l40 171c0.666992 1.33301 3 1.83301 7 1.5s5.66699 -1.16602 5 -2.49902c-0.666992 -2.66699 -1 -6 -1 -10c0 -6.66699 3.16699 -11 9.5 -13s19.166 -3 38.499 -3h300c3.33301 0 5.83301 -1.5 7.5 -4.5
s1.83398 -5.83301 0.500977 -8.5l-210 -558c-5.33301 -11.333 -12.333 -19.333 -21 -24z" />
    <glyph glyph-name="eight" unicode="8" horiz-adv-x="571" 
d="M431 315.5c22 -15 40.666 -33.6621 55.999 -55.9951s23 -48.833 23 -79.5c0 -36 -10.667 -68.833 -32 -98.5s-49.833 -52.834 -85.5 -69.501s-74.5 -25 -116.5 -25s-79.333 8.5 -112 25.5s-58 39.5 -76 67.5s-27 58 -27 90c0 37.333 11.833 71.833 35.5 103.5
s53.834 58.167 90.501 79.5c-23.333 16 -41.5 33.667 -54.5 53s-19.5 41.666 -19.5 66.999c0 29.333 8.66699 54.166 26 74.499s39.5 35.666 66.5 45.999s54.5 15.5 82.5 15.5c31.333 0 59 -5.5 83 -16.5s42.333 -25.333 55 -43s19 -35.834 19 -54.501
c0 -26 -9.5 -50.667 -28.5 -74s-43.167 -41.333 -72.5 -54c36 -19.333 65 -36.5 87 -51.5zM217.999 569.005c-12 -14.667 -18 -34.001 -18 -58.001c0 -29.333 10.667 -53.666 32 -72.999s53 -40 95 -62c18 22 27 54 27 96c0 32.667 -8.16699 60.667 -24.5 84
s-37.5 35 -63.5 35c-20 0 -36 -7.33301 -48 -22zM384.499 44.5039c20.333 23 30.499 52.834 30.499 89.501c0 29.333 -7.16699 54.666 -21.5 75.999s-31.833 39.166 -52.5 53.499s-48 30.5 -82 48.5c-14.667 6.66699 -30.667 15.334 -48 26.001
c-36 -35.333 -54 -82 -54 -140c0 -34 6.16699 -65.333 18.5 -94s29.833 -51.5 52.5 -68.5s48.334 -25.5 77.001 -25.5c32.667 0 59.167 11.5 79.5 34.5z" />
    <glyph glyph-name="nine" unicode="9" horiz-adv-x="501" 
d="M79.5 214c-22.333 27.333 -33.501 59.9971 -33.501 97.9971c0 32.667 8.5 61.667 25.5 87s40.5 45.166 70.5 59.499s64 21.5 102 21.5c40 0 76.333 -10.5 109 -31.5s58.167 -50.333 76.5 -88s27.5 -80.5 27.5 -128.5c0 -60 -14.333 -117.667 -43 -173
s-70.5 -102.166 -125.5 -140.499s-119.833 -62.166 -194.5 -71.499h-1c-2 0 -3.33301 1.5 -4 4.5s0 4.83301 2 5.5c56.667 12 105.167 36.167 145.5 72.5s70.666 79.333 90.999 129s30.5 100.834 30.5 153.501c0 42.667 -5.66699 82.834 -17 120.501s-27.166 68 -47.499 91
s-43.833 34.5 -70.5 34.5c-50.667 0 -76 -40.333 -76 -121c0 -40.667 6.33301 -73 19 -97s31.334 -36 56.001 -36c14 0 26.5 2.66699 37.5 8s23.5 14.666 37.5 27.999c0.666992 0.666992 1.66699 1 3 1c2 0 3.83301 -1 5.5 -3s2.16699 -3.66699 1.5 -5
c-14.667 -19.333 -33 -34.166 -55 -44.499s-46.333 -15.5 -73 -15.5c-44 0 -77.167 13.667 -99.5 41z" />
    <glyph glyph-name="colon" unicode=":" horiz-adv-x="204" 
d="M63 343c-10 10 -15 23.333 -15 40c0 16 5 28.833 15 38.5s23.333 14.5 40 14.5c17.333 0 30.666 -4.83301 39.999 -14.5s14 -22.5 14 -38.5c0 -17.333 -4.66699 -30.833 -14 -40.5s-22.666 -14.5 -39.999 -14.5c-16.667 0 -30 5 -40 15zM63 4c-10 10 -15 23.333 -15 40
c0 16 5 28.833 15 38.5s23.333 14.5 40 14.5c17.333 0 30.666 -4.83301 39.999 -14.5s14 -22.5 14 -38.5c0 -17.333 -4.66699 -30.833 -14 -40.5s-22.666 -14.5 -39.999 -14.5c-16.667 0 -30 5 -40 15z" />
    <glyph glyph-name="semicolon" unicode=";" horiz-adv-x="225" 
d="M65 343c-10 10 -15 23.333 -15 40c0 16 5 28.833 15 38.5s23.333 14.5 40 14.5c17.333 0 30.666 -4.83301 39.999 -14.5s14 -22.5 14 -38.5c0 -17.333 -4.66699 -30.833 -14 -40.5s-22.666 -14.5 -39.999 -14.5c-16.667 0 -30 5 -40 15zM156 68.5
c12.667 -17 19.001 -41.166 19.001 -72.499c0 -29.333 -6.5 -56.333 -19.5 -81s-32.167 -49.334 -57.5 -74.001c-0.666992 -0.666992 -1.66699 -1 -3 -1c-2 0 -3.66699 1 -5 3s-1.33301 3.66699 0 5c32.667 33.333 49 72.666 49 117.999
c0 18.667 -3.33301 32.334 -10 41.001c-6 -10 -17.667 -15 -35 -15c-14.667 0 -26.334 4.5 -35.001 13.5s-13 21.167 -13 36.5c0 16.667 5.16699 29.5 15.5 38.5s24.5 13.5 42.5 13.5c22 0 39.333 -8.5 52 -25.5z" />
    <glyph glyph-name="less" unicode="&#x3c;" horiz-adv-x="407" 
d="M377 92c0 -15.333 -2.33301 -22 -7 -20l-334 148c-3.33301 2 -5 7.66699 -5 17c0 10 1.66699 15.667 5 17l334 147c4.66699 2.66699 7 -3.66602 7 -18.999c0 -14.667 -2.33301 -23.334 -7 -26.001l-278 -119l278 -119c4.66699 -2 7 -10.667 7 -26z" />
    <glyph glyph-name="equal" unicode="=" horiz-adv-x="468" 
d="M30.5 291.5c-1 5 -1.5 10.501 -1.5 16.501c0 5.33301 0.333008 10.166 1 14.499s1.66699 6.5 3 6.5h401c1.33301 0 2.5 -2.33301 3.5 -7s1.5 -9.66699 1.5 -15c0 -6 -0.5 -11.333 -1.5 -16s-2.16699 -7 -3.5 -7h-400c-1.33301 0 -2.5 2.5 -3.5 7.5zM30.5 151.501
c-1 5 -1.5 10.501 -1.5 16.501c0 5.33301 0.333008 10.166 1 14.499s1.66699 6.5 3 6.5h401c1.33301 0 2.5 -2.33301 3.5 -7s1.5 -9.66699 1.5 -15c0 -6 -0.5 -11.333 -1.5 -16s-2.16699 -7 -3.5 -7h-400c-1.33301 0 -2.5 2.5 -3.5 7.5z" />
    <glyph glyph-name="greater" unicode="&#x3e;" horiz-adv-x="407" 
d="M376 236c0 -9.33301 -1.66699 -15 -5 -17l-334 -147c-2 -0.666992 -3.66699 0.833008 -5 4.5s-2 8.5 -2 14.5s0.666992 11.667 2 17s3 8.33301 5 9l278 119l-278 119c-2 0.666992 -3.66699 3.66699 -5 9s-2 11 -2 17s0.666992 11.167 2 15.5s3 5.83301 5 4.5l334 -148
c3.33301 -1.33301 5 -7 5 -17z" />
    <glyph glyph-name="question" unicode="?" horiz-adv-x="336" 
d="M138.5 596.5c-4.33301 -7.66699 -7.16699 -18.168 -8.5 -31.501c-2 -17.333 -6.33301 -31.833 -13 -43.5s-19.334 -17.5 -38.001 -17.5c-15.333 0 -26.666 4.33301 -33.999 13s-11 18.667 -11 30c0 21.333 12.5 39.666 37.5 54.999s55.833 23 92.5 23
c42 0 77.167 -10.333 105.5 -31s42.5 -50 42.5 -88c0 -25.333 -6 -46.333 -18 -63s-30 -35.667 -54 -57l-18 -15c-21.333 -19.333 -36.833 -38.666 -46.5 -57.999s-14.5 -41 -14.5 -65c0 -12.667 2 -30.667 6 -54c0.666992 -2 -1.5 -3.5 -6.5 -4.5s-7.83301 -0.5 -8.5 1.5
c-8 18 -14.333 38.5 -19 61.5s-7 42.5 -7 58.5c0 20.667 3.5 37.5 10.5 50.5s17.5 27.833 31.5 44.5c15.333 18 27 34.833 35 50.5s12 36.167 12 61.5c0 26.667 -4.66699 48.334 -14 65.001s-22 25 -38 25c-12 0 -20.167 -3.83301 -24.5 -11.5zM110.999 3.99902
c-10 10 -15 23.333 -15 40c0 16 5 28.833 15 38.5s23.333 14.5 40 14.5c17.333 0 30.666 -4.83301 39.999 -14.5s14 -22.5 14 -38.5c0 -17.333 -4.66699 -30.833 -14 -40.5s-22.666 -14.5 -39.999 -14.5c-16.667 0 -30 5 -40 15z" />
    <glyph glyph-name="at" unicode="@" horiz-adv-x="726" 
d="M421 98.5c-10.667 10.333 -16.0029 24.8311 -16.0029 43.498c0 10.667 1.33301 21 4 31l4 20c-22.667 -34 -47.334 -61.167 -74.001 -81.5s-51.667 -30.5 -75 -30.5c-16 0 -29.333 5.16699 -40 15.5s-16 26.5 -16 48.5c0 4 0.666992 11.333 2 22
c5.33301 36 19.333 71 42 105s49.334 61.667 80.001 83s59.334 32 86.001 32c9.33301 0 18.5 -2 27.5 -6s16.167 -9.66699 21.5 -17c15.333 8 25 18 29 30c1.33301 1.33301 3.66602 2 6.99902 2c6.66699 0 10 -1 10 -3l-41 -224c-2 -8.66699 -3 -17 -3 -25
c0 -24.667 12.333 -37 37 -37c16.667 0 33.667 6.16699 51 18.5s31.833 30.5 43.5 54.5s17.5 52.333 17.5 85c0 44 -10.833 84.333 -32.5 121s-51.334 65.834 -89.001 87.501s-79.834 32.5 -126.501 32.5c-50.667 0 -94.667 -12.5 -132 -37.5s-65.833 -58.667 -85.5 -101
s-29.5 -88.5 -29.5 -138.5c0 -54 11.333 -101.333 34 -142s54.834 -72 96.501 -94s89.834 -33 144.501 -33c32 0 60.833 3.5 86.5 10.5s52.5 19.833 80.5 38.5h1c2 0 3.83301 -1.16699 5.5 -3.5s1.5 -3.83301 -0.5 -4.5c-34 -28.667 -68.167 -48.334 -102.5 -59.001
s-69.166 -16 -104.499 -16c-55.333 0 -105.666 11 -150.999 33s-81 53.833 -107 95.5s-39 91.167 -39 148.5c0 62.667 15.667 118.834 47 168.501s72.833 88.334 124.5 116.001s106.834 41.5 165.501 41.5c52 0 98 -10.667 138 -32s70.833 -49.833 92.5 -85.5
s32.5 -74.167 32.5 -115.5c0 -38 -9 -73.333 -27 -106s-42.333 -58.667 -73 -78s-64 -29 -100 -29c-20 0 -35.333 5.16699 -46 15.5zM353.997 161.998c18 16.667 34.332 37.833 48.999 63.5s24.667 51.167 30 76.5c0.666992 4 1 9.66699 1 17
c0 13.333 -2.66699 24.166 -8 32.499s-12.666 12.5 -21.999 12.5c-24.667 0 -48.5 -15.167 -71.5 -45.5s-38.167 -65.833 -45.5 -106.5c-2.66699 -11.333 -4 -23.666 -4 -36.999c0 -25.333 7.66699 -38 23 -38c14 0 30 8.33301 48 25z" />
    <glyph glyph-name="A" unicode="A" horiz-adv-x="711" 
d="M716 6c0 -4 -1.66699 -6 -5 -6c-12.667 0 -33 0.666992 -61 2s-48.333 2 -61 2c-16.667 0 -36.334 -0.666992 -59.001 -2s-40.334 -2 -53.001 -2c-2.66699 0 -4 2 -4 6s1.33301 6 4 6c19.333 0 33.5 2.16699 42.5 6.5s13.5 11.5 13.5 21.5s-5.66699 27 -17 51l-108 219
h-181l-77 -173c-8.66699 -20 -13 -38 -13 -54c0 -23.333 8.33301 -41 25 -53s40 -18 70 -18c3.33301 0 5 -2 5 -6s-1.66699 -6 -5 -6c-12 0 -29.333 0.666992 -52 2c-25.333 1.33301 -47.333 2 -66 2c-18 0 -39 -0.666992 -63 -2c-21.333 -1.33301 -39 -2 -53 -2
c-3.33301 0 -5 2 -5 6s1.66699 6 5 6c18.667 0 34.334 3.66699 47.001 11s25 20.5 37 39.5s26.333 47.167 43 84.5l215 484c1.33301 2 4.33301 3 9 3s7.33398 -1 8.00098 -3l245 -494c23.333 -48 42.833 -80.833 58.5 -98.5s32.5 -26.5 50.5 -26.5c3.33301 0 5 -2 5 -6z
M238 335h158l-83 168z" />
    <glyph glyph-name="B" unicode="B" horiz-adv-x="583" 
d="M482 296c32.667 -30.667 48.9971 -68.6709 48.9971 -114.004c0 -34.667 -9.5 -66.167 -28.5 -94.5s-45.333 -50.666 -79 -66.999s-71.167 -24.5 -112.5 -24.5c-19.333 0 -41.666 1 -66.999 3c-8.66699 0.666992 -19.667 1.33398 -33 2.00098s-28.333 1 -45 1l-72 -1
c-12.667 -0.666992 -30 -1 -52 -1c-2 0 -3 2 -3 6s1 6 3 6c21.333 0 37.333 1.83301 48 5.5s18.167 10.167 22.5 19.5s6.5 24 6.5 44v463c0 19.333 -2.16699 33.833 -6.5 43.5s-11.666 16.334 -21.999 20.001s-26.166 5.5 -47.499 5.5c-1.33301 0 -2 2 -2 6s0.666992 6 2 6
l52 -1c29.333 -1.33301 53 -2 71 -2c18.667 0 38.334 1 59.001 3c7.33301 0.666992 16.166 1.33398 26.499 2.00098s22.166 1 35.499 1c59.333 0 104.833 -11.5 136.5 -34.5s47.5 -54.833 47.5 -95.5c0 -31.333 -10.5 -60 -31.5 -86s-50.5 -46.333 -88.5 -61
c54.667 -6 98.334 -24.333 131.001 -55zM226.497 594.996c-7.66699 -8.66699 -11.5 -26.334 -11.5 -53.001v-190l42 -1c39.333 0 69 12.833 89 38.5s30 58.834 30 99.501c0 38 -9 67.333 -27 88s-44.333 31 -79 31c-21.333 0 -35.833 -4.33301 -43.5 -13zM429.997 157.996
c0 50.667 -13.167 91.333 -39.5 122s-64.833 46 -115.5 46c-24 0 -44 -0.666992 -60 -2v-243c0 -15.333 2 -27.333 6 -36s11.667 -15.167 23 -19.5s28.333 -6.5 51 -6.5c90 0 135 46.333 135 139z" />
    <glyph glyph-name="C" unicode="C" horiz-adv-x="669" 
d="M512.5 628c32.333 -5.33301 57.8301 -12.6699 76.4971 -22.0029c6 -2 9.83301 -4.5 11.5 -7.5s2.83398 -8.16699 3.50098 -15.5l12 -130c0 -2 -1.66699 -3.33301 -5 -4s-5.33301 0.333008 -6 3c-19.333 52 -48.5 91.667 -87.5 119s-84.833 41 -137.5 41
c-69.333 0 -123.666 -24.333 -162.999 -73s-59 -114 -59 -196c0 -61.333 10.833 -117.666 32.5 -168.999s51.667 -92 90 -122s81.166 -45 128.499 -45c90 0 158.333 56 205 168c0.666992 2.66699 2.83398 3.66699 6.50098 3s5.5 -2 5.5 -4l-15 -128
c-1.33301 -8 -2.83301 -13.167 -4.5 -15.5s-5.5 -4.83301 -11.5 -7.5c-58 -23.333 -119.667 -35 -185 -35c-81.333 0 -149 16.167 -203 48.5s-93.833 73.5 -119.5 123.5s-38.5 102 -38.5 156c0 62.667 17.167 118.334 51.5 167.001s79.833 86.334 136.5 113.001
s117.334 40 182.001 40c30 0 61.167 -2.66699 93.5 -8z" />
    <glyph glyph-name="D" unicode="D" horiz-adv-x="700" 
d="M246 -1c-10 0.666992 -22.6631 1.33398 -37.9961 2.00098s-32.666 1 -51.999 1l-71 -1c-12.667 -0.666992 -30.334 -1 -53.001 -1c-1.33301 0 -2 2 -2 6s0.666992 6 2 6c22.667 0 39.167 1.66699 49.5 5s17.5 9.83301 21.5 19.5s6 24.5 6 44.5v463
c0 20 -1.83301 34.667 -5.5 44s-10.834 15.833 -21.501 19.5s-27 5.5 -49 5.5c-1.33301 0 -2 2 -2 6s0.666992 6 2 6l53 -1c29.333 -1.33301 52.666 -2 69.999 -2c26.667 0 53.667 1 81 3c33.333 1.33301 55.666 2 66.999 2c68 0 128.333 -13.333 181 -40
s93.5 -63 122.5 -109s43.5 -97.667 43.5 -155c0 -64.667 -15 -121.834 -45 -171.501s-70.333 -88 -121 -115s-106.334 -40.5 -167.001 -40.5c-20.667 0 -44.667 1 -72 3zM430.504 49c35.667 22 63.5 54.501 83.5 97.501s30 94.5 30 154.5
c0 57.333 -9.5 109.166 -28.5 155.499s-45.833 83 -80.5 110s-75 40.5 -121 40.5c-28 0 -49.667 -1.66699 -65 -5s-26.5 -9.5 -33.5 -18.5s-10.5 -22.833 -10.5 -41.5v-450c0 -27.333 7 -46.833 21 -58.5s41.333 -17.5 82 -17.5c46 0 86.833 11 122.5 33z" />
    <glyph glyph-name="E" unicode="E" horiz-adv-x="547" 
d="M493 158c2 0 3.83594 -0.500977 5.50293 -1.50098s2.5 -1.83301 2.5 -2.5c-6.66699 -50.667 -10 -97 -10 -139c0 -5.33301 -1 -9.16602 -3 -11.499s-6 -3.5 -12 -3.5h-434c-2 0 -3 2 -3 6s1 6 3 6c22.667 0 39.167 1.66699 49.5 5s17.333 9.83301 21 19.5
s5.5 24.5 5.5 44.5v463c0 20 -1.83301 34.667 -5.5 44s-10.834 15.833 -21.501 19.5s-27 5.5 -49 5.5c-2 0 -3 2 -3 6s1 6 3 6h416c6.66699 0 10 -3 10 -9l2 -130c0 -1.33301 -1.83301 -2.33301 -5.5 -3s-5.83398 0 -6.50098 2c-16 76 -62.333 114 -139 114h-40
c-24 0 -41 -4.33301 -51 -13s-15 -23.334 -15 -44.001v-204h96c73.333 0 110 24.667 110 74c0 2 1.83301 3 5.5 3s5.5 -1 5.5 -3l-1 -87l1 -47c1.33301 -21.333 2 -38.666 2 -51.999c0 -1.33301 -2 -2 -6 -2s-6 0.666992 -6 2c0 57.333 -37.333 86 -112 86h-95v-227
c0 -22 4.16699 -37.333 12.5 -46s23.166 -13 44.499 -13h49c89.333 0 146 43.333 170 130c0 1.33301 1.33301 2 4 2z" />
    <glyph glyph-name="F" unicode="F" horiz-adv-x="518" 
d="M470 486c0 -1.33301 -1.83203 -2.33301 -5.49902 -3s-5.83398 0 -6.50098 2c-16 76 -62.333 114 -139 114h-40c-24 0 -41 -4.33301 -51 -13s-15 -23 -15 -43v-217h82c74.667 0 112 25 112 75c0 1.33301 2 2 6 2s6 -0.666992 6 -2l-1 -88c0 -20.667 0.333008 -36 1 -46
l1 -52c0 -2 -2 -3 -6 -3s-6 1 -6 3c0 56.667 -38.333 85 -115 85h-80v-215c0 -21.333 2.66699 -36.833 8 -46.5s15.833 -16.5 31.5 -20.5s39.834 -6 72.501 -6c1.33301 0 2 -2 2 -6s-0.666992 -6 -2 -6c-27.333 -0 -48.666 0.333008 -63.999 1l-98 1l-73 -1
c-12.667 -0.666992 -30.334 -1 -53.001 -1c-2 0 -3 2 -3 6s1 6 3 6c24 0 41.5 1.66699 52.5 5s18.5 9.83301 22.5 19.5s6 24.5 6 44.5v463c0 20 -1.83301 34.667 -5.5 44s-10.834 15.833 -21.501 19.5s-27 5.5 -49 5.5c-2 0 -3 2 -3 6s1 6 3 6h416c6.66699 0 10 -3 10 -9z
" />
    <glyph glyph-name="G" unicode="G" horiz-adv-x="717" 
d="M216.5 30c-54.333 28 -95.834 66.165 -124.501 114.498s-43 102.166 -43 161.499c0 64 16.5 121.167 49.5 171.5s78.333 89.333 136 117s122.5 41.5 194.5 41.5c31.333 0 62.666 -2.66699 93.999 -8s56.666 -12.666 75.999 -21.999
c5.33301 -2.66699 8.83301 -5.33398 10.5 -8.00098s2.83398 -7.66699 3.50098 -15l12 -130c0 -2 -1.66699 -3.33301 -5 -4s-5.66602 0.333008 -6.99902 3c-20 50 -50 89 -90 117s-87 42 -141 42c-73.333 0 -129.666 -23.833 -168.999 -71.5s-59 -113.167 -59 -196.5
c0 -65.333 12 -123.666 36 -174.999s57.167 -91.333 99.5 -120s89.833 -43 142.5 -43c29.333 0 52 3 68 9s27.833 17.667 35.5 35s11.5 43 11.5 77c0 34.667 -2 58.834 -6 72.501s-12.833 22.834 -26.5 27.501s-37.5 7 -71.5 7c-4 0 -6 2.66699 -6 8
c0 2 0.5 3.83301 1.5 5.5s2.16699 2.5 3.5 2.5c55.333 -3.33301 99.666 -5 132.999 -5s68 1 104 3c1.33301 0 2.5 -0.833008 3.5 -2.5s1.5 -3.16699 1.5 -4.5c0 -4.66699 -1.66699 -7 -5 -7c-13.333 0.666992 -22.666 -1.5 -27.999 -6.5s-8.83301 -15.167 -10.5 -30.5
s-2.5 -42 -2.5 -80c0 -30 1.16699 -51.333 3.5 -64s3.5 -20.667 3.5 -24c0 -4 -0.833008 -6.5 -2.5 -7.5s-4.83398 -2.5 -9.50098 -4.5c-84 -18.667 -159 -28 -225 -28c-73.333 0 -137.166 14 -191.499 42z" />
    <glyph glyph-name="H" unicode="H" horiz-adv-x="762" 
d="M732 6c0 -4 -0.996094 -5.99902 -2.99609 -5.99902c-22.667 0 -41 0.333008 -55 1l-73 1l-85 -1c-12 -0.666992 -28 -1 -48 -1c-2 0 -3 2 -3 6s1 6 3 6c25.333 0 43.666 1.66699 54.999 5s19 9.66602 23 18.999s6 24.333 6 45v231h-343v-231c0 -20 2 -34.833 6 -44.5
s11.833 -16.167 23.5 -19.5s30.167 -5 55.5 -5c1.33301 0 2 -2 2 -6s-0.666992 -6 -2 -6c-22.667 -0 -40.334 0.333008 -53.001 1l-83 1l-73 -1c-12.667 -0.666992 -30.334 -1 -53.001 -1c-1.33301 0 -2 2 -2 6s0.666992 6 2 6c24 0 41.667 1.66699 53 5s19 9.83301 23 19.5
s6 24.5 6 44.5v463c0 20 -2 34.667 -6 44s-11.667 15.833 -23 19.5s-28.666 5.5 -51.999 5.5c-1.33301 0 -2 2 -2 6s0.666992 6 2 6l53 -1c30.667 -1.33301 54.667 -2 72 -2c23.333 0 51 0.666992 83 2l53 1c1.33301 0 2 -2 2 -6s-0.666992 -6 -2 -6
c-24.667 0 -42.834 -2 -54.501 -6s-19.667 -10.833 -24 -20.5s-6.5 -24.5 -6.5 -44.5v-204h343v204c0 20 -2 34.833 -6 44.5s-11.833 16.5 -23.5 20.5s-29.834 6 -54.501 6c-2 0 -3 2 -3 6s1 6 3 6l48 -1c32 -1.33301 60.333 -2 85 -2c18 0 42.333 0.666992 73 2l55 1
c2 0 3 -2 3 -6s-1 -6 -3 -6c-24 0 -41.5 -1.83301 -52.5 -5.5s-18.5 -10.167 -22.5 -19.5s-6 -24 -6 -44v-463c0 -20 2 -34.833 6 -44.5s11.5 -16.167 22.5 -19.5s28.5 -5 52.5 -5c2 0 3 -2 3 -6z" />
    <glyph glyph-name="I" unicode="I" horiz-adv-x="339" 
d="M223 36c3.33301 -9.33301 10.167 -15.667 20.5 -19s26.833 -5 49.5 -5c2 0 3 -2 3 -6s-1 -6 -3 -6c-21.333 -0 -38.333 0.333008 -51 1l-74 1l-72 -1c-12.667 -0.666992 -30 -1 -52 -1c-2 0 -3 2 -3 6s1 6 3 6c22.667 0 39.167 1.66699 49.5 5s17.5 9.83301 21.5 19.5
s6 24.5 6 44.5v463c0 20 -2 34.667 -6 44s-11.167 15.833 -21.5 19.5s-26.833 5.5 -49.5 5.5c-2 0 -3 2 -3 6s1 6 3 6l52 -1c29.333 -1.33301 53.333 -2 72 -2c20.667 0 45.667 0.666992 75 2l50 1c2 0 3 -2 3 -6s-1 -6 -3 -6c-22 0 -38.167 -2 -48.5 -6
s-17.333 -10.833 -21 -20.5s-5.5 -24.5 -5.5 -44.5v-461c0 -20.667 1.66699 -35.667 5 -45z" />
    <glyph glyph-name="J" unicode="J" horiz-adv-x="333" 
d="M295 619c0 -4 -1.00195 -5.99902 -3.00195 -5.99902c-18.667 0 -32.5 -2 -41.5 -6s-15 -10.833 -18 -20.5s-4.5 -24.5 -4.5 -44.5v-554c0 -72 -17.5 -128.5 -52.5 -169.5s-84.167 -61.5 -147.5 -61.5c-24 0 -43.5 4.83301 -58.5 14.5s-22.5 23.167 -22.5 40.5
c0 12 4 22.5 12 31.5s19.333 13.5 34 13.5s26 -4.16699 34 -12.5s15.333 -19.833 22 -34.5c4.66699 -10.667 9.33398 -18.667 14.001 -24s10.334 -8 17.001 -8c17.333 0 30.166 12.167 38.499 36.5s12.5 64.166 12.5 119.499v610c0 20 -2.16699 34.667 -6.5 44
s-12.666 15.833 -24.999 19.5s-31.5 5.5 -57.5 5.5c-1.33301 0 -2 2 -2 6s0.666992 6 2 6l60 -1c32 -1.33301 57.333 -2 76 -2c18 0 41 0.666992 69 2l45 1c2 0 3 -2 3 -6z" />
    <glyph glyph-name="K" unicode="K" horiz-adv-x="653" 
d="M659 6c0 -4 -0.995117 -6.00098 -2.99512 -6.00098h-112l-39 -1c-9.33301 0 -17.333 2 -24 6s-14.334 11.333 -23.001 22s-24.667 31.667 -48 63l-41 55l-139 182l-25 -26v-220c0 -20.667 1.66699 -35.667 5 -45s10.166 -15.666 20.499 -18.999s26.833 -5 49.5 -5
c2.66699 0 4 -2 4 -6s-1.33301 -6 -4 -6c-21.333 -0 -38.333 0.333008 -51 1l-73 1l-71 -1c-12.667 -0.666992 -30.334 -1 -53.001 -1c-1.33301 0 -2 2 -2 6s0.666992 6 2 6c22.667 0 39.167 1.66699 49.5 5s17.5 9.83301 21.5 19.5s6 24.5 6 44.5v463
c0 20 -1.83301 34.667 -5.5 44s-10.834 15.833 -21.501 19.5s-27 5.5 -49 5.5c-1.33301 0 -2 2 -2 6s0.666992 6 2 6l53 -1c29.333 -1.33301 52.666 -2 69.999 -2c20 0 44.667 0.666992 74 2l50 1c2 0 3 -2 3 -6s-1 -6 -3 -6c-22 0 -38.167 -2 -48.5 -6
s-17.333 -10.833 -21 -20.5s-5.5 -24.5 -5.5 -44.5v-211l196 198c20.667 20.667 31 38 31 52c0 10 -5.16699 17.833 -15.5 23.5s-25.5 8.5 -45.5 8.5c-1.33301 0 -2 2 -2 6s0.666992 6 2 6l45 -1c29.333 -1.33301 56 -2 80 -2c26 0 52.333 0.666992 79 2l43 1c2 0 3 -2 3 -6
s-1 -6 -3 -6c-29.333 0 -61.5 -8 -96.5 -24s-66.833 -38 -95.5 -66l-128 -128l147 -195c45.333 -62 79.5 -105.833 102.5 -131.5s41.167 -41.5 54.5 -47.5s31.333 -9 54 -9c2 0 3 -2 3 -6z" />
    <glyph glyph-name="L" unicode="L" horiz-adv-x="541" 
d="M204 85c0 -18 1.5 -31 4.5 -39s8.83301 -13.333 17.5 -16s22.667 -4 42 -4h60c47.333 0 87.333 13.167 120 39.5s54.334 61.833 65.001 106.5c0.666992 2 2.66699 2.83301 6 2.5s5 -1.5 5 -3.5c-6 -62.667 -9 -114.667 -9 -156c0 -5.33301 -1 -9.16602 -3 -11.499
s-6 -3.5 -12 -3.5h-468c-1.33301 0 -2 2 -2 6s0.666992 6 2 6c22.667 0 39.167 1.66699 49.5 5s17.333 9.83301 21 19.5s5.5 24.5 5.5 44.5v463c0 20 -1.83301 34.667 -5.5 44s-10.834 15.833 -21.501 19.5s-27 5.5 -49 5.5c-1.33301 0 -2 2 -2 6s0.666992 6 2 6l51 -1
c29.333 -1.33301 53.333 -2 72 -2c20 0 44.667 0.666992 74 2l50 1c2 0 3 -2 3 -6s-1 -6 -3 -6c-22 0 -38.167 -1.83301 -48.5 -5.5s-17.333 -10.334 -21 -20.001s-5.5 -24.5 -5.5 -44.5v-458z" />
    <glyph glyph-name="M" unicode="M" horiz-adv-x="850" 
d="M828 6c0 -4 -0.666016 -6 -1.99902 -6c-22 -0 -39.667 0.333008 -53 1l-72 1l-70 -1c-12 -0.666992 -29 -1 -51 -1c-1.33301 0 -2 2 -2 6s0.666992 6 2 6c29.333 0 49 3.33301 59 10s15 20.667 15 42l-1 17l-20 424l-213 -498c-1.33301 -2.66699 -4 -4 -8 -4
c-3.33301 0 -6.33301 1.33301 -9 4l-250 494l-9 -380c-0.666992 -35.333 6.16602 -62.333 20.499 -81s35.833 -28 64.5 -28c2 0 3 -2 3 -6s-1 -6 -3 -6c-18 -0 -32 0.333008 -42 1l-55 1l-59 -1c-10 -0.666992 -24 -1 -42 -1c-2 0 -3 2 -3 6s1 6 3 6
c27.333 0 48.5 9.33301 63.5 28s22.833 45.667 23.5 81l9 430c-12 21.333 -25.167 37 -39.5 47s-30.833 15 -49.5 15c-2 0 -3 2 -3 6s1 6 3 6l43 -1c8.66699 -0.666992 20 -1 34 -1l47 1c5.33301 0.666992 12 1 20 1c8.66699 0 15.667 -3.16699 21 -9.5
s13.666 -20.5 24.999 -42.5l220 -429l199 456c4 9.33301 8.33301 15.833 13 19.5s10.334 5.5 17.001 5.5c4.66699 0 10.667 -0.333008 18 -1s16.333 -1 27 -1l54 1c8.66699 0.666992 21.667 1 39 1c1.33301 0 2 -2 2 -6s-0.666992 -6 -2 -6
c-32 0 -55.167 -5.83301 -69.5 -17.5s-20.833 -30.834 -19.5 -57.501l23 -457c1.33301 -20.667 3.83301 -35.667 7.5 -45s10.5 -15.666 20.5 -18.999s26.333 -5 49 -5c1.33301 0 2 -2 2 -6z" />
    <glyph glyph-name="N" unicode="N" horiz-adv-x="732" 
d="M719 619c0 -4 -0.666992 -5.99902 -2 -5.99902c-26.667 0 -47.334 -9.5 -62.001 -28.5s-22 -46.167 -22 -81.5v-517c0 -2 -1.66699 -3.33301 -5 -4s-5.66602 -0.333984 -6.99902 0.999023l-469 545v-407c0 -35.333 7 -62.333 21 -81s34.333 -28 61 -28
c1.33301 0 2 -2 2 -6s-0.666992 -6 -2 -6c-18 -0 -31.667 0.333008 -41 1l-53 1l-59 -1c-10.667 -0.666992 -26 -1 -46 -1c-2 0 -3 2 -3 6s1 6 3 6c28.667 0 50.834 9.33301 66.501 28s23.5 45.667 23.5 81v438c-18.667 20 -35.5 34 -50.5 42s-30.5 12 -46.5 12
c-1.33301 0 -2 2 -2 6s0.666992 6 2 6l40 -1c8.66699 -0.666992 21 -1 37 -1l64 1c8 0.666992 17.667 1 29 1c5.33301 0 9.33301 -1.33301 12 -4s6.66699 -8 12 -16c11.333 -15.333 19.666 -26 24.999 -32l359 -424v354c0 35.333 -7 62.5 -21 81.5s-34 28.5 -60 28.5
c-1.33301 0 -2 2 -2 6s0.666992 6 2 6l41 -1c21.333 -1.33301 39 -2 53 -2c13.333 0 31.333 0.666992 54 2l44 1c1.33301 0 2 -2 2 -6z" />
    <glyph glyph-name="O" unicode="O" horiz-adv-x="766" 
d="M200.5 31.5c-48.333 29 -85.666 68.335 -111.999 118.002s-39.5 103.834 -39.5 162.501c0 68.667 17.333 127.5 52 176.5s79.167 85.833 133.5 110.5s109.833 37 166.5 37c63.333 0 119 -14.833 167 -44.5s84.833 -68.834 110.5 -117.501s38.5 -100.334 38.5 -155.001
c0 -60.667 -16 -116.334 -48 -167.001s-74.833 -90.667 -128.5 -120s-111.834 -44 -174.501 -44c-62 0 -117.167 14.5 -165.5 43.5zM507.5 44.502c31.667 21.667 56.6689 53.499 75.002 95.499s27.5 92 27.5 150c0 61.333 -10.167 116.333 -30.5 165s-49.333 86.667 -87 114
s-81.834 41 -132.501 41c-64.667 0 -114.834 -23.167 -150.501 -69.5s-53.5 -110.5 -53.5 -192.5c0 -63.333 10.5 -120.666 31.5 -171.999s50 -91.5 87 -120.5s78.833 -43.5 125.5 -43.5c40 0 75.833 10.833 107.5 32.5z" />
    <glyph glyph-name="P" unicode="P" horiz-adv-x="550" 
d="M215.5 38.5c5 -9.66699 14.665 -16.5 28.998 -20.5s36.833 -6 67.5 -6c2 0 3 -2 3 -6s-1 -6 -3 -6c-27.333 -0 -48.666 0.333008 -63.999 1l-87 1l-72 -1c-12.667 -0.666992 -30 -1 -52 -1c-2 0 -3 2 -3 6s1 6 3 6c22.667 0 39 1.66699 49 5s16.833 9.66602 20.5 18.999
s5.5 24.333 5.5 45v463c0 20 -1.83301 34.667 -5.5 44s-10.667 15.833 -21 19.5s-26.5 5.5 -48.5 5.5c-2 0 -3 2 -3 6s1 6 3 6l52 -1c29.333 -1.33301 53 -2 71 -2c15.333 0 34 1 56 3c8 0.666992 18.833 1.33398 32.5 2.00098s29.834 1 48.501 1
c66 0 118.167 -14 156.5 -42s57.5 -71 57.5 -129c0 -42 -10.833 -77.667 -32.5 -107s-49.334 -51.333 -83.001 -66s-68.167 -22 -103.5 -22c-18.667 0 -34.334 1.66699 -47.001 5c-2 0 -3 1.66699 -3 5c0 2 0.5 4 1.5 6s2.16699 2.66699 3.5 2
c10.667 -2.66699 22.334 -4 35.001 -4c34.667 0 64 14.333 88 43s36 69.667 36 123c0 52.667 -12.333 93.5 -37 122.5s-58.667 43.5 -102 43.5c-16 0 -28.167 -1.66699 -36.5 -5s-14.166 -9.5 -17.499 -18.5s-5 -23.167 -5 -42.5v-457c0 -21.333 2.5 -36.833 7.5 -46.5z" />
    <glyph glyph-name="Q" unicode="Q" horiz-adv-x="766" 
d="M749.5 -177c1 -3.33301 0.832031 -5.33496 -0.500977 -6.00195c-30 -8 -57.333 -12 -82 -12c-49.333 0 -100.833 16.167 -154.5 48.5s-99.834 77.166 -138.501 134.499h-8c-62 0 -117.167 14.5 -165.5 43.5s-85.666 68.333 -111.999 118s-39.5 103.834 -39.5 162.501
c0 68.667 17.333 127.5 52 176.5s79.167 85.833 133.5 110.5s109.833 37 166.5 37c63.333 0 119 -14.833 167 -44.5s84.833 -68.834 110.5 -117.501s38.5 -100.334 38.5 -155.001c0 -47.333 -10 -92.166 -30 -134.499s-47.667 -78.666 -83 -108.999
s-75.666 -53.166 -120.999 -68.499c26.667 -52.667 61.5 -96.167 104.5 -130.5s83.833 -51.5 122.5 -51.5c11.333 0 23 0.666992 35 2c2 0.666992 3.5 -0.666016 4.5 -3.99902zM187.499 175.998c21 -51.333 50.002 -91.501 87.002 -120.501s78.833 -43.5 125.5 -43.5
c40 0 75.833 10.833 107.5 32.5s56.667 53.5 75 95.5s27.5 92 27.5 150c0 61.333 -10.167 116.333 -30.5 165s-49.333 86.667 -87 114s-81.834 41 -132.501 41c-64.667 0 -114.834 -23.167 -150.501 -69.5s-53.5 -110.5 -53.5 -192.5c0 -63.333 10.5 -120.666 31.5 -171.999
z" />
    <glyph glyph-name="R" unicode="R" horiz-adv-x="690" 
d="M702 6c0 -4 -0.998047 -6.00195 -2.99805 -6.00195h-161c-15.333 0 -43.833 27.833 -85.5 83.5s-92.5 133.5 -152.5 233.5c-10.667 -2 -21.667 -3 -33 -3c-24.667 0 -42 0.333008 -52 1v-234c0 -20.667 1.83301 -35.667 5.5 -45s10.667 -15.666 21 -18.999
s26.833 -5 49.5 -5c1.33301 0 2 -2 2 -6s-0.666992 -6 -2 -6c-22 0 -39 0.333008 -51 1l-74 1l-72 -1c-12.667 -0.666992 -30 -1 -52 -1c-2 0 -3 2 -3 6s1 6 3 6c22.667 0 39.167 1.66699 49.5 5s17.5 9.83301 21.5 19.5s6 24.5 6 44.5v463c0 20 -1.83301 34.667 -5.5 44
s-10.834 15.833 -21.501 19.5s-27 5.5 -49 5.5c-1.33301 0 -2 2 -2 6s0.666992 6 2 6l52 -1c29.333 -1.33301 53 -2 71 -2c20 0 41 1 63 3c8 0.666992 17.667 1.33398 29 2.00098s23.666 1 36.999 1c59.333 0 105 -11 137 -33s48 -53 48 -93c0 -31.333 -9.33301 -61 -28 -89
s-43 -50.667 -73 -68c54.667 -84 100.5 -149.833 137.5 -197.5s69.833 -82.167 98.5 -103.5s56.667 -32 84 -32c2 0 3 -2 3 -6zM273.002 338.998c40 0 68 9 84 27s24 51 24 99c0 54 -9 91.5 -27 112.5s-43.333 31.5 -76 31.5c-24 0 -40.5 -4.66699 -49.5 -14
s-13.5 -27 -13.5 -53v-199c16 -2.66699 35.333 -4 58 -4z" />
    <glyph glyph-name="S" unicode="S" horiz-adv-x="507" 
d="M182.5 453.5c12.333 -19 27.665 -35.5029 45.998 -49.5029s43.166 -30.667 74.499 -50c34 -21.333 60.833 -39.666 80.5 -54.999s36.334 -34.166 50.001 -56.499s20.5 -48.5 20.5 -78.5c0 -34 -8.83301 -64.333 -26.5 -91s-42.667 -47.5 -75 -62.5
s-69.166 -22.5 -110.499 -22.5c-28 0 -56.833 3.66699 -86.5 11s-52.167 16.333 -67.5 27c-6 4 -9.33301 10.333 -10 19l-6 152v1c0 2.66699 1.66699 4.16699 5 4.5s5.33301 -0.833984 6 -3.50098c22 -55.333 47.167 -100.666 75.5 -135.999s64.5 -53 108.5 -53
c28.667 0 52.667 7.83301 72 23.5s29 41.834 29 78.501c0 29.333 -6.5 55 -19.5 77s-29 40.333 -48 55s-44.833 32.667 -77.5 54c-32 20.667 -57 38.167 -75 52.5s-33.333 32 -46 53s-19 45.5 -19 73.5c0 34.667 9.66699 64 29 88s44.5 41.833 75.5 53.5
s63.5 17.5 97.5 17.5c22.667 0 45.334 -2.16699 68.001 -6.5s41.667 -9.83301 57 -16.5c6 -2 10 -4.5 12 -7.5s3 -6.83301 3 -11.5l3 -136c0 -2 -1.83301 -3.5 -5.5 -4.5s-5.83398 -0.166992 -6.50098 2.5c-13.333 40.667 -31.166 77.5 -53.499 110.5
s-55.833 49.5 -100.5 49.5c-30 0 -53.833 -8.66699 -71.5 -26s-26.5 -41 -26.5 -71c0 -24.667 6.16699 -46.5 18.5 -65.5z" />
    <glyph glyph-name="T" unicode="T" horiz-adv-x="640" 
d="M110.5 566.5c-26.333 -25 -46.498 -62.834 -60.498 -113.501c0 -1.33301 -1.83301 -2 -5.5 -2s-5.5 1 -5.5 3c2.66699 26 5.66699 59.5 9 100.5s5 71.833 5 92.5c0 3.33301 1.83301 5 5.5 5s5.5 -1.66699 5.5 -5c0 -14.667 18.667 -22 56 -22
c57.333 -2 124.333 -3 201 -3c39.333 0 81 0.666992 125 2l68 1c25.333 0 43.833 1.66699 55.5 5s19.167 10 22.5 20c0.666992 2.66699 2.66699 4 6 4s5 -1.33301 5 -4c-2 -20.667 -4 -52 -6 -94s-3 -76 -3 -102c0 -2 -1.83301 -3 -5.5 -3s-5.83398 1 -6.50098 3
c-6.66699 51.333 -22.334 89.166 -47.001 113.499s-58 36.5 -100 36.5c-18.667 0 -32.5 -1.66699 -41.5 -5s-15 -9.16602 -18 -17.499s-4.5 -21.5 -4.5 -39.5v-461c0 -20.667 2 -35.667 6 -45s12 -15.666 24 -18.999s31 -5 57 -5c2 0 3 -2 3 -6s-1 -6 -3 -6
c-23.333 -0 -41.666 0.333008 -54.999 1l-82 1l-78 -1c-14 -0.666992 -33.333 -1 -58 -1c-1.33301 0 -2 2 -2 6s0.666992 6 2 6c26 0 45.167 1.66699 57.5 5s20.666 9.83301 24.999 19.5s6.5 24.5 6.5 44.5v463c0 17.333 -1.66699 30 -5 38s-9.33301 13.667 -18 17
s-22 5 -40 5c-40.667 0 -74.167 -12.5 -100.5 -37.5z" />
    <glyph glyph-name="U" unicode="U" horiz-adv-x="701" 
d="M547.5 584c-15.667 19.333 -38.167 29 -67.5 29c-1.33301 0 -2 2 -2 6s0.666992 6 2 6l46 -1c25.333 -1.33301 45.333 -2 60 -2c12 0 30 0.666992 54 2l44 1c1.33301 0 2 -2 2 -6s-0.666992 -6 -2 -6c-26 0 -46.167 -9.66699 -60.5 -29s-21.5 -46.333 -21.5 -81v-280
c0 -48 -10.167 -89.833 -30.5 -125.5s-49 -63.167 -86 -82.5s-79.833 -29 -128.5 -29s-92 9.5 -130 28.5s-67.5 46.333 -88.5 82s-31.5 77.5 -31.5 125.5v322c0 20 -2 34.667 -6 44s-11.167 15.833 -21.5 19.5s-26.5 5.5 -48.5 5.5c-2 0 -3 2 -3 6s1 6 3 6l52 -1
c29.333 -1.33301 53 -2 71 -2c20 0 44.667 0.666992 74 2l50 1c2 0 3 -2 3 -6s-1 -6 -3 -6c-22 0 -38.167 -2 -48.5 -6s-17.5 -10.833 -21.5 -20.5s-6 -24.5 -6 -44.5v-285c0 -79.333 16.5 -138.5 49.5 -177.5s79.167 -58.5 138.5 -58.5c56.667 0 101 17.5 133 52.5
s48 84.5 48 148.5v281c0 34.667 -7.83301 61.667 -23.5 81z" />
    <glyph glyph-name="V" unicode="V" horiz-adv-x="662" 
d="M669 619c0 -4 -1 -6 -3 -6c-24 0 -46 -9 -66 -27s-36.333 -44 -49 -78l-194 -507c-0.666992 -2.66699 -4.33398 -4 -11.001 -4s-10.334 1.33301 -11.001 4l-253 541c-12 24.667 -24 42.667 -36 54s-26.333 17 -43 17c-2 0 -3 2 -3 6s1 6 3 6l26 -1
c14.667 -1.33301 31.334 -2 50.001 -2c46.667 0 88.667 0.666992 126 2c10.667 0.666992 24.334 1 41.001 1c2 0 3 -2 3 -6s-1 -6 -3 -6c-42 0 -63 -14.667 -63 -44c0 -11.333 3.33301 -24 10 -38l186 -398l146 379c6 16 9 30.333 9 43c0 18.667 -6.16699 33 -18.5 43
s-30.833 15 -55.5 15c-2 0 -3 2 -3 6s1 6 3 6l48 -1c25.333 -1.33301 48.666 -2 69.999 -2c12.667 0 28.334 0.666992 47.001 2l41 1c2 0 3 -2 3 -6z" />
    <glyph glyph-name="W" unicode="W" horiz-adv-x="918" 
d="M925 619c0 -4 -0.665039 -5.99805 -1.99805 -5.99805c-24 0 -46 -9 -66 -27s-36.667 -44 -50 -78l-194 -507c-0.666992 -2.66699 -4.33398 -4 -11.001 -4s-10.334 1.33301 -11.001 4l-129 276l-105 -276c-0.666992 -2.66699 -4.33398 -4 -11.001 -4
s-10.334 1.33301 -11.001 4l-253 541c-14 29.333 -25.833 48.5 -35.5 57.5s-24.167 13.5 -43.5 13.5c-2 0 -3 2 -3 6s1 6 3 6l26 -1c14.667 -1.33301 31.334 -2 50.001 -2c37.333 0 71.333 0.666992 102 2c9.33301 0.666992 21 1 35 1c2 0 3 -2 3 -6s-1 -6 -3 -6
c-18 0 -30.833 -1.83301 -38.5 -5.5s-11.5 -10.5 -11.5 -20.5c0 -11.333 6 -30 18 -56l191 -407l72 186l-109 232c-12 24.667 -23.167 42.667 -33.5 54s-22.5 17 -36.5 17c-2 0 -3 2 -3 6s1 6 3 6l24 -1c14.667 -1.33301 29.334 -2 44.001 -2c31.333 0 59 0.666992 83 2
c6.66699 0.666992 15.334 1 26.001 1c2 0 3 -2 3 -6s-1 -6 -3 -6c-10.667 0 -18.167 -1.16699 -22.5 -3.5s-6.5 -6.5 -6.5 -12.5c0 -10.667 8 -32.667 24 -66l54 -114l36 95c12 31.333 18 55 18 71c0 20 -10 30 -30 30c-2 0 -3 2 -3 6s1 6 3 6c6 0 13 -0.5 21 -1.5
s22.667 -1.5 44 -1.5c12 0 26 0.666992 42 2l39 1c1.33301 0 2 -2 2 -6s-0.666992 -6 -2 -6c-22.667 0 -42.667 -8.33301 -60 -25s-33 -43.334 -47 -80.001l-48 -124l123 -260l146 381c6.66699 17.333 10 33.666 10 48.999c0 18.667 -5.5 33.167 -16.5 43.5
s-26.5 15.5 -46.5 15.5c-2 0 -3 2 -3 6s1 6 3 6l44 -1c24 -1.33301 45.667 -2 65 -2c13.333 0 28.666 0.666992 45.999 2l43 1c1.33301 0 2 -2 2 -6z" />
    <glyph glyph-name="X" unicode="X" horiz-adv-x="649" 
d="M644 6c0 -4 -1.00195 -6.00098 -3.00195 -6.00098c-18.667 0 -33 0.333008 -43 1l-59 1l-81 -1c-12 -0.666992 -29 -1 -51 -1c-2 0 -3 2 -3 6s1 6 3 6c26 0 39 5.66699 39 17c0 6 -3 13.333 -9 22l-142 218l-100 -142c-22.667 -32.667 -34 -58.334 -34 -77.001
c0 -12 4.66699 -21.333 14 -28s23 -10 41 -10c1.33301 0 2 -2 2 -6s-0.666992 -6 -2 -6c-21.333 0 -37.666 0.333008 -48.999 1l-72 1l-46 -1c-8 -0.666992 -21.333 -1 -40 -1c-2 0 -3 2 -3 6s1 6 3 6c21.333 0 45.833 9.83301 73.5 29.5s56.167 49.834 85.5 90.501l115 156
l-161 247c-18 28 -35.333 48 -52 60s-35 18 -55 18c-2 0 -3 2 -3 6s1 6 3 6l41 -1c18.667 -1.33301 32.334 -2 41.001 -2c22.667 0 51.334 0.666992 86.001 2l55 1c1.33301 0 2 -2 2 -6s-0.666992 -6 -2 -6c-13.333 0 -23.333 -1.16699 -30 -3.5s-10 -6.83301 -10 -13.5
c0 -5.33301 3 -13 9 -23l137 -210l93 132c23.333 33.333 35 60 35 80c0 25.333 -18 38 -54 38c-1.33301 0 -2 2 -2 6s0.666992 6 2 6l49 -1c26.667 -1.33301 50.667 -2 72 -2c13.333 0 28.666 0.666992 45.999 2l40 1c2 0 3 -2 3 -6s-1 -6 -3 -6
c-22 0 -47 -10.167 -75 -30.5s-56.667 -51.166 -86 -92.499l-108 -146l170 -261c16.667 -25.333 34 -43.5 52 -54.5s39 -16.5 63 -16.5c2 0 3 -2 3 -6z" />
    <glyph glyph-name="Y" unicode="Y" horiz-adv-x="616" 
d="M623 619c0 -4 -0.668945 -6.00098 -2.00195 -6.00098c-22 0 -47 -11.5 -75 -34.5s-53 -52.5 -75 -88.5l-114 -185v-224c0 -20.667 1.83301 -35.667 5.5 -45s10.667 -15.666 21 -18.999s26.833 -5 49.5 -5c2 0 3 -2 3 -6s-1 -6 -3 -6c-22 -0 -39 0.333008 -51 1l-73 1
l-72 -1c-13.333 -0.666992 -31 -1 -53 -1c-1.33301 0 -2 2 -2 6s0.666992 6 2 6c22.667 0 39.167 1.66699 49.5 5s17.5 9.83301 21.5 19.5s6 24.5 6 44.5v206l-152 232c-22.667 35.333 -42.167 59.833 -58.5 73.5s-32.166 20.5 -47.499 20.5c-2 0 -3 2 -3 6s1 6 3 6l33 -1
c14.667 -1.33301 25.334 -2 32.001 -2c22.667 0 54.667 0.666992 96 2l62 1c1.33301 0 2 -2 2 -6s-0.666992 -6 -2 -6c-27.333 0 -41 -9.33301 -41 -28c0 -9.33301 4 -20 12 -32l145 -223l102 167c16.667 27.333 25 51.333 25 72c0 29.333 -18.333 44 -55 44
c-1.33301 0 -2 2 -2 6s0.666992 6 2 6l52 -1c28 -1.33301 53.667 -2 77 -2c11.333 0 25 0.666992 41 2l37 1c1.33301 0 2 -2 2 -6z" />
    <glyph glyph-name="Z" unicode="Z" horiz-adv-x="602" 
d="M424 600c2 3.33301 2.82812 5.5 2.49512 6.5s-2.83301 1.5 -7.5 1.5c-89.333 0 -154.666 -2.5 -195.999 -7.5s-73.333 -16 -96 -33s-42.667 -44.833 -60 -83.5c0 -0.666992 -1.33301 -1 -4 -1c-6 0 -8.66699 1.33301 -8 4l40 168c0 0.666992 1.33301 1 4 1
c6.66699 0 9.33398 -1 8.00098 -3c-0.666992 -2 -1 -4.66699 -1 -8c0 -8 3.83301 -13.333 11.5 -16s23.167 -4 46.5 -4h365c3.33301 0 5.83301 -1.66699 7.5 -5s1.5 -6 -0.5 -8l-360 -585c-2.66699 -3.33301 -3.66699 -5.5 -3 -6.5s3 -1.5 7 -1.5h220
c38.667 0 72.334 12 101.001 36s46.334 54.667 53.001 92c0.666992 2 2.66699 3 6 3s5 -1 5 -3l-14 -139c0 -2 -0.833008 -4.16699 -2.5 -6.5s-3.83398 -3.5 -6.50098 -3.5c-99.333 1.33301 -258.666 2 -477.999 2c-3.33301 0 -5.66602 1.5 -6.99902 4.5s-1 5.83301 1 8.5z
" />
    <glyph glyph-name="bracketleft" unicode="[" horiz-adv-x="274" 
d="M74 715c0 4.66699 0.5 7.5 1.5 8.5s3.5 1.5 7.5 1.5h153c2 0 3 -2 3 -6s-1 -6 -3 -6c-22.667 0 -39.334 -2 -50.001 -6s-17.834 -10.833 -21.501 -20.5s-5.5 -24.5 -5.5 -44.5v-676c0 -20 1.83301 -34.833 5.5 -44.5s10.834 -16.5 21.501 -20.5s27.334 -6 50.001 -6
c2 0 3 -2 3 -6s-1 -6 -3 -6h-153c-4 0 -6.5 0.666992 -7.5 2s-1.5 4.33301 -1.5 9v821z" />
    <glyph glyph-name="backslash" unicode="\" horiz-adv-x="348" 
d="M26 717c-1.33301 3.33301 5.33301 7 20 11s22.667 4.66699 24 2l252 -882c0.666992 -2.66699 -6.33301 -6 -21 -10s-22.667 -4.66699 -24 -2z" />
    <glyph glyph-name="bracketright" unicode="]" horiz-adv-x="274" 
d="M198.5 -115c-1 -1.33301 -3.5 -2 -7.5 -2h-153c-2 0 -3 2 -3 6s1 6 3 6c22.667 0 39.334 2 50.001 6s17.834 10.833 21.501 20.5s5.5 24.5 5.5 44.5v676c0 20 -1.83301 34.833 -5.5 44.5s-10.834 16.5 -21.501 20.5s-27.334 6 -50.001 6c-2 0 -3 2 -3 6s1 6 3 6h153
c4 0 6.5 -0.5 7.5 -1.5s1.5 -3.83301 1.5 -8.5v-821c0 -4.66699 -0.5 -7.66699 -1.5 -9z" />
    <glyph glyph-name="asciicircum" unicode="^" horiz-adv-x="392" 
d="M333 218c0 -2 -1.16992 -3.49902 -3.50293 -4.49902s-4.16602 -0.833008 -5.49902 0.5l-128 147l-128 -147c-0.666992 -0.666992 -1.66699 -1 -3 -1c-2 0 -3.83301 0.666992 -5.5 2s-2.16699 2.66602 -1.5 3.99902l127 249c0.666992 3.33301 4.33398 5 11.001 5
s10.334 -1.66699 11.001 -5l126 -249v-1z" />
    <glyph glyph-name="underscore" unicode="_" horiz-adv-x="398" 
d="M30.5 -71c-1 5.33301 -1.5 11.001 -1.5 17.001c0 5.33301 0.333008 10.166 1 14.499s1.66699 6.5 3 6.5h331c1.33301 0 2.5 -2.5 3.5 -7.5s1.5 -10.167 1.5 -15.5c0 -6 -0.5 -11.333 -1.5 -16s-2.16699 -7 -3.5 -7h-330c-1.33301 0 -2.5 2.66699 -3.5 8z" />
    <glyph glyph-name="grave" unicode="`" horiz-adv-x="274" 
d="M24 517c-6.66699 1.33301 -3.16992 5.33301 10.4971 12s29.334 12.667 47.001 18s28.167 6.66602 31.5 3.99902c20 -14.667 35 -26 45 -34c40.667 -30.667 71.667 -53 93 -67c1.33301 -0.666992 2 -2 2 -4s-0.666992 -3.66699 -2 -5
s-2.66602 -1.66602 -3.99902 -0.999023c-75.333 33.333 -149.666 59 -222.999 77z" />
    <glyph glyph-name="a" unicode="a" horiz-adv-x="557" 
d="M561 6c0 -4 -1.33594 -6 -4.00293 -6c-13.333 0 -34 0.666992 -62 2s-48 2 -60 2c-10.667 0 -27.334 -0.666992 -50.001 -2c-21.333 -1.33301 -36.333 -2 -45 -2c-2.66699 0 -4 2 -4 6s1.33301 6 4 6c16 0 27.5 2 34.5 6s10.5 10.333 10.5 19c0 9.33301 -5 25 -15 47
l-63 135h-124l-40 -96c-11.333 -28 -17 -49.333 -17 -64c0 -16.667 5.83301 -28.667 17.5 -36s29.5 -11 53.5 -11c3.33301 0 5 -2 5 -6s-1.66699 -6 -5 -6c-9.33301 0 -22.666 0.666992 -39.999 2c-18.667 1.33301 -36 2 -52 2c-16.667 0 -36.334 -0.666992 -59.001 -2
c-20 -1.33301 -36.333 -2 -49 -2c-3.33301 0 -5 2 -5 6s1.66699 6 5 6c20.667 0 37.334 3 50.001 9s24.334 17.167 35.001 33.5s23.334 42.166 38.001 77.499l148 351c1.33301 2.66699 3.33301 4 6 4s4.33398 -1.33301 5.00098 -4l161 -346
c16.667 -36 30.5 -62.667 41.5 -80s22 -29.166 33 -35.499s25.167 -9.5 42.5 -9.5c2.66699 0 4 -2 4 -6zM191.997 242h104l-55 118z" />
    <glyph glyph-name="b" unicode="b" horiz-adv-x="516" 
d="M435.5 225.5c27 -19.667 40.4971 -47.501 40.4971 -83.501c0 -28.667 -8.16699 -54 -24.5 -76s-39.166 -39.167 -68.499 -51.5s-62.666 -18.5 -99.999 -18.5c-18 0 -39 1 -63 3c-9.33301 0.666992 -20.666 1.33398 -33.999 2.00098s-28 1 -44 1l-61 -1
c-12 -0.666992 -28.333 -1 -49 -1c-1.33301 0 -2 2 -2 6s0.666992 6 2 6c20.667 0 35.667 1.66699 45 5s15.666 9.83301 18.999 19.5s5 24.5 5 44.5v306c0 20 -1.66699 34.667 -5 44s-9.66602 15.833 -18.999 19.5s-24 5.5 -44 5.5c-1.33301 0 -2 2 -2 6s0.666992 6 2 6
l48 -1c26.667 -1.33301 47 -2 61 -2c19.333 0 39.666 1 60.999 3c7.33301 0.666992 17.833 1.33398 31.5 2.00098s25.5 1 35.5 1c48.667 0 86.834 -8.5 114.501 -25.5s41.5 -41.167 41.5 -72.5c0 -25.333 -9.33301 -47.833 -28 -67.5s-45 -35.167 -79 -46.5
c50.667 -2.66699 89.5 -13.834 116.5 -33.501zM208.997 452.499c-8 -3.66699 -13.667 -10.667 -17 -21s-5 -25.833 -5 -46.5v-125c11.333 -0.666992 26.666 -1 45.999 -1c25.333 0 45.333 2.33301 60 7s25.834 13.5 33.501 26.5s11.5 32.167 11.5 57.5c0 72 -31 108 -93 108
c-16 0 -28 -1.83301 -36 -5.5zM383.997 117.999c0 82 -52.668 122.999 -158.001 122.999c-17.333 0 -30.333 -0.333008 -39 -1v-159c0 -25.333 5.33301 -43.166 16 -53.499s31.334 -15.5 62.001 -15.5c79.333 0 119 35.333 119 106z" />
    <glyph glyph-name="c" unicode="c" horiz-adv-x="533" 
d="M389.5 472c29 -5.33301 52.833 -12.333 71.5 -21c4.66699 -2 7.66699 -4.16699 9 -6.5s2 -5.83301 2 -10.5l7 -103c0 -2 -1.83301 -3.33301 -5.5 -4s-5.83398 0.333008 -6.50098 3c-20.667 44 -45.167 76.667 -73.5 98s-61.5 32 -99.5 32
c-49.333 0 -88.166 -19.333 -116.499 -58s-42.5 -89 -42.5 -151c0 -41.333 6.5 -80.666 19.5 -117.999s33.333 -67.666 61 -90.999s61.834 -35 102.501 -35c36.667 0 67.5 10.667 92.5 32s47.167 55 66.5 101c0.666992 2.66699 2.66699 3.66699 6 3s5 -2 5 -4l-10 -106
c-0.666992 -5.33301 -1.66699 -9 -3 -11s-5 -4.33301 -11 -7c-51.333 -18 -104.666 -27 -159.999 -27c-63.333 0 -115.333 12.667 -156 38s-70.167 57 -88.5 95s-27.5 76.333 -27.5 115c0 45.333 12.167 86.666 36.5 123.999s57.666 66.666 99.999 87.999
s89.166 32 140.499 32c24.667 0 51.5 -2.66699 80.5 -8z" />
    <glyph glyph-name="d" unicode="d" horiz-adv-x="567" 
d="M214 -1c-8 0.666992 -18.001 1.33398 -30.001 2.00098s-25.667 1 -41 1l-62 -1c-12 -0.666992 -28.333 -1 -49 -1c-1.33301 0 -2 2 -2 6s0.666992 6 2 6c20.667 0 35.667 1.66699 45 5s15.666 9.83301 18.999 19.5s5 24.5 5 44.5v306c0 20 -1.66699 34.667 -5 44
s-9.66602 15.833 -18.999 19.5s-24 5.5 -44 5.5c-1.33301 0 -2 2 -2 6s0.666992 6 2 6l48 -1c26.667 -1.33301 47.334 -2 62.001 -2c20 0 40.667 1 62 3c26.667 1.33301 46.667 2 60 2c56 0 104.333 -10 145 -30s71.667 -47.667 93 -83s32 -75.333 32 -120
c0 -46 -11 -87.333 -33 -124s-52.5 -65.334 -91.5 -86.001s-83.5 -31 -133.5 -31c-18.667 0 -39.667 1 -63 3zM389.999 69.5c30 36.333 45.001 88.5 45.001 156.5c0 65.333 -14.833 119.333 -44.5 162s-74.167 64 -133.5 64c-25.333 0 -43.333 -4.83301 -54 -14.5
s-16 -27.167 -16 -52.5v-293c0 -28 5.16699 -47.833 15.5 -59.5s31.166 -17.5 62.499 -17.5c53.333 0 95 18.167 125 54.5z" />
    <glyph glyph-name="e" unicode="e" horiz-adv-x="464" 
d="M421 136c3.33301 0 5.00098 -1 5.00098 -3c-4.66699 -48 -7 -87.333 -7 -118c0 -5.33301 -1 -9.16602 -3 -11.499s-6 -3.5 -12 -3.5h-372c-1.33301 0 -2 2 -2 6s0.666992 6 2 6c20 0 34.667 1.66699 44 5s15.666 9.83301 18.999 19.5s5 24.5 5 44.5v306
c0 20 -1.66699 34.667 -5 44s-9.66602 15.833 -18.999 19.5s-24 5.5 -44 5.5c-1.33301 0 -2 2 -2 6s0.666992 6 2 6h354c6.66699 0 10 -2.66699 10 -8l1 -62c0.666992 -12.667 1 -28.667 1 -48c0 -2 -1.83301 -3 -5.5 -3s-5.83398 1 -6.50098 3c-8.66699 30 -25 55 -49 75
s-49.667 30 -77 30h-14c-17.333 0 -30.166 -1.83301 -38.499 -5.5s-14 -10.167 -17 -19.5s-4.5 -24 -4.5 -44v-136c55.333 1.33301 95 3.5 119 6.5s37.667 4.5 41 4.5c2 0 3.5 -2.33301 4.5 -7s1.5 -9.66699 1.5 -15c0 -6 -0.5 -11.667 -1.5 -17s-2.5 -8 -4.5 -8
c-3.33301 0 -17 1.83301 -41 5.5s-63.667 6.16699 -119 7.5v-142c0 -19.333 1.5 -33.833 4.5 -43.5s8.66699 -16.334 17 -20.001s21.166 -5.5 38.499 -5.5h23c30 0 58.667 11 86 33s47.333 50 60 84c0.666992 2 2.66699 3 6 3z" />
    <glyph glyph-name="f" unicode="f" horiz-adv-x="423" 
d="M397 398c0.666992 -12.667 0.999023 -28.668 0.999023 -48.001c0 -2 -1.83301 -3 -5.5 -3s-5.83398 1 -6.50098 3c-22 70 -64 105 -126 105h-14c-17.333 0 -30.166 -1.83301 -38.499 -5.5s-14 -10.167 -17 -19.5s-4.5 -24 -4.5 -44v-147
c52.667 0.666992 90.834 2.33398 114.501 5.00098s37.5 4 41.5 4c2 0 3.5 -2.33301 4.5 -7s1.5 -9.66699 1.5 -15c0 -6 -0.5 -11.667 -1.5 -17s-2.5 -8 -4.5 -8c-3.33301 0 -16.833 2 -40.5 6s-62.167 6.66699 -115.5 8v-130c0 -20.667 2.16699 -36 6.5 -46s13 -17 26 -21
s32.833 -6 59.5 -6c2 0 3 -2 3 -6s-1 -6 -3 -6c-24.667 -0 -44 0.333008 -58 1l-77 1l-62 -1c-12 -0.666992 -28.333 -1 -49 -1c-1.33301 0 -2 2 -2 6s0.666992 6 2 6c20 0 34.667 1.66699 44 5s15.666 9.83301 18.999 19.5s5 24.5 5 44.5v306c0 20 -1.66699 34.667 -5 44
s-9.66602 15.833 -18.999 19.5s-24 5.5 -44 5.5c-1.33301 0 -2 2 -2 6s0.666992 6 2 6h354c6.66699 0 10 -2.66699 10 -8z" />
    <glyph glyph-name="g" unicode="g" horiz-adv-x="553" 
d="M153.5 21.5c-39.667 22.333 -69.833 51.834 -90.5 88.501s-31 75.334 -31 116.001c0 52 11.833 97.167 35.5 135.5s57.167 67.666 100.5 87.999s94.333 30.5 153 30.5c28.667 0 56.167 -2.66699 82.5 -8s48.5 -13 66.5 -23c4 -2.66699 6.66699 -5.33398 8 -8.00098
s2.33301 -7.33398 3 -14.001l6 -94c0 -2 -1.83301 -3.16699 -5.5 -3.5s-5.83398 0.5 -6.50098 2.5c-42 85.333 -101.333 128 -178 128c-51.333 0 -91.833 -19.333 -121.5 -58s-44.5 -93 -44.5 -163c0 -45.333 7.5 -85.5 22.5 -120.5s36.5 -62.167 64.5 -81.5s61 -29 99 -29
c29.333 0 50.666 3 63.999 9s22.333 17 27 33s7 41.333 7 76c0 17.333 -1.5 29.5 -4.5 36.5s-9.33301 11.667 -19 14s-26.5 3.5 -50.5 3.5c-4 0 -6 2.66699 -6 8c0 2 0.5 3.83301 1.5 5.5s2.16699 2.5 3.5 2.5c34.667 -2.66699 69.667 -4 105 -4c16 0 42.667 0.666992 80 2
c1.33301 0 2.5 -0.833008 3.5 -2.5s1.5 -3.16699 1.5 -4.5c0 -4.66699 -1.66699 -7 -5 -7c-11.333 0.666992 -19.166 -0.333008 -23.499 -3s-7.16602 -8.16699 -8.49902 -16.5s-2 -23.166 -2 -44.499c0 -30 0.833008 -51 2.5 -63s2.5 -20.333 2.5 -25
c0 -4 -0.666992 -6.5 -2 -7.5s-4.66602 -2.5 -9.99902 -4.5c-44.667 -18.667 -108.334 -28 -191.001 -28c-53.333 0 -99.833 11.167 -139.5 33.5z" />
    <glyph glyph-name="h" unicode="h" horiz-adv-x="629" 
d="M599 6c0 -4 -1.00293 -6 -3.00293 -6c-20 -0 -35.667 0.333008 -47 1l-64 1l-64 -1c-11.333 -0.666992 -27 -1 -47 -1c-2 0 -3 2 -3 6s1 6 3 6c20 0 34.5 1.66699 43.5 5s15.167 9.83301 18.5 19.5s5 24.5 5 44.5v143h-254v-143c0 -20 1.66699 -34.833 5 -44.5
s9.66602 -16.167 18.999 -19.5s24 -5 44 -5c1.33301 0 2 -2 2 -6s-0.666992 -6 -2 -6c-20 -0 -35.667 0.333008 -47 1l-65 1l-62 -1c-12 -0.666992 -28.333 -1 -49 -1c-1.33301 0 -2 2 -2 6s0.666992 6 2 6c20 0 34.833 1.66699 44.5 5s16.167 9.83301 19.5 19.5
s5 24.5 5 44.5v306c0 20 -1.66699 34.667 -5 44s-9.83301 15.833 -19.5 19.5s-24.167 5.5 -43.5 5.5c-1.33301 0 -2 2 -2 6s0.666992 6 2 6l48 -1c26.667 -1.33301 47.334 -2 62.001 -2c17.333 0 39.333 0.666992 66 2l46 1c1.33301 0 2 -2 2 -6s-0.666992 -6 -2 -6
c-19.333 0 -33.833 -2 -43.5 -6s-16.167 -10.833 -19.5 -20.5s-5 -24.5 -5 -44.5v-137h254v137c0 20 -1.66699 34.833 -5 44.5s-9.66602 16.5 -18.999 20.5s-23.666 6 -42.999 6c-2 0 -3 2 -3 6s1 6 3 6l46 -1c26.667 -1.33301 48.334 -2 65.001 -2
c16 0 37.333 0.666992 64 2l47 1c2 0 3 -2 3 -6s-1 -6 -3 -6c-20 0 -34.667 -1.83301 -44 -5.5s-15.666 -10.167 -18.999 -19.5s-5 -24 -5 -44v-306c0 -20 1.66699 -34.833 5 -44.5s9.66602 -16.167 18.999 -19.5s24 -5 44 -5c2 0 3 -2 3 -6z" />
    <glyph glyph-name="i" unicode="i" horiz-adv-x="300" 
d="M199 36.5c3.33301 -9.66699 9.66797 -16.167 19.001 -19.5s24 -5 44 -5c1.33301 0 2 -2 2 -6s-0.666992 -6 -2 -6c-20 -0 -35.667 0.333008 -47 1l-66 1l-62 -1c-12 -0.666992 -28.333 -1 -49 -1c-1.33301 0 -2 2 -2 6s0.666992 6 2 6c20.667 0 35.667 1.66699 45 5
s15.666 9.83301 18.999 19.5s5 24.5 5 44.5v306c0 20 -1.66699 34.667 -5 44s-9.83301 15.833 -19.5 19.5s-24.5 5.5 -44.5 5.5c-1.33301 0 -2 2 -2 6s0.666992 6 2 6l49 -1c25.333 -1.33301 46 -2 62 -2c18 0 40.333 0.666992 67 2l46 1c1.33301 0 2 -2 2 -6
s-0.666992 -6 -2 -6c-19.333 0 -33.833 -2 -43.5 -6s-16.167 -10.833 -19.5 -20.5s-5 -24.5 -5 -44.5v-304c0 -20 1.66699 -34.833 5 -44.5z" />
    <glyph glyph-name="j" unicode="j" horiz-adv-x="271" 
d="M100 387c0 20 -1.49902 34.668 -4.49902 44.001s-8.66699 15.833 -17 19.5s-21.166 5.5 -38.499 5.5c-1.33301 0 -2 2 -2 6s0.666992 6 2 6l44 -1c25.333 -1.33301 45 -2 59 -2c17.333 0 37.333 0.666992 60 2l40 1c2 0 3 -2 3 -6s-1 -6 -3 -6
c-16.667 0 -28.834 -2 -36.501 -6s-13 -10.833 -16 -20.5s-4.5 -24.5 -4.5 -44.5v-316c0 -50 -4.5 -90.333 -13.5 -121s-24.5 -56 -46.5 -76s-53.667 -37.667 -95 -53c-1.33301 -0.666992 -2.83301 0.666016 -4.5 3.99902s-1.83398 5.33301 -0.500977 6
c23.333 14 41.5 37.667 54.5 71s19.5 74 19.5 122v365z" />
    <glyph glyph-name="k" unicode="k" horiz-adv-x="549" 
d="M559 6c0 -4 -1 -5.99805 -3 -5.99805h-124c-20 0 -32.167 1.16699 -36.5 3.5s-16 17.666 -35 45.999s-42.167 60.166 -69.5 95.499l-73 96l-31 -31v-129c0 -20 1.66699 -34.833 5 -44.5s9.66602 -16.167 18.999 -19.5s24 -5 44 -5c1.33301 0 2 -2 2 -6
s-0.666992 -6 -2 -6c-20 -0 -35.667 0.333008 -47 1l-65 1l-62 -1c-12 -0.666992 -28.333 -1 -49 -1c-1.33301 0 -2 2 -2 6s0.666992 6 2 6c20 0 34.833 1.66699 44.5 5s16.167 9.83301 19.5 19.5s5 24.5 5 44.5v306c0 20 -1.66699 34.667 -5 44s-9.83301 15.833 -19.5 19.5
s-24.167 5.5 -43.5 5.5c-1.33301 0 -2 2 -2 6s0.666992 6 2 6l48 -1c26.667 -1.33301 47.334 -2 62.001 -2c17.333 0 39.333 0.666992 66 2l46 1c1.33301 0 2 -2 2 -6s-0.666992 -6 -2 -6c-19.333 0 -33.833 -2 -43.5 -6s-16.167 -10.833 -19.5 -20.5s-5 -24.5 -5 -44.5
v-141l134 134c27.333 27.333 41 47.333 41 60c0 12 -12 18 -36 18c-2 0 -3 2 -3 6s1 6 3 6l39 -1c24 -1.33301 47.333 -2 70 -2c28.667 0 53.667 0.666992 75 2c6 0.666992 13.333 1 22 1c2 0 3 -2 3 -6s-1 -6 -3 -6c-24.667 0 -55.5 -8.5 -92.5 -25.5
s-69.167 -39.167 -96.5 -66.5l-64 -63l80 -103c44 -58 76.667 -99.333 98 -124s38.833 -41.167 52.5 -49.5s29.167 -12.5 46.5 -12.5c2 0 3 -2 3 -6z" />
    <glyph glyph-name="l" unicode="l" horiz-adv-x="466" 
d="M183 85c0 -18 1.83008 -31.668 5.49707 -41.001s10.334 -15.833 20.001 -19.5s24.167 -5.5 43.5 -5.5h30c36.667 0 69 12 97 36s48 56.333 60 97c0.666992 1.33301 2.83398 1.83301 6.50098 1.5s5.5 -1.16602 5.5 -2.49902c-4.66699 -34.667 -7 -80 -7 -136
c0 -5.33301 -1.16699 -9.16602 -3.5 -11.499s-6.16602 -3.5 -11.499 -3.5h-397c-1.33301 0 -2 2 -2 6s0.666992 6 2 6c18.667 0 32.334 1.66699 41.001 5s14.5 9.83301 17.5 19.5s4.5 24.5 4.5 44.5v306c0 20 -1.5 34.667 -4.5 44s-8.83301 15.833 -17.5 19.5
s-22.334 5.5 -41.001 5.5c-1.33301 0 -2 2 -2 6s0.666992 6 2 6l48 -1c26.667 -1.33301 47.334 -2 62.001 -2c17.333 0 39.333 0.666992 66 2l45 1c2 0 3 -2 3 -6s-1 -6 -3 -6c-20.667 0 -35.834 -1.83301 -45.501 -5.5s-16.167 -10.334 -19.5 -20.001s-5 -24.5 -5 -44.5
v-301z" />
    <glyph glyph-name="m" unicode="m" horiz-adv-x="686" 
d="M658 6c0 -4 -0.670898 -6.00098 -2.00391 -6.00098c-18 0 -32.333 0.333008 -43 1l-60 1l-68 -1c-11.333 -0.666992 -27 -1 -47 -1c-1.33301 0 -2 2 -2 6s0.666992 6 2 6c20.667 0 36 1.83301 46 5.5s16.833 10.167 20.5 19.5s4.83398 24 3.50098 44l-16 318l-161 -392
c-1.33301 -2.66699 -3.66602 -4 -6.99902 -4c-4 0 -6.66699 1.33301 -8 4l-190 371l-6 -257c-0.666992 -38 4.83301 -65.667 16.5 -83s30.167 -26 55.5 -26c2 0 3 -2 3 -6s-1 -6 -3 -6c-15.333 0 -27.333 0.333008 -36 1l-46 1l-46 -1c-9.33301 -0.666992 -22.333 -1 -39 -1
c-1.33301 0 -2 2 -2 6s0.666992 6 2 6c26 0 44.833 8.66699 56.5 26s17.834 45 18.501 83l6 290c-20.667 30 -46.334 45 -77.001 45c-1.33301 0 -2 2 -2 6s0.666992 6 2 6l74 -1l57 1c9.33301 0 17 -3.16699 23 -9.5s14.333 -20.5 25 -42.5l151 -294l131 321
c2.66699 7.33301 7 13.333 13 18s12 7 18 7l59 -1l73 1c1.33301 0 2 -2 2 -6s-0.666992 -6 -2 -6c-26.667 0 -45.667 -4.5 -57 -13.5s-16 -26.833 -14 -53.5l16 -308c1.33301 -20.667 3.33301 -35.667 6 -45s7.83398 -15.666 15.501 -18.999s19.834 -5 36.501 -5
c1.33301 0 2 -2 2 -6z" />
    <glyph glyph-name="n" unicode="n" horiz-adv-x="566" 
d="M552 462c0 -4 -1.00195 -5.99902 -3.00195 -5.99902c-26 0 -45 -8.83301 -57 -26.5s-18 -45.5 -18 -83.5v-357c0 -1.33301 -1.66699 -2.33301 -5 -3s-5.66602 -0.333984 -6.99902 0.999023l-345 399l-2 2v-267c0 -38 5.83301 -65.667 17.5 -83s30.167 -26 55.5 -26
c1.33301 0 2 -2 2 -6s-0.666992 -6 -2 -6c-16 -0 -28.333 0.333008 -37 1l-45 1l-46 -1c-9.33301 -0.666992 -22.333 -1 -39 -1c-1.33301 0 -2 2 -2 6s0.666992 6 2 6c26 0 44.833 8.66699 56.5 26s17.5 45 17.5 83v289c-16.667 16.667 -31.167 28.5 -43.5 35.5
s-24.5 10.5 -36.5 10.5c-1.33301 0 -2 2 -2 6s0.666992 6 2 6l56 -1c6 0 13.5 0.166992 22.5 0.5s27.833 0.5 56.5 0.5c5.33301 0 10 -1.66699 14 -5s9.33301 -10 16 -20l21 -27l253 -292v222c0 38.667 -5.66699 66.667 -17 84s-29.666 26 -54.999 26c-2 0 -3 2 -3 6
s1 6 3 6l37 -1c18.667 -1.33301 33.667 -2 45 -2s27 0.666992 47 2l38 1c2 0 3 -2 3 -6z" />
    <glyph glyph-name="o" unicode="o" horiz-adv-x="570" 
d="M148.5 21.5c-37 22.333 -65.666 52.1709 -85.999 89.5039s-30.5 78 -30.5 122c0 51.333 13.167 95.666 39.5 132.999s60.166 65.666 101.499 84.999s83.666 29 126.999 29c47.333 0 89 -11.5 125 -34.5s63.833 -52.833 83.5 -89.5s29.5 -75.334 29.5 -116.001
c0 -44.667 -11.667 -86.334 -35 -125.001s-55.166 -69.5 -95.499 -92.5s-84.5 -34.5 -132.5 -34.5c-47.333 0 -89.5 11.167 -126.5 33.5zM400.501 65.0049c25.667 36.667 38.5 87.333 38.5 152c0 44 -7 84.167 -21 120.5s-34 65.166 -60 86.499s-56.667 32 -92 32
c-43.333 0 -76.666 -16.667 -99.999 -50s-35 -81.333 -35 -144c0 -47.333 7.16699 -90.166 21.5 -128.499s34.166 -68.5 59.499 -90.5s54.333 -33 87 -33c42 0 75.833 18.333 101.5 55z" />
    <glyph glyph-name="p" unicode="p" horiz-adv-x="468" 
d="M193 39c4.66699 -10 13.333 -17.001 26 -21.001s32.334 -6 59.001 -6c2 0 3 -2 3 -6s-1 -6 -3 -6c-24.667 0 -44 0.333008 -58 1l-77 1l-62 -1c-12 -0.666992 -28.333 -1 -49 -1c-1.33301 0 -2 2 -2 6s0.666992 6 2 6c19.333 0 33.666 1.83301 42.999 5.5
s15.833 10.167 19.5 19.5s5.5 24 5.5 44v306c0 19.333 -1.83301 33.833 -5.5 43.5s-10.167 16.334 -19.5 20.001s-23.666 5.5 -42.999 5.5c-1.33301 0 -2 2 -2 6s0.666992 6 2 6l48 -1c26.667 -1.33301 47.334 -2 62.001 -2c18 0 37 1 57 3
c7.33301 0.666992 16.166 1.33398 26.499 2.00098s22.5 1 36.5 1c114.667 0 172 -38.333 172 -115c0 -33.333 -8.16699 -61.333 -24.5 -84s-37.333 -39.667 -63 -51s-52.834 -17 -81.501 -17c-14 0 -24 1 -30 3c-2 0 -3 2 -3 6c0 4.66699 2.33301 7 7 7
c8 -1.33301 14.333 -2 19 -2c24 0 43.167 9.66699 57.5 29s21.5 48.333 21.5 87c0 80 -32.667 120 -98 120c-19.333 0 -33 -4.33301 -41 -13s-12 -27.334 -12 -56.001v-300c0 -20.667 2.33301 -36 7 -46z" />
    <glyph glyph-name="q" unicode="q" horiz-adv-x="570" 
d="M606.5 -161c1 -3.33301 0.833984 -5.33008 -0.499023 -5.99707c-24 -8 -50.333 -12 -79 -12c-46 0 -91.167 14.333 -135.5 43s-82.5 70 -114.5 124h-2c-47.333 0 -89.5 11.167 -126.5 33.5s-65.667 52.166 -86 89.499s-30.5 78 -30.5 122
c0 51.333 13.167 95.666 39.5 132.999s60.166 65.666 101.499 84.999s83.666 29 126.999 29c47.333 0 89 -11.5 125 -34.5s63.833 -52.833 83.5 -89.5s29.5 -75.334 29.5 -116.001c0 -51.333 -15.333 -98.5 -46 -141.5s-70.667 -73.833 -120 -92.5
c22 -48 51.5 -87.667 88.5 -119s73.5 -47 109.5 -47c12.667 0 23.334 1 32.001 3c2 0.666992 3.5 -0.666016 4.5 -3.99902zM152.501 133.503c14.333 -38.333 34.166 -68.501 59.499 -90.501s54.333 -33 87 -33c42 0 75.833 18.333 101.5 55s38.5 87.334 38.5 152.001
c0 44 -7 84.167 -21 120.5s-34 65.166 -60 86.499s-56.667 32 -92 32c-43.333 0 -76.666 -16.667 -99.999 -50s-35 -81.333 -35 -144c0 -47.333 7.16699 -90.166 21.5 -128.499z" />
    <glyph glyph-name="r" unicode="r" horiz-adv-x="542" 
d="M561 6c0 -4 -0.999023 -5.99902 -2.99902 -5.99902h-148c-10.667 0 -29.834 20.167 -57.501 60.5s-59.834 95.166 -96.501 164.499c-14 -2 -28.333 -3 -43 -3c-10.667 0 -18.667 0.333008 -24 1v-142c0 -20 1.5 -34.833 4.5 -44.5s9 -16.167 18 -19.5s23.5 -5 43.5 -5
c1.33301 0 2 -2 2 -6s-0.666992 -6 -2 -6c-19.333 -0 -34.666 0.333008 -45.999 1l-66 1l-62 -1c-12 -0.666992 -28.333 -1 -49 -1c-1.33301 0 -2 2 -2 6s0.666992 6 2 6c20 0 34.667 1.66699 44 5s15.666 9.83301 18.999 19.5s5 24.5 5 44.5v306
c0 20 -1.66699 34.667 -5 44s-9.66602 15.833 -18.999 19.5s-23.666 5.5 -42.999 5.5c-1.33301 0 -2 2 -2 6s0.666992 6 2 6l49 -1c25.333 -1.33301 45.666 -2 60.999 -2c12.667 0 24.334 0.333008 35.001 1s20 1.33398 28 2.00098c22 2 42 3 60 3
c49.333 0 86.833 -8.33301 112.5 -25s38.5 -40.667 38.5 -72c0 -26 -8 -50.333 -24 -73s-38 -40.667 -66 -54c36 -60.667 67 -107.834 93 -141.501s49.667 -57.667 71 -72s43.666 -21.5 66.999 -21.5c2 0 3 -2 3 -6zM220.001 240.001c39.333 0 66.667 9 82 27
s23 44.667 23 80c0 70.667 -27.667 106 -83 106c-22 0 -36.333 -4.5 -43 -13.5s-10 -27.167 -10 -54.5v-144c6 -0.666992 16.333 -1 31 -1z" />
    <glyph glyph-name="s" unicode="s" horiz-adv-x="412" 
d="M163 325.5c19.333 -17 48.333 -35.1641 87 -54.4971c28.667 -15.333 51.5 -28.5 68.5 -39.5s31.5 -25.167 43.5 -42.5s18 -37.666 18 -60.999c0 -26 -7.5 -49.667 -22.5 -71s-35.833 -38.166 -62.5 -50.499s-57 -18.5 -91 -18.5c-28.667 0 -56 3.5 -82 10.5
s-45.333 15.5 -58 25.5c-5.33301 2.66699 -8.33301 9.66699 -9 21l-6 108v1c0 2.66699 1.66699 4.16699 5 4.5s5.66602 -0.833984 6.99902 -3.50098c18 -40 40.667 -74.333 68 -103s58 -43 92 -43c20.667 0 38.334 6.33301 53.001 19s22 31.667 22 57
c0 30.667 -10.167 55.5 -30.5 74.5s-50.166 38.833 -89.499 59.5c-26.667 14.667 -47.834 27.5 -63.501 38.5s-29 24.5 -40 40.5s-16.5 35 -16.5 57c0 38.667 16.167 69.167 48.5 91.5s71.5 33.5 117.5 33.5c20 0 40.5 -2.16699 61.5 -6.5s39.167 -9.83301 54.5 -16.5
c5.33301 -2.66699 9 -5.33398 11 -8.00098s3.33301 -6.33398 4 -11.001l2 -92c0 -2.66699 -1.66699 -4.33398 -5 -5.00098s-5.66602 0 -6.99902 2c-4 12.667 -12 28.167 -24 46.5s-27.833 34.666 -47.5 48.999s-41.834 21.5 -66.501 21.5c-23.333 0 -41 -6.33301 -53 -19
s-18 -29 -18 -49c0 -27.333 9.66699 -49.5 29 -66.5z" />
    <glyph glyph-name="t" unicode="t" horiz-adv-x="500" 
d="M36 332c-0.666992 -2 -2.66602 -3 -5.99902 -3s-5 1 -5 3c2.66699 20.667 5.5 47.834 8.5 81.501s4.5 59.167 4.5 76.5c0 3.33301 1.83301 5 5.5 5s5.5 -1.66699 5.5 -5c0 -8.66699 5 -14.167 15 -16.5s22.667 -3.5 38 -3.5c57.333 -1.33301 107.666 -2 150.999 -2l87 1
c11.333 0.666992 26.666 1 45.999 1c25.333 0 44.333 1.5 57 4.5s20.667 9.5 24 19.5c0.666992 2 2.83398 3 6.50098 3s5.5 -1 5.5 -3c0 -4 -0.666992 -14 -2 -30c-0.666992 -16.667 -1.66699 -37.5 -3 -62.5s-2.33301 -48.167 -3 -69.5c0 -2 -2 -3 -6 -3s-6 1 -6 3
c-3.33301 36 -15.166 64.667 -35.499 86s-45.5 32 -75.5 32c-20 0 -33.5 -4.33301 -40.5 -13s-10.5 -25.334 -10.5 -50.001v-306c0 -20 1.83301 -34.833 5.5 -44.5s10.834 -16.167 21.501 -19.5s27.667 -5 51 -5c2 0 3 -2 3 -6s-1 -6 -3 -6
c-21.333 -0 -38.333 0.333008 -51 1l-73 1l-70 -1c-12.667 -0.666992 -30.334 -1 -53.001 -1c-1.33301 0 -2 2 -2 6s0.666992 6 2 6c23.333 0 40.5 1.66699 51.5 5s18.333 9.83301 22 19.5s5.5 24.5 5.5 44.5v308c0 18 -1 31 -3 39s-6.33301 13.667 -13 17
s-17.334 5 -32.001 5c-59.333 0 -100.333 -39.333 -123 -118z" />
    <glyph glyph-name="u" unicode="u" horiz-adv-x="571" 
d="M447 433.5c-12.667 15 -34.001 22.5 -64.001 22.5c-2 0 -3 2 -3 6s1 6 3 6l41 -1c21.333 -1.33301 39 -2 53 -2c10.667 0 26 0.666992 46 2l40 1c1.33301 0 2 -2 2 -6s-0.666992 -6 -2 -6c-26.667 0 -45.667 -7.5 -57 -22.5s-17 -40.167 -17 -75.5v-174
c0 -62 -17.167 -110.333 -51.5 -145s-80.5 -52 -138.5 -52c-37.333 0 -71.666 7.5 -102.999 22.5s-56.333 36.5 -75 64.5s-28 61.333 -28 100v213c0 20 -1.66699 34.667 -5 44s-9.5 15.833 -18.5 19.5s-23.5 5.5 -43.5 5.5c-2 0 -3 2 -3 6s1 6 3 6l47 -1
c25.333 -1.33301 46 -2 62 -2c17.333 0 39.333 0.666992 66 2l46 1c1.33301 0 2 -2 2 -6s-0.666992 -6 -2 -6c-20 0 -34.667 -2 -44 -6s-15.833 -10.833 -19.5 -20.5s-5.5 -24.5 -5.5 -44.5v-185c0 -60 13.667 -104.167 41 -132.5s63 -42.5 107 -42.5
c43.333 0 77.5 13.5 102.5 40.5s37.5 65.833 37.5 116.5v176c0 35.333 -6.33301 60.5 -19 75.5z" />
    <glyph glyph-name="v" unicode="v" horiz-adv-x="510" 
d="M518 462c0 -4 -0.665039 -6 -1.99805 -6c-39.333 0 -69.666 -28 -90.999 -84l-144 -371c-0.666992 -2.66699 -4.33398 -4 -11.001 -4s-10.334 1.33301 -11.001 4l-184 384c-13.333 28 -25 46.833 -35 56.5s-23.667 14.5 -41 14.5c-2 0 -3 2 -3 6s1 6 3 6l42 -1
c22.667 -1.33301 43.667 -2 63 -2c17.333 0 38.666 0.666992 63.999 2l43 1c1.33301 0 2 -2 2 -6s-0.666992 -6 -2 -6c-34.667 0 -52 -10.333 -52 -31c0 -7.33301 2.66699 -17.333 8 -30l134 -281l99 264c5.33301 14 8 25.667 8 35c0 28.667 -21.333 43 -64 43
c-2 0 -3 2 -3 6s1 6 3 6l35 -1c21.333 -1.33301 41.333 -2 60 -2c10.667 0 24 0.666992 40 2l37 1c1.33301 0 2 -2 2 -6z" />
    <glyph glyph-name="w" unicode="w" horiz-adv-x="736" 
d="M743 462c0 -4 -0.664062 -6.00293 -1.99707 -6.00293c-22.667 0 -42.167 -7.66699 -58.5 -23s-32.166 -41.333 -47.499 -78l-138 -354c-0.666992 -2.66699 -4.33398 -4 -11.001 -4s-10.334 1.33301 -11.001 4l-103 215l-91 -215
c-0.666992 -2.66699 -4.33398 -4 -11.001 -4s-10.334 1.33301 -11.001 4l-184 384c-13.333 28 -25 46.833 -35 56.5s-23.667 14.5 -41 14.5c-2 0 -3 2 -3 6s1 6 3 6c10 0 24.333 -0.666992 43 -2l42 -1c21.333 0 42.666 0.666992 63.999 2c6.66699 0.666992 15 1 25 1
c1.33301 0 2 -2 2 -6s-0.666992 -6 -2 -6c-14.667 0 -22 -5.66699 -22 -17c0 -10 4.66699 -24.667 14 -44l140 -285l55 132l-69 143c-14 28.667 -24.833 47.667 -32.5 57s-17.5 14 -29.5 14c-1.33301 0 -2 2 -2 6s0.666992 6 2 6l30 -1c20 -1.33301 36 -2 48 -2
c10.667 0 24.667 0.666992 42 2l27 1c1.33301 0 2 -2 2 -6s-0.666992 -6 -2 -6c-6 0 -10.167 -0.666992 -12.5 -2s-3.5 -3.66602 -3.5 -6.99902c0 -6.66699 7 -24 21 -52l33 -68l19 51c8.66699 23.333 13 41.333 13 54c0 16 -7.33301 24 -22 24c-1.33301 0 -2 2 -2 6
s0.666992 6 2 6c6 0 14.833 -0.5 26.5 -1.5s22.834 -1.5 33.501 -1.5c11.333 0 23 0.666992 35 2l31 1c2 0 3 -2 3 -6s-1 -6 -3 -6c-25.333 0 -44.5 -5.66699 -57.5 -17s-26.833 -33.666 -41.5 -66.999l-26 -66l94 -193l91 244c8.66699 23.333 13 43.333 13 60
c0 12.667 -3 22.334 -9 29.001s-14.333 10 -25 10c-1.33301 0 -2 2 -2 6s0.666992 6 2 6l27 -1c14.667 -1.33301 27.667 -2 39 -2c12.667 0 27.667 0.666992 45 2l41 1c1.33301 0 2 -2 2 -6z" />
    <glyph glyph-name="x" unicode="x" horiz-adv-x="529" 
d="M525 6c0 -4 -0.668945 -6 -2.00195 -6l-105 2l-63 -1c-9.33301 -0.666992 -22 -1 -38 -1c-2 0 -3 2 -3 6s1 6 3 6c12.667 0 22 0.833008 28 2.5s9 4.83398 9 9.50098s-4.66699 13.667 -14 27l-97 146l-72 -104c-12.667 -18.667 -19 -34.667 -19 -48c0 -22 16 -33 48 -33
c1.33301 0 2 -2 2 -6s-0.666992 -6 -2 -6c-19.333 0 -34.333 0.333008 -45 1l-64 1l-39 -1c-7.33301 -0.666992 -19.333 -1 -36 -1c-1.33301 0 -2 2 -2 6s0.666992 6 2 6c18.667 0 38.834 6.83301 60.501 20.5s43.834 35.834 66.501 66.501l86 118l-112 168
c-16.667 25.333 -34 43.5 -52 54.5s-34.667 16.5 -50 16.5c-1.33301 0 -2 2 -2 6s0.666992 6 2 6l31 -1c14.667 -1.33301 25 -2 31 -2c19.333 0 48.333 0.666992 87 2l57 1c1.33301 0 2 -2 2 -6s-0.666992 -6 -2 -6c-13.333 0 -22.833 -0.833008 -28.5 -2.5
s-8.5 -4.83398 -8.5 -9.50098c0 -6 4.33301 -15.333 13 -28l89 -132l60 91c14 21.333 21 38.666 21 51.999c0 19.333 -13 29 -39 29c-2 0 -3 2 -3 6s1 6 3 6l40 -1c22.667 -1.33301 42.667 -2 60 -2c11.333 0 24.333 0.666992 39 2l35 1c1.33301 0 2 -2 2 -6
s-0.666992 -6 -2 -6c-44 0 -87 -29 -129 -87l-74 -104l122 -182c16.667 -25.333 34 -43.5 52 -54.5s34.667 -16.5 50 -16.5c1.33301 0 2 -2 2 -6z" />
    <glyph glyph-name="y" unicode="y" horiz-adv-x="493" 
d="M495 462c0 -4 -1.00195 -6.00195 -3.00195 -6.00195c-20.667 0 -40.667 -7.66699 -60 -23s-37.666 -37.666 -54.999 -66.999l-77 -136v-149c0 -20.667 1.83301 -35.667 5.5 -45s10.667 -15.666 21 -18.999s27.5 -5 51.5 -5c1.33301 0 2 -2 2 -6s-0.666992 -6 -2 -6
c-21.333 -0 -38.333 0.333008 -51 1l-73 1l-69 -1c-13.333 -0.666992 -31.333 -1 -54 -1c-2 0 -3 2 -3 6s1 6 3 6c22.667 0 39.5 1.66699 50.5 5s18.5 9.83301 22.5 19.5s6 24.5 6 44.5v133l-111 171c-16.667 25.333 -32.167 43.5 -46.5 54.5s-29.833 16.5 -46.5 16.5
c-1.33301 0 -2 2 -2 6s0.666992 6 2 6l37 -1l36 -2c19.333 0 49 0.666992 89 2l58 1c1.33301 0 2 -2 2 -6s-0.666992 -6 -2 -6c-31.333 0 -47 -8 -47 -24c0 -7.33301 3.66699 -16.666 11 -27.999l98 -153l64 116c10.667 19.333 16 35.666 16 48.999
c0 12.667 -4.16699 22.5 -12.5 29.5s-20.166 10.5 -35.499 10.5c-2 0 -3 2 -3 6s1 6 3 6l46 -1c24 -1.33301 47 -2 69 -2c8.66699 0 19 0.666992 31 2l26 1c2 0 3 -2 3 -6z" />
    <glyph glyph-name="z" unicode="z" horiz-adv-x="452" 
d="M301 446l2.99707 6c0 1.33301 -2.66699 2 -8 2c-50 0 -89.667 -3.33301 -119 -10s-53.166 -18.167 -71.499 -34.5s-35.5 -39.833 -51.5 -70.5c-1.33301 -1.33301 -2.66602 -2 -3.99902 -2c-2 0 -4 0.5 -6 1.5s-2.66699 2.16699 -2 3.5l39 156c0 1.33301 1.33301 2 4 2
c2 0 3.83301 -0.5 5.5 -1.5s2.16699 -1.83301 1.5 -2.5c-1.33301 -11.333 1.5 -18.833 8.5 -22.5s23.5 -5.5 49.5 -5.5h247c2.66699 0 4.83398 -1.5 6.50098 -4.5s1.83398 -5.83301 0.500977 -8.5l-259 -430c-1.33301 -4 -1.83301 -6.5 -1.5 -7.5s2.5 -1.5 6.5 -1.5h106
c38.667 0 69.834 10 93.501 30s43.167 52.667 58.5 98c1.33301 2 3.66602 3 6.99902 3s5 -1 5 -3l-12 -136c0 -2 -0.833008 -4.16699 -2.5 -6.5s-3.83398 -3.5 -6.50098 -3.5l-353 2c-2.66699 0 -4.66699 1.5 -6 4.5s-1.33301 5.83301 0 8.5z" />
    <glyph glyph-name="braceleft" unicode="{" horiz-adv-x="289" 
d="M29 304.5c0 4.33301 1 6.5 3 6.5c26 4 43.333 25.667 52 65s13 90.333 13 153c0 57.333 4.16699 99.5 12.5 126.5s22.833 45.333 43.5 55s53 14.5 97 14.5c2.66699 0 4 -2 4 -6s-1.33301 -6 -4 -6c-19.333 0 -34.333 -9.16699 -45 -27.5s-16.334 -44.5 -17.001 -78.5
c-1.33301 -81.333 -4.16602 -138.666 -8.49902 -171.999s-14 -59.5 -29 -78.5s-40.833 -36.167 -77.5 -51.5c36.667 -16 62.5 -33.833 77.5 -53.5s24.667 -46.167 29 -79.5s7.16602 -90.333 8.49902 -171c0.666992 -34 6.33398 -60.167 17.001 -78.5s25.667 -27.5 45 -27.5
c2.66699 0 4 -2 4 -6s-1.33301 -6 -4 -6c-44 0 -76.5 4.83301 -97.5 14.5s-35.5 28.167 -43.5 55.5s-12 69.666 -12 126.999c0 63.333 -4.33301 114.5 -13 153.5s-26 60.5 -52 64.5c-2 0 -3 2.16699 -3 6.5z" />
    <glyph glyph-name="bar" unicode="|" horiz-adv-x="168" 
d="M63 626c0 4.66699 7.66699 7 23 7c14.667 0 22 -2.33301 22 -7v-769c0 -4.66699 -7.33301 -7 -22 -7c-15.333 0 -23 2.33301 -23 7v769z" />
    <glyph glyph-name="braceright" unicode="}" horiz-adv-x="283" 
d="M199 233.5c-8.66699 -39 -13 -90.167 -13 -153.5c0 -57.333 -4 -99.666 -12 -126.999s-22.5 -45.833 -43.5 -55.5s-53.5 -14.5 -97.5 -14.5c-2.66699 0 -4 2 -4 6s1.33301 6 4 6c19.333 0 34.333 9.16699 45 27.5s16.334 44.5 17.001 78.5
c1.33301 80.667 4.16602 137.667 8.49902 171s14 59.833 29 79.5s40.833 37.5 77.5 53.5c-36.667 15.333 -62.5 32.5 -77.5 51.5s-24.667 45.167 -29 78.5s-7.16602 90.666 -8.49902 171.999c-0.666992 34 -6.33398 60.167 -17.001 78.5s-25.667 27.5 -45 27.5
c-2.66699 0 -4 2 -4 6s1.33301 6 4 6c44 0 76.333 -4.83301 97 -14.5s35.167 -28 43.5 -55s12.5 -69.167 12.5 -126.5c0 -62.667 4.33301 -113.667 13 -153s26 -61 52 -65c2 0 3 -2.16699 3 -6.5s-1 -6.5 -3 -6.5c-26 -4 -43.333 -25.5 -52 -64.5z" />
    <glyph glyph-name="asciitilde" unicode="~" horiz-adv-x="452" 
d="M366 260c10.667 6.66699 21.332 16.333 31.999 29h1c2 0 3.83301 -0.833008 5.5 -2.5s1.83398 -3.16699 0.500977 -4.5c-26.667 -38 -48.334 -63.333 -65.001 -76s-35.334 -19 -56.001 -19c-12.667 0 -24.5 1.5 -35.5 4.5s-24.5 7.5 -40.5 13.5
c-15.333 6 -29 10.5 -41 13.5s-24.333 4.5 -37 4.5c-16 0 -28.167 -2.33301 -36.5 -7s-16.166 -10.5 -23.499 -17.5l-15 -14.5h-1c-1.33301 0 -2.83301 1 -4.5 3s-2.16699 3.66699 -1.5 5c15.333 24.667 33.333 46.5 54 65.5s42.667 28.5 66 28.5
c9.33301 0 19.833 -1.66699 31.5 -5s23.5 -7 35.5 -11c36 -13.333 65 -20 87 -20c18.667 0 33.334 3.33301 44.001 10z" />
    <glyph glyph-name="uni00A0" unicode="&#xa0;" horiz-adv-x="234" 
 />
    <glyph glyph-name="exclamdown" unicode="&#xa1;" horiz-adv-x="258" 
d="M175 350c10 -10 15 -23.333 15 -40c0 -16 -5 -28.833 -15 -38.5s-23.333 -14.5 -40 -14.5c-17.333 0 -30.666 4.83301 -39.999 14.5s-14 22.5 -14 38.5c0 17.333 4.66699 30.833 14 40.5s22.666 14.5 39.999 14.5c16.667 0 30 -5 40 -15zM172.5 -271.5
c-13.667 -2.33301 -28.165 -3.5 -43.498 -3.5c-14.667 0 -29 1.16699 -43 3.5s-20.333 5.16602 -19 8.49902c13.333 54 23.5 112.833 30.5 176.5s13.5 140.834 19.5 231.501l1 20c0 1.33301 1.5 2.5 4.5 3.5s6.16699 1.5 9.5 1.5s6.33301 -0.5 9 -1.5s4 -2.16699 4 -3.5
c4.66699 -93.333 10.167 -173.833 16.5 -241.5s16.166 -129.834 29.499 -186.501c1.33301 -3.33301 -4.83398 -6.16602 -18.501 -8.49902z" />
    <glyph glyph-name="cent" unicode="&#xa2;" horiz-adv-x="533" 
d="M483 143c3.33301 -0.666992 5 -2 5 -4l-10 -106c-0.666992 -5.33301 -1.66699 -9 -3 -11s-5 -4.33301 -11 -7c-51.333 -18 -104.666 -27 -159.999 -27h-3v-90c0 -4.66699 -4.33301 -7 -13 -7c-9.33301 0 -14 2.33301 -14 7v91c-56.667 4.66699 -103 19.834 -139 45.501
s-62.167 56.5 -78.5 92.5s-24.5 72.333 -24.5 109c0 42 10.5 80.5 31.5 115.5s49.833 63.667 86.5 86s78 35.833 124 40.5v83c0 2.66699 1.33301 4.66699 4 6s6 2 10 2c3.33301 0 6.33301 -0.666992 9 -2s4 -3.33301 4 -6v-81h8c24.667 0 51.5 -2.66699 80.5 -8
s52.833 -12.333 71.5 -21c4.66699 -2 7.66699 -4.16699 9 -6.5s2 -5.83301 2 -10.5l7 -103c0 -2 -1.83301 -3.33301 -5.5 -4s-5.83398 0.333008 -6.50098 3c-20 42.667 -43.667 74.667 -71 96s-59 32.666 -95 33.999v-452c4 -0.666992 9.66699 -1 17 -1
c36.667 0 67.5 10.667 92.5 32s47.167 55 66.5 101c0.666992 2.66699 2.66699 3.66699 6 3zM170.5 98c23.667 -45.333 58.167 -74 103.5 -86v447c-43.333 -5.33301 -77.333 -26.833 -102 -64.5s-37 -85.5 -37 -143.5c0 -56.667 11.833 -107.667 35.5 -153z" />
    <glyph glyph-name="sterling" unicode="&#xa3;" horiz-adv-x="432" 
d="M374 128.5c4 -0.333008 6.00195 -1.16797 6.00195 -2.50098c-6 -34.667 -9 -71.667 -9 -111c0 -5.33301 -1.16699 -9.16602 -3.5 -11.499s-6.16602 -3.5 -11.499 -3.5h-337c-2 -0 -3 1.83301 -3 5.5s1 5.83398 3 6.50098c34 8 57.167 19.833 69.5 35.5
s18.5 35.167 18.5 58.5c0 38.667 -6 75.334 -18 110.001h-43c-2 0 -3.66699 1.5 -5 4.5s-2 6.16699 -2 9.5s0.666992 6.33301 2 9s3 4 5 4h34c-5.33301 16.667 -9.5 31.5 -12.5 44.5s-4.5 26.833 -4.5 41.5c0 51.333 17.5 89.333 52.5 114s78.833 37 131.5 37
c31.333 0 61 -4.66699 89 -14c10 -4 15.333 -10.333 16 -19l7 -103c0 -2.66699 -1.66699 -4 -5 -4c-2.66699 0 -5 1.33301 -7 4c-16.667 38 -33.834 67.167 -51.501 87.5s-40.167 30.5 -67.5 30.5s-47.166 -9.5 -59.499 -28.5s-18.5 -42.5 -18.5 -70.5
c0 -17.333 1.66699 -33.833 5 -49.5s7 -30.167 11 -43.5l8 -27h100c4.66699 0 7 -4.33301 7 -13c0 -9.33301 -2.33301 -14 -7 -14h-92c6 -26.667 9 -49.334 9 -68.001c0 -24.667 -4.16699 -44.834 -12.5 -60.501s-19.833 -29.5 -34.5 -41.5h107c29.333 0 51.166 2 65.499 6
s25.166 11.5 32.499 22.5s13.666 28.5 18.999 52.5c0 1.33301 2 1.83301 6 1.5z" />
    <glyph glyph-name="currency" unicode="&#xa4;" horiz-adv-x="414" 
d="M331 33l-48.999 55.002c-26.667 -15.333 -55.334 -23 -86.001 -23c-26.667 0 -50 6.33301 -70 19l-45 -51l-29 29l44 46c-11.333 12.667 -20 27.167 -26 43.5s-9 33.166 -9 50.499c0 36 12 65.333 36 88l-50 50l34 31l51 -55c24.667 12.667 51 19 79 19
s52.667 -6.66699 74 -20l51 53l28 -28l-49 -50c22.667 -24.667 34 -54.334 34 -89.001c0 -33.333 -11 -62 -33 -86l49 -49zM262.501 111.502c11.667 16.333 17.5 39.166 17.5 68.499c0 36 -8.33301 67.167 -25 93.5s-39 39.5 -67 39.5c-18.667 0 -33.5 -7.66699 -44.5 -23
s-16.5 -37.666 -16.5 -66.999c0 -35.333 7.66699 -66.833 23 -94.5s37 -41.5 65 -41.5c20 0 35.833 8.16699 47.5 24.5z" />
    <glyph glyph-name="yen" unicode="&#xa5;" horiz-adv-x="492" 
d="M491 462c0 -4 -1.00098 -5.99805 -3.00098 -5.99805c-20.667 0 -40.5 -7.66699 -59.5 -23s-36.833 -37.666 -53.5 -66.999l-78 -136v-17h95c4.66699 0 7 -4 7 -12s-2.33301 -12 -7 -12h-283c-2 0 -3.66699 1.16699 -5 3.5s-2 5.16602 -2 8.49902
s0.666992 6.16602 2 8.49902s3 3.5 5 3.5h98v1l-111 171c-16.667 25.333 -32.167 43.5 -46.5 54.5s-29.833 16.5 -46.5 16.5c-2 0 -3 2 -3 6s1 6 3 6l37 -1l36 -2c19.333 0 49 0.666992 89 2l58 1c1.33301 0 2 -2 2 -6s-0.666992 -6 -2 -6c-31.333 0 -47 -7.66699 -47 -23
c0 -8 3.66699 -17.667 11 -29l98 -151l64 114c10.667 19.333 16 35.666 16 48.999c0 12.667 -4.16699 22.5 -12.5 29.5s-20.166 10.5 -35.499 10.5c-2 0 -3 2 -3 6s1 6 3 6l46 -1c24 -1.33301 47 -2 69 -2c8.66699 0 19 0.666992 31 2l25 1c2 0 3 -2 3 -6zM398.999 134.002
c0 -8.66699 -2.33301 -13 -7 -13h-95v-40c0 -20.667 1.83301 -35.667 5.5 -45s10.667 -15.666 21 -18.999s27.5 -5 51.5 -5c1.33301 0 2 -2 2 -6s-0.666992 -6 -2 -6c-22 0 -39 0.333008 -51 1l-73 1l-69 -1c-13.333 -0.666992 -31.333 -1 -54 -1c-2 0 -3 2 -3 6s1 6 3 6
c22.667 0 39.5 1.66699 50.5 5s18.5 9.83301 22.5 19.5s6 24.5 6 44.5v40h-98c-2 0 -3.66699 1.33301 -5 4s-2 5.66699 -2 9s0.666992 6.16602 2 8.49902s3 3.5 5 3.5h283c4.66699 0 7 -4 7 -12z" />
    <glyph glyph-name="brokenbar" unicode="&#xa6;" horiz-adv-x="168" 
d="M63 626c0 4.66699 7.66699 7 23 7c14.667 0 22 -2.33301 22 -7v-318c0 -4.66699 -7.33301 -7 -22 -7c-15.333 0 -23 2.33301 -23 7v318zM63 164c0 4.66699 7.66699 7 23 7c14.667 0 22 -2.33301 22 -7v-307c0 -4.66699 -7.33301 -7 -22 -7c-15.333 0 -23 2.33301 -23 7
v307z" />
    <glyph glyph-name="section" unicode="&#xa7;" horiz-adv-x="472" 
d="M385 -22c0 -42.667 -16 -75.167 -48 -97.5s-70.333 -33.5 -115 -33.5c-34 0 -63 6 -87 18c-7.33301 4.66699 -11 10.334 -11 17.001l-8 111c0 1.33301 1.83301 2 5.5 2s5.83398 -0.666992 6.50098 -2c10 -26.667 26.5 -53.834 49.5 -81.501s49.167 -41.5 78.5 -41.5
c16.667 0 30.167 5.66699 40.5 17s15.5 28.666 15.5 51.999c0 22 -4.83301 41.333 -14.5 58s-21.667 31 -36 43s-33.833 26 -58.5 42c-26.667 18 -48.334 33.833 -65.001 47.5s-30.667 31 -42 52s-17 45.833 -17 74.5c0 23.333 5.16699 44.833 15.5 64.5
s29.5 41.5 57.5 65.5c-26.667 26.667 -40 56.667 -40 90c0 42 16.167 74.333 48.5 97s70.833 34 115.5 34c34 0 62.667 -6.33301 86 -19c7.33301 -3.33301 11 -8.66602 11 -15.999l8 -111c0 -2 -1.83301 -3 -5.5 -3s-5.83398 1 -6.50098 3
c-10 26.667 -26.5 53.834 -49.5 81.501s-49.167 41.5 -78.5 41.5c-16.667 0 -30.167 -5.66699 -40.5 -17s-15.5 -28.666 -15.5 -51.999c0 -22 4.83301 -41.5 14.5 -58.5s21.834 -31.5 36.501 -43.5s34 -26 58 -42c27.333 -18 49 -33.833 65 -47.5s29.667 -30.834 41 -51.501
s17 -45.334 17 -74.001c0 -23.333 -5.16699 -44.833 -15.5 -64.5s-29.5 -41.5 -57.5 -65.5c27.333 -27.333 41 -57.333 41 -90zM163 222c12 -22 26.667 -40.168 44 -54.501s40 -30.5 68 -48.5c29.333 -20 48 -33.333 56 -40c13.333 19.333 20 44.333 20 75
c0 30 -6 55.833 -18 77.5s-26.5 39.5 -43.5 53.5s-39.5 30.333 -67.5 49c-32 22.667 -51 36.334 -57 41.001c-13.333 -19.333 -20 -44.333 -20 -75c0 -30 6 -56 18 -78z" />
    <glyph glyph-name="dieresis" unicode="&#xa8;" horiz-adv-x="322" 
d="M37.5 482c-9 8.66699 -13.5 21 -13.5 37c0 15.333 4.5 27.166 13.5 35.499s21.5 12.5 37.5 12.5c15.333 0 27.166 -4.16699 35.499 -12.5s12.5 -20.166 12.5 -35.499c0 -16 -4.16699 -28.333 -12.5 -37s-20.166 -13 -35.499 -13c-16 0 -28.5 4.33301 -37.5 13zM212.5 482
c-9 8.66699 -13.5 20.998 -13.5 36.998c0 14.667 4.5 26.334 13.5 35.001s21.167 13 36.5 13s27.333 -4.16699 36 -12.5s13 -20.166 13 -35.499c0 -16 -4.33301 -28.333 -13 -37s-20.667 -13 -36 -13s-27.5 4.33301 -36.5 13z" />
    <glyph glyph-name="copyright" unicode="&#xa9;" horiz-adv-x="704" 
d="M210 -41.5c-47.333 23 -85.5029 56.6631 -114.503 100.996s-43.5 96.833 -43.5 157.5c0 60 16 113.833 48 161.5s74.167 84.834 126.5 111.501s107.5 40 165.5 40c51.333 0 96.666 -10.667 135.999 -32s69.666 -49.666 90.999 -84.999s32 -73.666 32 -114.999
c0 -40 -11.167 -77.667 -33.5 -113s-53.166 -63.666 -92.499 -84.999s-83.333 -32 -132 -32c-42 0 -76.667 7.5 -104 22.5s-47.166 34.333 -59.499 58s-18.5 48.834 -18.5 75.501c0 34.667 8.5 64.667 25.5 90s38.833 44.833 65.5 58.5s54.667 20.5 84 20.5
c26.667 0 50.5 -5 71.5 -15s31.5 -24 31.5 -42c0 -12 -3.16699 -21.333 -9.5 -28s-15.833 -10 -28.5 -10c-9.33301 0 -17.166 2.83301 -23.499 8.5s-12.166 13.834 -17.499 24.501c-8 13.333 -15.667 23.333 -23 30s-18 10 -32 10c-24 0 -40.5 -9.33301 -49.5 -28
s-13.5 -47.667 -13.5 -87c0 -46.667 12 -85.167 36 -115.5s61 -45.5 111 -45.5c26.667 0 51.834 6.83301 75.501 20.5s42.667 33.5 57 59.5s21.5 56.667 21.5 92c0 44 -10.167 84.333 -30.5 121s-48.333 65.667 -84 87s-75.5 32 -119.5 32
c-50.667 0 -94.167 -11.833 -130.5 -35.5s-64 -55.667 -83 -96s-28.5 -84.833 -28.5 -133.5c0 -58.667 12.333 -109.334 37 -152.001s58.167 -75.334 100.5 -98.001s89.5 -34 141.5 -34c35.333 0 67.5 3.5 96.5 10.5s59.5 19.833 91.5 38.5h2c2 0 3.66699 -1 5 -3
s1 -3.33301 -1 -4c-37.333 -28.667 -74.333 -48.5 -111 -59.5s-75.667 -16.5 -117 -16.5c-54 0 -104.667 11.5 -152 34.5z" />
    <glyph glyph-name="ordfeminine" unicode="&#xaa;" horiz-adv-x="285" 
d="M274 407c2.66699 0 4.50293 -1.16504 5.50293 -3.49805s0.833008 -4.16602 -0.5 -5.49902l-68 -32c-4 -1.33301 -6.66699 -2 -8 -2c-6.66699 0 -12.834 3.5 -18.501 10.5s-9.16699 16.5 -10.5 28.5l-34 -18c-14 -8 -25.5 -13.333 -34.5 -16s-18.5 -4 -28.5 -4
c-14.667 0 -26.334 3.66699 -35.001 11s-13 16.666 -13 27.999s3.5 21 10.5 29s19.5 15 37.5 21l96 34v50c0 30.667 -3.33301 50.667 -10 60s-16.334 14 -29.001 14c-10 0 -18.5 -4.83301 -25.5 -14.5s-11.167 -21.834 -12.5 -36.501c-2 -10 -5.33301 -18 -10 -24
s-12.667 -9 -24 -9c-10 0 -18 2.66699 -24 8s-9 12.666 -9 21.999c0 11.333 7.5 22.5 22.5 33.5s33.167 20.167 54.5 27.5s39.666 11 54.999 11c20 0 36.167 -6 48.5 -18s18.5 -30 18.5 -54v-117c0 -15.333 1.33301 -26.333 4 -33s7.33398 -10 14.001 -10
c3.33301 0 12.333 3 27 9h1zM173.003 415.002v4v58l-52 -21c-10 -4 -17.167 -8.5 -21.5 -13.5s-6.5 -11.5 -6.5 -19.5c0 -8.66699 2.5 -15.667 7.5 -21s11.5 -8 19.5 -8c7.33301 0 15 1.66699 23 5zM265.503 312.002c1 -3.33301 1.5 -7 1.5 -11s-0.5 -7.83301 -1.5 -11.5
s-2.16699 -5.5 -3.5 -5.5h-224c-1.33301 0 -2.5 1.83301 -3.5 5.5s-1.5 7.83398 -1.5 12.501c0 3.33301 0.5 6.66602 1.5 9.99902s1.83301 5 2.5 5h225c1.33301 0 2.5 -1.66699 3.5 -5z" />
    <glyph glyph-name="guillemotleft" unicode="&#xab;" horiz-adv-x="469" 
d="M55 225c-2.66699 2.66699 -3.99902 6.33203 -3.99902 10.999s1.33301 8.33398 4 11.001l184 149c0 0.666992 0.666992 1 2 1s2.66602 -0.833008 3.99902 -2.5s1.66602 -2.83398 0.999023 -3.50098l-102 -155l102 -155
c0.666992 -1.33301 -0.166016 -3.16602 -2.49902 -5.49902s-3.83301 -2.5 -4.5 -0.5zM219.001 224.998c-2.66699 4 -3.99902 7.66699 -3.99902 11s1.33301 7 4 11l185 149c0 0.666992 0.666992 1 2 1s2.66602 -0.833008 3.99902 -2.5s1.66602 -2.83398 0.999023 -3.50098
l-103 -155l103 -155c0.666992 -1.33301 -0.166016 -3.16602 -2.49902 -5.49902s-3.83301 -2.5 -4.5 -0.5z" />
    <glyph glyph-name="logicalnot" unicode="&#xac;" horiz-adv-x="395" 
d="M364 112c0 -1.33301 -2.50098 -2.5 -7.50098 -3.5s-10.5 -1.5 -16.5 -1.5c-5.33301 0 -10.166 0.333008 -14.499 1s-6.5 1.66699 -6.5 3v150h-285c-1.33301 0 -2.5 2.5 -3.5 7.5s-1.5 10.5 -1.5 16.5c0 4.66699 0.5 9.16699 1.5 13.5s1.83301 6.5 2.5 6.5h331v-193z" />
    <glyph glyph-name="uni00AD" unicode="&#xad;" horiz-adv-x="323" 
d="M28.5 166.5c-1 6.33301 -1.5 12.833 -1.5 19.5c0 14.667 1 22 3 22l261 47c1.33301 0.666992 2.5 -1.66602 3.5 -6.99902s1.5 -11 1.5 -17s-0.5 -11.667 -1.5 -17s-2.16699 -8.33301 -3.5 -9l-259 -47c-1.33301 -0.666992 -2.5 2.16602 -3.5 8.49902z" />
    <glyph glyph-name="registered" unicode="&#xae;" horiz-adv-x="723" 
d="M533 484c43.333 -24 77.0029 -56.832 101.003 -98.499s36 -88.167 36 -139.5c0 -57.333 -14.333 -110 -43 -158s-67.334 -85.833 -116.001 -113.5s-102.334 -41.5 -161.001 -41.5c-50 0 -98 11.667 -144 35s-83.167 56.5 -111.5 99.5s-42.5 92.833 -42.5 149.5
c0 59.333 15.167 112.166 45.5 158.499s70.833 82 121.5 107s105 37.5 163 37.5c57.333 0 107.666 -12 150.999 -36zM553.003 30.001c39.333 46.667 59.001 107.999 59.001 183.999c0 56.667 -11.333 106.334 -34 149.001s-54.167 75.5 -94.5 98.5s-86.5 34.5 -138.5 34.5
c-52.667 0 -96.667 -11.167 -132 -33.5s-61.666 -52 -78.999 -89s-26 -78.167 -26 -123.5c0 -57.333 12.667 -108 38 -152s59.166 -78 101.499 -102s88.166 -36 137.499 -36c72.667 0 128.667 23.333 168 70zM549.004 72c0 -2.66699 -0.667969 -4 -2.00098 -4h-92
c-6 0 -16.5 13.333 -31.5 40s-35.5 67 -61.5 121c-14 -2 -28.333 -3 -43 -3v-102c0 -14 1 -24 3 -30s6 -10 12 -12s16 -3 30 -3c1.33301 0 2 -1.83301 2 -5.5s-0.666992 -5.5 -2 -5.5l-73 1l-71 -1c-0.666992 0 -1 1.83301 -1 5.5s0.333008 5.5 1 5.5c12 0 20.5 1 25.5 3
s8.33301 6 10 12s2.5 16 2.5 30v215c0 18.667 -2.16699 30.667 -6.5 36s-14.833 8 -31.5 8c-0.666992 0 -1 2 -1 6s0.333008 6 1 6l71 -1c8 0 22.667 0.666992 44 2c18.667 1.33301 31.334 2 38.001 2c33.333 0 58 -5.5 74 -16.5s24 -28.167 24 -51.5
c0 -38 -18.667 -66.333 -56 -85c26.667 -54.667 49.167 -94 67.5 -118s39.833 -41 64.5 -51c1.33301 0 2 -1.33301 2 -4zM341.003 241c24 0 41.001 5.16797 51.001 15.501s15 27.833 15 52.5c0 50.667 -16.667 76 -50 76c-10.667 0 -18.5 -0.833008 -23.5 -2.5
s-8.66699 -5.83398 -11 -12.501s-3.5 -17.667 -3.5 -33v-95c5.33301 -0.666992 12.666 -1 21.999 -1z" />
    <glyph glyph-name="macron" unicode="&#xaf;" horiz-adv-x="345" 
d="M41 482.5c-1.33301 3.66699 -2 7.5 -2 11.5c0 4.66699 0.666992 8.66699 2 12s3.33301 5 6 5h251c2.66699 0 4.83398 -1.66699 6.50098 -5s2.5 -7.33301 2.5 -12s-0.833008 -8.66699 -2.5 -12s-3.83398 -5 -6.50098 -5h-251c-2.66699 0 -4.66699 1.83301 -6 5.5z" />
    <glyph glyph-name="degree" unicode="&#xb0;" horiz-adv-x="332" 
d="M67.5 410c-25.667 24.667 -38.5 55.668 -38.5 93.001c0 35.333 12.833 65.333 38.5 90s58.834 37 99.501 37s73.5 -12.333 98.5 -37s37.5 -55.334 37.5 -92.001s-12.5 -67.167 -37.5 -91.5s-57.833 -36.5 -98.5 -36.5s-73.834 12.333 -99.501 37zM222 412.501
c7.33301 17.667 11.001 44.834 11.001 81.501c0 41.333 -5.83301 72.166 -17.5 92.499s-29.834 30.5 -54.501 30.5c-23.333 0 -39.333 -9.5 -48 -28.5s-13 -46.5 -13 -82.5c0 -38 5.5 -67.5 16.5 -88.5s30.167 -31.5 57.5 -31.5c24.667 0 40.667 8.83301 48 26.5z" />
    <glyph glyph-name="plusminus" unicode="&#xb1;" horiz-adv-x="398" 
d="M30.5 260.5c-1 5 -1.50098 10.501 -1.50098 16.501c0 5.33301 0.333008 10.166 1 14.499s1.66699 6.5 3 6.5h143v143c0 2.66699 7.66699 4 23 4s23 -1.33301 23 -4v-143h142c1.33301 0 2.5 -2.33301 3.5 -7s1.5 -9.66699 1.5 -15c0 -6 -0.5 -11.333 -1.5 -16
s-2.16699 -7 -3.5 -7h-142v-142c0 -1.33301 -2.66699 -2.5 -8 -3.5s-11 -1.5 -17 -1.5c-5.33301 0 -10.166 0.333008 -14.499 1s-6.5 1.66699 -6.5 3v143h-142c-1.33301 0 -2.5 2.5 -3.5 7.5zM367.499 58.501c1 -4.33301 1.5 -8.83398 1.5 -13.501
c0 -5.33301 -0.5 -10.166 -1.5 -14.499s-2.16699 -6.5 -3.5 -6.5h-330c-1.33301 0 -2.5 2.33301 -3.5 7s-1.5 9.66699 -1.5 15c0 4.66699 0.333008 9 1 13s1.66699 6 3 6h331c1.33301 0 2.5 -2.16699 3.5 -6.5z" />
    <glyph glyph-name="uni00B2" unicode="&#xb2;" horiz-adv-x="252" 
d="M51 476.5c11.333 19 25.6699 39.166 43.0029 60.499c18 22.667 31 41.334 39 56.001s12 32.334 12 53.001c0 38.667 -14.667 58 -44 58c-14.667 0 -27.667 -5 -39 -15s-19.333 -22.667 -24 -38c0 -1.33301 -1.33301 -2 -4 -2c-2 0 -3.83301 0.5 -5.5 1.5
s-2.16699 2.16699 -1.5 3.5c7.33301 23.333 18.666 41.833 33.999 55.5s37 20.5 65 20.5s49.167 -6.83301 63.5 -20.5s21.5 -31.167 21.5 -52.5s-6.66699 -40.5 -20 -57.5s-33 -36.833 -59 -59.5c-19.333 -16 -34.5 -30 -45.5 -42s-18.833 -24.667 -23.5 -38
c0 -2.66699 1 -4 3 -4c42.667 0 73.667 1 93 3s32.666 6 39.999 12s11.666 16 12.999 30c0 1.33301 1.83301 2 5.5 2s5.5 -0.666992 5.5 -2l-2 -93c0 -1.33301 -0.333008 -2.5 -1 -3.5s-1.66699 -1.5 -3 -1.5h-190c-1.33301 0 -2.33301 0.666992 -3 2
s-0.666992 2.66602 0 3.99902c6.66699 26 15.667 48.5 27 67.5z" />
    <glyph glyph-name="uni00B3" unicode="&#xb3;" horiz-adv-x="251" 
d="M204.5 547.5c13.667 -13 20.501 -29.834 20.501 -50.501c0 -26 -9.66699 -49.333 -29 -70s-46 -31 -80 -31c-48.667 0 -80 23 -94 69c-0.666992 2.66699 1 4.5 5 5.5s6.33301 0.166992 7 -2.5c6 -14 14.833 -25.5 26.5 -34.5s25.5 -13.5 41.5 -13.5s29.333 5.5 40 16.5
s16 29.167 16 54.5c0 23.333 -6.33301 41.333 -19 54s-31.334 19 -56.001 19c-2.66699 0 -3.83398 2 -3.50098 6s1.5 6 3.5 6c20 0 35.333 6.5 46 19.5s16 29.5 16 49.5c0 18.667 -4 32.667 -12 42s-19 14 -33 14c-14.667 0 -27.667 -5.16699 -39 -15.5
s-18.333 -22.166 -21 -35.499c-1.33301 -1.33301 -3 -2 -5 -2s-3.83301 0.5 -5.5 1.5s-2.16699 2.16699 -1.5 3.5c6 23.333 17 41.833 33 55.5s37.667 20.5 65 20.5s48.5 -6.83301 63.5 -20.5s22.5 -31.167 22.5 -52.5c0 -18 -5.83301 -34.5 -17.5 -49.5
s-26.5 -25.833 -44.5 -32.5c22.667 -4.66699 40.834 -13.5 54.501 -26.5z" />
    <glyph glyph-name="acute" unicode="&#xb4;" horiz-adv-x="275" 
d="M26 439c-2.66699 0 -4.33398 1.49902 -5.00098 4.49902s0 5.16699 2 6.5c21.333 12.667 50.666 33.667 87.999 63l50 38c3.33301 2.66699 14 1.33398 32 -3.99902s33.833 -11.333 47.5 -18s16.834 -10.667 9.50098 -12c-41.333 -10 -79.166 -21.167 -113.499 -33.5
s-70.5 -26.833 -108.5 -43.5z" />
    <glyph glyph-name="paragraph" unicode="&#xb6;" horiz-adv-x="575" 
d="M185 30c-40.667 20 -72.667 47.8311 -96 83.498s-35 75.834 -35 120.501c0 43.333 11.667 82.833 35 118.5s55.333 63.834 96 84.501s86.334 31 137.001 31l43 -1c24 -1.33301 40.667 -2 50 -2c16 0 38 0.666992 66 2l49 1c1.33301 0 2 -2 2 -6s-0.666992 -6 -2 -6
c-28.667 0 -50.667 -7 -66 -21s-23 -34 -23 -60v-283c0 -25.333 7.66699 -45 23 -59s37.333 -21 66 -21c1.33301 0 2 -2 2 -6s-0.666992 -6 -2 -6c-20.667 -0 -37 0.333008 -49 1l-66 1l-50 -1c-10.667 -0.666992 -25 -1 -43 -1c-50.667 0 -96.334 10 -137.001 30z
M362.5 30.498c3.66699 -3.66699 7.83398 -5.49902 12.501 -5.49902c5.33301 0 9.83301 1.83301 13.5 5.5s5.5 9.16699 5.5 16.5v374c0 7.33301 -1.83301 12.833 -5.5 16.5s-7.83398 5.5 -12.501 5.5c-5.33301 0 -9.83301 -1.83301 -13.5 -5.5s-5.5 -9.16699 -5.5 -16.5v-375
c0 -6.66699 1.83301 -11.834 5.5 -15.501z" />
    <glyph glyph-name="periodcentered" unicode="&#xb7;" horiz-adv-x="204" 
d="M63 196c-10 10 -15 23.333 -15 40c0 16 5 28.833 15 38.5s23.333 14.5 40 14.5c17.333 0 30.666 -4.83301 39.999 -14.5s14 -22.5 14 -38.5c0 -17.333 -4.66699 -30.833 -14 -40.5s-22.666 -14.5 -39.999 -14.5c-16.667 0 -30 5 -40 15z" />
    <glyph glyph-name="cedilla" unicode="&#xb8;" horiz-adv-x="232" 
d="M111 -42c0 -11.333 3.16602 -20.8291 9.49902 -28.4961s16.833 -15.834 31.5 -24.501c17.333 -10.667 30.833 -21.834 40.5 -33.501s14.5 -26.5 14.5 -44.5c0 -26.667 -9.66699 -50.334 -29 -71.001s-48.333 -31 -87 -31c-47.333 0 -71 15 -71 45
c0 9.33301 3.5 17.666 10.5 24.999s15.5 11 25.5 11c11.333 0 19.333 -2.5 24 -7.5s9 -12.167 13 -21.5c4 -10 8.16699 -17.333 12.5 -22s11.833 -7 22.5 -7c17.333 0 26 9.33301 26 28c0 17.333 -6.16699 33 -18.5 47s-34.166 29.667 -65.499 47
c-3.33301 1.33301 -5.83301 3 -7.5 5s-2.5 4.33301 -2.5 7c0 4 1.33301 9.66699 4 17c9.33301 22 19 47.333 29 76c2.66699 6 5.66699 14 9 24l16 -1c-4.66699 -18.667 -7 -32 -7 -40z" />
    <glyph glyph-name="uni00B9" unicode="&#xb9;" horiz-adv-x="262" 
d="M38 409c0 4 0.667969 6 2.00098 6c21.333 0 36.333 1.5 45 4.5s14.334 9 17.001 18s4 24.5 4 46.5v118c0 29.333 -1.16699 49 -3.5 59s-8.16602 15 -17.499 15c-8.66699 0 -25.334 -5.66699 -50.001 -17h-1c-2.66699 0 -4.66699 1.66699 -6 5s-1 5.33301 1 6l129 58
c0.666992 0.666992 1.66699 1 3 1c2 0 3.66699 -0.833008 5 -2.5s2 -3.5 2 -5.5v-237c0 -22.667 1.16699 -38.5 3.5 -47.5s7.66602 -14.833 15.999 -17.5s22.5 -4 42.5 -4c1.33301 0 2 -2 2 -6s-0.666992 -6 -2 -6l-39 1c-22.667 1.33301 -40.334 2 -53.001 2
c-14 0 -33 -0.666992 -57 -2l-41 -1c-1.33301 0 -2 2 -2 6z" />
    <glyph glyph-name="ordmasculine" unicode="&#xba;" horiz-adv-x="322" 
d="M64 399.5c-23.333 27 -35 59.833 -35 98.5c0 28.667 7 52.834 21 72.501s31.667 34.5 53 44.5s43 15 65 15c25.333 0 47.5 -6.33301 66.5 -19s33.667 -29.334 44 -50.001s15.5 -42.667 15.5 -66c0 -24.667 -6.33301 -47.5 -19 -68.5s-29.5 -37.5 -50.5 -49.5
s-43.833 -18 -68.5 -18c-38 0 -68.667 13.5 -92 40.5zM215 401.5c10.667 18.333 15.999 43.5 15.999 75.5c0 38.667 -7.66699 71.167 -23 97.5s-35 39.5 -59 39.5c-18 0 -32 -8.5 -42 -25.5s-15 -40.833 -15 -71.5c0 -38.667 7.5 -72.167 22.5 -100.5
s33.833 -42.5 56.5 -42.5c18.667 0 33.334 9.16699 44.001 27.5zM36.499 289.5c-1 3.66699 -1.5 7.83398 -1.5 12.501c0 3.33301 0.5 6.66602 1.5 9.99902s1.83301 5 2.5 5h243c1.33301 0 2.5 -1.66699 3.5 -5s1.5 -7 1.5 -11s-0.5 -7.83301 -1.5 -11.5
s-2.16699 -5.5 -3.5 -5.5h-242c-1.33301 0 -2.5 1.83301 -3.5 5.5z" />
    <glyph glyph-name="guillemotright" unicode="&#xbb;" horiz-adv-x="469" 
d="M249 247c3.33301 -3.33301 4.99902 -7 4.99902 -11s-1.66699 -7.66699 -5 -11l-184 -150c0 -0.666992 -0.666992 -1 -2 -1s-2.66602 0.833008 -3.99902 2.5s-1.66602 3.16699 -0.999023 4.5l102 154l-102 156c-0.666992 1.33301 0.166016 3 2.49902 5s3.83301 2 4.5 0z
M413.999 247c2.66699 -2.66699 3.99902 -6.33203 3.99902 -10.999s-1.33301 -8.33398 -4 -11.001l-185 -150c0 -0.666992 -0.666992 -1 -2 -1s-2.66602 0.833008 -3.99902 2.5s-1.66602 3.16699 -0.999023 4.5l102 154l-102 156c-0.666992 1.33301 0.166016 3 2.49902 5
s3.83301 2 4.5 0z" />
    <glyph glyph-name="onequarter" unicode="&#xbc;" horiz-adv-x="605" 
d="M232 314.5c0 -3.66699 -0.666992 -5.5 -2 -5.5c-16.667 0 -29.667 0.333008 -39 1l-53 1l-57 -1c-10 -0.666992 -23.667 -1 -41 -1c-1.33301 0 -2 1.83301 -2 5.5s0.666992 5.5 2 5.5c21.333 0 36.333 1.5 45 4.5s14.334 9 17.001 18s4 24.5 4 46.5v119
c0 29.333 -1.16699 49 -3.5 59s-8.16602 15 -17.499 15c-8.66699 0 -25.334 -5.66699 -50.001 -17h-2c-2 0 -3.66699 1.5 -5 4.5s-1 4.83301 1 5.5l129 59h2c2 0 3.83301 -0.833008 5.5 -2.5s2.5 -3.16699 2.5 -4.5v-238c0 -22.667 1.16699 -38.5 3.5 -47.5
s7.66602 -14.833 15.999 -17.5s22.5 -4 42.5 -4c1.33301 0 2 -1.83301 2 -5.5zM453.5 626c9.66699 -4 14.168 -7 13.501 -9l-280 -618c-0.666992 -2 -5.83398 -0.5 -15.501 4.5s-14.167 8.16699 -13.5 9.5l279 616c1.33301 2 6.83301 1 16.5 -3zM541.001 90
l0.00195312 -48.998c0 -9.33301 0.666992 -15.833 2 -19.5s4.66602 -6.33398 9.99902 -8.00098s14.666 -2.5 27.999 -2.5c0.666992 -1.33301 1 -3.33301 1 -6s-0.333008 -4.66699 -1 -6l-67 1l-84 -1c-0.666992 0 -1 2 -1 6s0.333008 6 1 6c16 0 27.333 0.666992 34 2
s11.167 4 13.5 8s3.5 10.667 3.5 20v51c-46.667 1.33301 -88.667 2 -126 2c-2 0 -3.66699 1.16699 -5 3.5s-1 4.16602 1 5.49902l163 218c2 2.66699 6.33301 4 13 4c3.33301 0 6.5 -0.5 9.5 -1.5s4.5 -2.16699 4.5 -3.5v-207l40 2c2 0 3 -4.33301 3 -13
c0 -9.33301 -1 -14 -3 -14zM481.003 110.002v136l-94 -134c-2 -2 -1.33301 -3 2 -3z" />
    <glyph glyph-name="onehalf" unicode="&#xbd;" horiz-adv-x="611" 
d="M38 314.5c0 3.66699 0.666992 5.5 2 5.5c21.333 0 36.333 1.5 45 4.5s14.334 9 17.001 18s4 24.5 4 46.5v119c0 29.333 -1.16699 49 -3.5 59s-8.16602 15 -17.499 15c-8.66699 0 -25.334 -5.66699 -50.001 -17h-2c-2 0 -3.66699 1.5 -5 4.5s-1 4.83301 1 5.5l129 59h2
c2 0 3.83301 -0.833008 5.5 -2.5s2.5 -3.16699 2.5 -4.5v-238c0 -22.667 1.16699 -38.5 3.5 -47.5s7.66602 -14.833 15.999 -17.5s22.5 -4 42.5 -4c1.33301 0 2 -1.83301 2 -5.5s-0.666992 -5.5 -2 -5.5c-16.667 0 -29.667 0.333008 -39 1l-53 1l-57 -1
c-10 -0.666992 -23.667 -1 -41 -1c-1.33301 0 -2 1.83301 -2 5.5zM171.5 3.5c-9.66699 5 -14.166 8.16699 -13.499 9.5l279 616c1.33301 2 6.83301 1 16.5 -3s14.167 -7 13.5 -9l-280 -618c-0.666992 -2 -5.83398 -0.5 -15.501 4.5zM410.001 73.5
c11.333 19 25.6699 39.168 43.0029 60.501s30.166 39.666 38.499 54.999s12.5 33.333 12.5 54c0 38 -14.667 57 -44 57c-14.667 0 -27.667 -4.83301 -39 -14.5s-19.333 -22.167 -24 -37.5c0 -2 -1.33301 -3 -4 -3c-2 0 -3.83301 0.5 -5.5 1.5s-2.16699 2.16699 -1.5 3.5
c7.33301 23.333 18.666 41.833 33.999 55.5s37 20.5 65 20.5s49.167 -6.66699 63.5 -20s21.5 -30.666 21.5 -51.999s-6.66699 -40.5 -20 -57.5s-33 -36.833 -59 -59.5c-20 -17.333 -35.333 -31.833 -46 -43.5s-18.334 -24.167 -23.001 -37.5c0 -2 1 -3 3 -3
c42.667 0 73.5 1 92.5 3s32.333 6.16699 40 12.5s12.167 16.166 13.5 29.499c0 1.33301 1.83301 2 5.5 2s5.5 -0.666992 5.5 -2l-2 -93c0 -3.33301 -1.33301 -5 -4 -5h-190c-2.66699 0 -3.66699 2 -3 6c6.66699 26 15.667 48.5 27 67.5z" />
    <glyph glyph-name="threequarters" unicode="&#xbe;" horiz-adv-x="594" 
d="M196 333c-19.333 -20.667 -45.998 -31.001 -79.998 -31.001c-48.667 0 -80 23 -94 69c-0.666992 2.66699 1 4.33398 5 5.00098s6.33301 -0.333008 7 -3c6 -14 14.833 -25.333 26.5 -34s25.5 -13 41.5 -13s29.333 5.5 40 16.5s16 28.833 16 53.5
c0 24 -6.33301 42.333 -19 55s-31.334 19 -56.001 19c-2.66699 0 -3.83398 2 -3.50098 6s1.5 6 3.5 6c20 0 35.333 6.5 46 19.5s16 29.5 16 49.5c0 18 -4 31.833 -12 41.5s-19 14.5 -33 14.5c-14.667 0 -27.667 -5.16699 -39 -15.5s-18.333 -22.166 -21 -35.499
c-0.666992 -2 -2.33398 -3 -5.00098 -3c-2 0 -3.83301 0.5 -5.5 1.5s-2.16699 2.16699 -1.5 3.5c6 23.333 17 41.833 33 55.5s37.667 20.5 65 20.5s48.5 -6.83301 63.5 -20.5s22.5 -31.167 22.5 -52.5c0 -18 -5.83301 -34.333 -17.5 -49s-26.5 -25.334 -44.5 -32.001
c22.667 -4.66699 40.834 -13.5 54.501 -26.5s20.5 -29.833 20.5 -50.5c0 -26 -9.66699 -49.333 -29 -70zM442.502 625.999c9.66699 -4 14.168 -7 13.501 -9l-280 -618c-0.666992 -2 -5.83398 -0.5 -15.501 4.5s-14.167 8.16699 -13.5 9.5l279 616
c1.33301 2 6.83301 1 16.5 -3zM530.003 89.999l0.00195312 -48.998c0 -9.33301 0.666992 -15.833 2 -19.5s4.66602 -6.33398 9.99902 -8.00098s14.666 -2.5 27.999 -2.5c0.666992 -1.33301 1 -3.33301 1 -6s-0.333008 -4.66699 -1 -6l-67 1l-84 -1c-0.666992 0 -1 2 -1 6
s0.333008 6 1 6c16 0 27.333 0.666992 34 2s11.167 4 13.5 8s3.5 10.667 3.5 20v51c-46.667 1.33301 -88.667 2 -126 2c-2 0 -3.66699 1.16699 -5 3.5s-1 4.16602 1 5.49902l163 218c2 2.66699 6.33301 4 13 4c3.33301 0 6.5 -0.5 9.5 -1.5s4.5 -2.16699 4.5 -3.5v-207l40 2
c2 0 3 -4.33301 3 -13c0 -9.33301 -1 -14 -3 -14zM470.005 110.001v136l-94 -134c-2 -2 -1.33301 -3 2 -3z" />
    <glyph glyph-name="questiondown" unicode="&#xbf;" horiz-adv-x="327" 
d="M216 346c10 -10 15 -23.333 15 -40c0 -16 -5 -28.833 -15 -38.5s-23.333 -14.5 -40 -14.5c-17.333 0 -30.666 4.83301 -39.999 14.5s-14 22.5 -14 38.5c0 17.333 4.66699 30.833 14 40.5s22.666 14.5 39.999 14.5c16.667 0 30 -5 40 -15zM188.5 -246.5
c4.33301 7.66699 7.16699 18.168 8.5 31.501c2 17.333 6.33301 31.833 13 43.5s19.334 17.5 38.001 17.5c15.333 0 26.666 -4.33301 33.999 -13s11 -18.667 11 -30c0 -21.333 -12.5 -39.666 -37.5 -54.999s-55.833 -23 -92.5 -23c-42 0 -77.167 10.333 -105.5 31
s-42.5 50 -42.5 88c0 25.333 6 46.333 18 63s30 35.667 54 57l18 15c21.333 19.333 36.833 38.666 46.5 57.999s14.5 41 14.5 65c0 13.333 -2 31.333 -6 54c-0.666992 2 1.5 3.5 6.5 4.5s7.83301 0.5 8.5 -1.5c8 -18 14.333 -38.5 19 -61.5s7 -42.5 7 -58.5
c0 -20.667 -3.5 -37.5 -10.5 -50.5s-17.5 -27.833 -31.5 -44.5c-15.333 -18 -27 -34.833 -35 -50.5s-12 -36.167 -12 -61.5c0 -26.667 4.66699 -48.334 14 -65.001s22 -25 38 -25c12 0 20.167 3.83301 24.5 11.5z" />
    <glyph glyph-name="Agrave" unicode="&#xc0;" horiz-adv-x="711" 
d="M237.5 768c13.667 6.66699 29.3311 12.667 46.998 18s28.167 6.66602 31.5 3.99902c20 -14.667 35 -26 45 -34c40.667 -30.667 71.667 -53 93 -67c1.33301 -0.666992 2 -2 2 -4s-0.666992 -3.66699 -2 -5s-2.66602 -1.66602 -3.99902 -0.999023
c-75.333 33.333 -149.666 59 -222.999 77c-6.66699 1.33301 -3.16699 5.33301 10.5 12zM715.997 6c0 -4 -1.66699 -6 -5 -6c-12.667 0 -33 0.666992 -61 2s-48.333 2 -61 2c-16.667 0 -36.334 -0.666992 -59.001 -2s-40.334 -2 -53.001 -2c-2.66699 0 -4 2 -4 6
s1.33301 6 4 6c19.333 0 33.5 2.16699 42.5 6.5s13.5 11.5 13.5 21.5s-5.66699 27 -17 51l-108 219h-181l-77 -173c-8.66699 -20 -13 -38 -13 -54c0 -23.333 8.33301 -41 25 -53s40 -18 70 -18c3.33301 0 5 -2 5 -6s-1.66699 -6 -5 -6c-12 0 -29.333 0.666992 -52 2
c-25.333 1.33301 -47.333 2 -66 2c-18 0 -39 -0.666992 -63 -2c-21.333 -1.33301 -39 -2 -53 -2c-3.33301 0 -5 2 -5 6s1.66699 6 5 6c18.667 0 34.334 3.66699 47.001 11s25 20.5 37 39.5s26.333 47.167 43 84.5l215 484c1.33301 2 4.33301 3 9 3s7.33398 -1 8.00098 -3
l245 -494c23.333 -48 42.833 -80.833 58.5 -98.5s32.5 -26.5 50.5 -26.5c3.33301 0 5 -2 5 -6zM237.997 335h158l-83 168z" />
    <glyph glyph-name="Aacute" unicode="&#xc1;" horiz-adv-x="711" 
d="M251 678c-2.66699 0 -4.33398 1.49902 -5.00098 4.49902s0 5.16699 2 6.5c21.333 12.667 50.666 33.667 87.999 63l50 38c3.33301 2.66699 14 1.33398 32 -3.99902s33.833 -11.333 47.5 -18s16.834 -10.667 9.50098 -12c-41.333 -10 -79.166 -21.167 -113.499 -33.5
s-70.5 -26.833 -108.5 -43.5zM716 5.99902c0 -4 -1.66699 -6 -5 -6c-12.667 0 -33 0.666992 -61 2s-48.333 2 -61 2c-16.667 0 -36.334 -0.666992 -59.001 -2s-40.334 -2 -53.001 -2c-2.66699 0 -4 2 -4 6s1.33301 6 4 6c19.333 0 33.5 2.16699 42.5 6.5
s13.5 11.5 13.5 21.5s-5.66699 27 -17 51l-108 219h-181l-77 -173c-8.66699 -20 -13 -38 -13 -54c0 -23.333 8.33301 -41 25 -53s40 -18 70 -18c3.33301 0 5 -2 5 -6s-1.66699 -6 -5 -6c-12 0 -29.333 0.666992 -52 2c-25.333 1.33301 -47.333 2 -66 2
c-18 0 -39 -0.666992 -63 -2c-21.333 -1.33301 -39 -2 -53 -2c-3.33301 0 -5 2 -5 6s1.66699 6 5 6c18.667 0 34.334 3.66699 47.001 11s25 20.5 37 39.5s26.333 47.167 43 84.5l215 484c1.33301 2 4.33301 3 9 3s7.33398 -1 8.00098 -3l245 -494
c23.333 -48 42.833 -80.833 58.5 -98.5s32.5 -26.5 50.5 -26.5c3.33301 0 5 -2 5 -6zM238 334.999h158l-83 168z" />
    <glyph glyph-name="Acircumflex" unicode="&#xc2;" horiz-adv-x="711" 
d="M236 650.5c-2 2.33301 -2.33203 3.83203 -0.999023 4.49902l103 110c3.33301 3.33301 7.33301 5 12 5c4 0 7.66699 -1.66699 11 -5l102 -110c0.666992 0 1 -0.666992 1 -2s-0.833008 -2.66602 -2.5 -3.99902s-2.83398 -1.66602 -3.50098 -0.999023l-108 45l-109 -45
c-1.33301 -0.666992 -3 0.166016 -5 2.49902zM716.001 5.99902c0 -4 -1.66699 -6 -5 -6c-12.667 0 -33 0.666992 -61 2s-48.333 2 -61 2c-16.667 0 -36.334 -0.666992 -59.001 -2s-40.334 -2 -53.001 -2c-2.66699 0 -4 2 -4 6s1.33301 6 4 6c19.333 0 33.5 2.16699 42.5 6.5
s13.5 11.5 13.5 21.5s-5.66699 27 -17 51l-108 219h-181l-77 -173c-8.66699 -20 -13 -38 -13 -54c0 -23.333 8.33301 -41 25 -53s40 -18 70 -18c3.33301 0 5 -2 5 -6s-1.66699 -6 -5 -6c-12 0 -29.333 0.666992 -52 2c-25.333 1.33301 -47.333 2 -66 2
c-18 0 -39 -0.666992 -63 -2c-21.333 -1.33301 -39 -2 -53 -2c-3.33301 0 -5 2 -5 6s1.66699 6 5 6c18.667 0 34.334 3.66699 47.001 11s25 20.5 37 39.5s26.333 47.167 43 84.5l215 484c1.33301 2 4.33301 3 9 3s7.33398 -1 8.00098 -3l245 -494
c23.333 -48 42.833 -80.833 58.5 -98.5s32.5 -26.5 50.5 -26.5c3.33301 0 5 -2 5 -6zM238.001 334.999h158l-83 168z" />
    <glyph glyph-name="Atilde" unicode="&#xc3;" horiz-adv-x="711" 
d="M227 697c-2 0 -3.83398 0.833008 -5.50098 2.5s-1.83398 3.16699 -0.500977 4.5c28.667 50 57.667 75 87 75c7.33301 0 23 -3.33301 47 -10c30.667 -9.33301 55.667 -14 75 -14c11.333 0 20.5 2 27.5 6s14.5 11 22.5 21h1c2 0 3.83301 -0.833008 5.5 -2.5
s1.83398 -3.16699 0.500977 -4.5c-17.333 -30 -31.666 -50 -42.999 -60s-24 -15 -38 -15c-10.667 0 -22.167 1.66699 -34.5 5s-20.166 5.33301 -23.499 6c-11.333 3.33301 -23 6.33301 -35 9s-23.333 4 -34 4c-11.333 0 -19.833 -1.5 -25.5 -4.5s-10.834 -7 -15.501 -12
l-10 -10.5h-1zM715.999 6c0 -4 -1.66699 -6 -5 -6c-12.667 0 -33 0.666992 -61 2s-48.333 2 -61 2c-16.667 0 -36.334 -0.666992 -59.001 -2s-40.334 -2 -53.001 -2c-2.66699 0 -4 2 -4 6s1.33301 6 4 6c19.333 0 33.5 2.16699 42.5 6.5s13.5 11.5 13.5 21.5
s-5.66699 27 -17 51l-108 219h-181l-77 -173c-8.66699 -20 -13 -38 -13 -54c0 -23.333 8.33301 -41 25 -53s40 -18 70 -18c3.33301 0 5 -2 5 -6s-1.66699 -6 -5 -6c-12 0 -29.333 0.666992 -52 2c-25.333 1.33301 -47.333 2 -66 2c-18 0 -39 -0.666992 -63 -2
c-21.333 -1.33301 -39 -2 -53 -2c-3.33301 0 -5 2 -5 6s1.66699 6 5 6c18.667 0 34.334 3.66699 47.001 11s25 20.5 37 39.5s26.333 47.167 43 84.5l215 484c1.33301 2 4.33301 3 9 3s7.33398 -1 8.00098 -3l245 -494c23.333 -48 42.833 -80.833 58.5 -98.5
s32.5 -26.5 50.5 -26.5c3.33301 0 5 -2 5 -6zM237.999 335h158l-83 168z" />
    <glyph glyph-name="Adieresis" unicode="&#xc4;" horiz-adv-x="711" 
d="M226.5 721c-9 8.66699 -13.5 21 -13.5 37c0 15.333 4.5 27.166 13.5 35.499s21.5 12.5 37.5 12.5c15.333 0 27.166 -4.16699 35.499 -12.5s12.5 -20.166 12.5 -35.499c0 -16 -4.16699 -28.333 -12.5 -37s-20.166 -13 -35.499 -13c-16 0 -28.5 4.33301 -37.5 13z
M401.5 721c-9 8.66699 -13.5 20.998 -13.5 36.998c0 14.667 4.5 26.334 13.5 35.001s21.167 13 36.5 13s27.333 -4.16699 36 -12.5s13 -20.166 13 -35.499c0 -16 -4.33301 -28.333 -13 -37s-20.667 -13 -36 -13s-27.5 4.33301 -36.5 13zM716 5.99805c0 -4 -1.66699 -6 -5 -6
c-12.667 0 -33 0.666992 -61 2s-48.333 2 -61 2c-16.667 0 -36.334 -0.666992 -59.001 -2s-40.334 -2 -53.001 -2c-2.66699 0 -4 2 -4 6s1.33301 6 4 6c19.333 0 33.5 2.16699 42.5 6.5s13.5 11.5 13.5 21.5s-5.66699 27 -17 51l-108 219h-181l-77 -173
c-8.66699 -20 -13 -38 -13 -54c0 -23.333 8.33301 -41 25 -53s40 -18 70 -18c3.33301 0 5 -2 5 -6s-1.66699 -6 -5 -6c-12 0 -29.333 0.666992 -52 2c-25.333 1.33301 -47.333 2 -66 2c-18 0 -39 -0.666992 -63 -2c-21.333 -1.33301 -39 -2 -53 -2c-3.33301 0 -5 2 -5 6
s1.66699 6 5 6c18.667 0 34.334 3.66699 47.001 11s25 20.5 37 39.5s26.333 47.167 43 84.5l215 484c1.33301 2 4.33301 3 9 3s7.33398 -1 8.00098 -3l245 -494c23.333 -48 42.833 -80.833 58.5 -98.5s32.5 -26.5 50.5 -26.5c3.33301 0 5 -2 5 -6zM238 334.998h158l-83 168z
" />
    <glyph glyph-name="Aring" unicode="&#xc5;" horiz-adv-x="711" 
d="M269.5 684.5c-18.333 15.667 -27.5 34.499 -27.5 56.499c0 24 11.333 42.833 34 56.5s48 20.5 76 20.5c27.333 0 50.833 -7.66699 70.5 -23s29.5 -34 29.5 -56c0 -23.333 -11 -42.166 -33 -56.499s-47.333 -21.5 -76 -21.5c-30.667 0 -55.167 7.83301 -73.5 23.5z
M306 760.999c0 -22.667 4.66699 -42.834 14 -60.501s22 -26.5 38 -26.5c20 0 30 15.667 30 47c0 22.667 -5.5 42.334 -16.5 59.001s-24.167 25 -39.5 25c-17.333 0 -26 -14.667 -26 -44zM716 5.99902c0 -4 -1.66699 -6 -5 -6c-12.667 0 -33 0.666992 -61 2s-48.333 2 -61 2
c-16.667 0 -36.334 -0.666992 -59.001 -2s-40.334 -2 -53.001 -2c-2.66699 0 -4 2 -4 6s1.33301 6 4 6c19.333 0 33.5 2.16699 42.5 6.5s13.5 11.5 13.5 21.5s-5.66699 27 -17 51l-108 219h-181l-77 -173c-8.66699 -20 -13 -38 -13 -54c0 -23.333 8.33301 -41 25 -53
s40 -18 70 -18c3.33301 0 5 -2 5 -6s-1.66699 -6 -5 -6c-12 0 -29.333 0.666992 -52 2c-25.333 1.33301 -47.333 2 -66 2c-18 0 -39 -0.666992 -63 -2c-21.333 -1.33301 -39 -2 -53 -2c-3.33301 0 -5 2 -5 6s1.66699 6 5 6c18.667 0 34.334 3.66699 47.001 11
s25 20.5 37 39.5s26.333 47.167 43 84.5l215 484c1.33301 2 4.33301 3 9 3s7.33398 -1 8.00098 -3l245 -494c23.333 -48 42.833 -80.833 58.5 -98.5s32.5 -26.5 50.5 -26.5c3.33301 0 5 -2 5 -6zM238 334.999h158l-83 168z" />
    <glyph glyph-name="AE" unicode="&#xc6;" horiz-adv-x="883" 
d="M829 158c2 0 3.83105 -0.500977 5.49805 -1.50098s2.5 -1.83301 2.5 -2.5c-6 -56.667 -9 -103 -9 -139c0 -5.33301 -1.16699 -9.16602 -3.5 -11.499s-6.16602 -3.5 -11.499 -3.5h-428c-1.33301 0 -2 2 -2 6s0.666992 6 2 6c22.667 0 39.167 1.66699 49.5 5
s17.5 9.83301 21.5 19.5s6 24.5 6 44.5v231h-158l-116 -178c-18 -28.667 -27 -52.667 -27 -72c0 -16 6.33301 -28.333 19 -37s31.334 -13 56.001 -13c3.33301 0 5 -2 5 -6s-1.66699 -6 -5 -6c-14 0 -33.667 0.666992 -59 2c-29.333 1.33301 -54.666 2 -75.999 2
c-16.667 0 -35.667 -0.666992 -57 -2c-20 -1.33301 -36 -2 -48 -2c-3.33301 0 -5 2 -5 6s1.66699 6 5 6c25.333 0 50 9.5 74 28.5s50 49.5 78 91.5l293 442c8.66699 12 13 20.333 13 25c0 6 -5.5 9.83301 -16.5 11.5s-31.167 2.5 -60.5 2.5c-2 0 -3 2 -3 6s1 6 3 6h418
c6.66699 0 10 -3 10 -9l2 -130c0 -1.33301 -1.83301 -2.33301 -5.5 -3s-5.83398 0 -6.50098 2c-3.33301 17.333 -11.166 34.833 -23.499 52.5s-28 32.334 -47 44.001s-39.167 17.5 -60.5 17.5h-46c-24 0 -40.833 -4.16699 -50.5 -12.5s-14.5 -22.833 -14.5 -43.5v-205h93
c72.667 0 109 24.667 109 74c0 2 2 3 6 3s6 -1 6 -3l-1 -87c0 -20.667 0.333008 -36.334 1 -47.001l1 -52c0 -1.33301 -1.83301 -2 -5.5 -2s-5.5 0.666992 -5.5 2c0 28 -9.5 49.333 -28.5 64s-47.167 22 -84.5 22h-91v-227c0 -22 4.16699 -37.333 12.5 -46
s23.166 -13 44.499 -13h53c35.333 0 68.833 12.667 100.5 38s52.5 56 62.5 92c0 1.33301 1 2 3 2zM320.998 337.999h141v217z" />
    <glyph glyph-name="Ccedilla" unicode="&#xc7;" horiz-adv-x="669" 
d="M620.5 178c3.66699 -0.666992 5.49609 -2.00098 5.49609 -4.00098l-15 -128c-1.33301 -8 -2.83301 -13.167 -4.5 -15.5s-5.5 -4.83301 -11.5 -7.5c-58 -23.333 -119.667 -35 -185 -35h-18c-3.33301 -13.333 -5 -23.333 -5 -30c0 -11.333 3.16699 -21 9.5 -29
s16.833 -16 31.5 -24c17.333 -10.667 30.833 -21.834 40.5 -33.501s14.5 -26.5 14.5 -44.5c0 -26.667 -9.66699 -50.334 -29 -71.001s-48.333 -31 -87 -31c-47.333 0 -71 15 -71 45c0 9.33301 3.5 17.666 10.5 24.999s15.5 11 25.5 11c11.333 0 19.333 -2.5 24 -7.5
s9 -12.167 13 -21.5c4 -10 8.16699 -17.333 12.5 -22s11.833 -7 22.5 -7c17.333 0 26 9.33301 26 28c0 17.333 -6.16699 33 -18.5 47s-34.166 29.667 -65.499 47c-3.33301 1.33301 -5.83301 3 -7.5 5s-2.5 4.33301 -2.5 7c0 4 1.33301 9.66699 4 17
c10.667 26.667 22 56.667 34 90c-73.333 5.33301 -134.333 24.333 -183 57s-84.5 73 -107.5 121s-34.5 97.667 -34.5 149c0 62.667 17.167 118.334 51.5 167.001s79.833 86.334 136.5 113.001s117.334 40 182.001 40c30 0 61.167 -2.66699 93.5 -8
s57.833 -12.666 76.5 -21.999c6 -2 9.83301 -4.5 11.5 -7.5s2.83398 -8.16699 3.50098 -15.5l12 -130c0 -2 -1.66699 -3.33301 -5 -4s-5.33301 0.333008 -6 3c-19.333 52 -48.5 91.667 -87.5 119s-84.833 41 -137.5 41c-69.333 0 -123.666 -24.333 -162.999 -73
s-59 -114 -59 -196c0 -61.333 10.833 -117.666 32.5 -168.999s51.667 -92 90 -122s81.166 -45 128.499 -45c90 0 158.333 56 205 168c0.666992 2.66699 2.83398 3.66699 6.50098 3z" />
    <glyph glyph-name="Egrave" unicode="&#xc8;" horiz-adv-x="547" 
d="M183.5 768c13.667 6.66699 29.3311 12.667 46.998 18s28.167 6.66602 31.5 3.99902c20 -14.667 35 -26 45 -34c40.667 -30.667 71.667 -53 93 -67c1.33301 -0.666992 2 -2 2 -4s-0.666992 -3.66699 -2 -5s-2.66602 -1.66602 -3.99902 -0.999023
c-75.333 33.333 -149.666 59 -222.999 77c-6.66699 1.33301 -3.16699 5.33301 10.5 12zM492.997 158c2 0 3.83594 -0.500977 5.50293 -1.50098s2.5 -1.83301 2.5 -2.5c-6.66699 -50.667 -10 -97 -10 -139c0 -5.33301 -1 -9.16602 -3 -11.499s-6 -3.5 -12 -3.5h-434
c-2 0 -3 2 -3 6s1 6 3 6c22.667 0 39.167 1.66699 49.5 5s17.333 9.83301 21 19.5s5.5 24.5 5.5 44.5v463c0 20 -1.83301 34.667 -5.5 44s-10.834 15.833 -21.501 19.5s-27 5.5 -49 5.5c-2 0 -3 2 -3 6s1 6 3 6h416c6.66699 0 10 -3 10 -9l2 -130
c0 -1.33301 -1.83301 -2.33301 -5.5 -3s-5.83398 0 -6.50098 2c-16 76 -62.333 114 -139 114h-40c-24 0 -41 -4.33301 -51 -13s-15 -23.334 -15 -44.001v-204h96c73.333 0 110 24.667 110 74c0 2 1.83301 3 5.5 3s5.5 -1 5.5 -3l-1 -87l1 -47
c1.33301 -21.333 2 -38.666 2 -51.999c0 -1.33301 -2 -2 -6 -2s-6 0.666992 -6 2c0 57.333 -37.333 86 -112 86h-95v-227c0 -22 4.16699 -37.333 12.5 -46s23.166 -13 44.499 -13h49c89.333 0 146 43.333 170 130c0 1.33301 1.33301 2 4 2z" />
    <glyph glyph-name="Eacute" unicode="&#xc9;" horiz-adv-x="547" 
d="M197 678c-2.66699 0 -4.33398 1.49902 -5.00098 4.49902s0 5.16699 2 6.5c21.333 12.667 50.666 33.667 87.999 63l50 38c3.33301 2.66699 14 1.33398 32 -3.99902s33.833 -11.333 47.5 -18s16.834 -10.667 9.50098 -12c-41.333 -10 -79.166 -21.167 -113.499 -33.5
s-70.5 -26.833 -108.5 -43.5zM493 157.999c2 0 3.83594 -0.500977 5.50293 -1.50098s2.5 -1.83301 2.5 -2.5c-6.66699 -50.667 -10 -97 -10 -139c0 -5.33301 -1 -9.16602 -3 -11.499s-6 -3.5 -12 -3.5h-434c-2 0 -3 2 -3 6s1 6 3 6c22.667 0 39.167 1.66699 49.5 5
s17.333 9.83301 21 19.5s5.5 24.5 5.5 44.5v463c0 20 -1.83301 34.667 -5.5 44s-10.834 15.833 -21.501 19.5s-27 5.5 -49 5.5c-2 0 -3 2 -3 6s1 6 3 6h416c6.66699 0 10 -3 10 -9l2 -130c0 -1.33301 -1.83301 -2.33301 -5.5 -3s-5.83398 0 -6.50098 2
c-16 76 -62.333 114 -139 114h-40c-24 0 -41 -4.33301 -51 -13s-15 -23.334 -15 -44.001v-204h96c73.333 0 110 24.667 110 74c0 2 1.83301 3 5.5 3s5.5 -1 5.5 -3l-1 -87l1 -47c1.33301 -21.333 2 -38.666 2 -51.999c0 -1.33301 -2 -2 -6 -2s-6 0.666992 -6 2
c0 57.333 -37.333 86 -112 86h-95v-227c0 -22 4.16699 -37.333 12.5 -46s23.166 -13 44.499 -13h49c89.333 0 146 43.333 170 130c0 1.33301 1.33301 2 4 2z" />
    <glyph glyph-name="Ecircumflex" unicode="&#xca;" horiz-adv-x="547" 
d="M183 694.5c-2 2.33301 -2.33203 3.83203 -0.999023 4.49902l103 110c3.33301 3.33301 7.33301 5 12 5c4 0 7.66699 -1.66699 11 -5l102 -110c0.666992 0 1 -0.666992 1 -2s-0.833008 -2.66602 -2.5 -3.99902s-2.83398 -1.66602 -3.50098 -0.999023l-108 45l-109 -45
c-1.33301 -0.666992 -3 0.166016 -5 2.49902zM493.001 157.999c2 0 3.83594 -0.500977 5.50293 -1.50098s2.5 -1.83301 2.5 -2.5c-6.66699 -50.667 -10 -97 -10 -139c0 -5.33301 -1 -9.16602 -3 -11.499s-6 -3.5 -12 -3.5h-434c-2 0 -3 2 -3 6s1 6 3 6
c22.667 0 39.167 1.66699 49.5 5s17.333 9.83301 21 19.5s5.5 24.5 5.5 44.5v463c0 20 -1.83301 34.667 -5.5 44s-10.834 15.833 -21.501 19.5s-27 5.5 -49 5.5c-2 0 -3 2 -3 6s1 6 3 6h416c6.66699 0 10 -3 10 -9l2 -130c0 -1.33301 -1.83301 -2.33301 -5.5 -3
s-5.83398 0 -6.50098 2c-16 76 -62.333 114 -139 114h-40c-24 0 -41 -4.33301 -51 -13s-15 -23.334 -15 -44.001v-204h96c73.333 0 110 24.667 110 74c0 2 1.83301 3 5.5 3s5.5 -1 5.5 -3l-1 -87l1 -47c1.33301 -21.333 2 -38.666 2 -51.999c0 -1.33301 -2 -2 -6 -2
s-6 0.666992 -6 2c0 57.333 -37.333 86 -112 86h-95v-227c0 -22 4.16699 -37.333 12.5 -46s23.166 -13 44.499 -13h49c89.333 0 146 43.333 170 130c0 1.33301 1.33301 2 4 2z" />
    <glyph glyph-name="Edieresis" unicode="&#xcb;" horiz-adv-x="547" 
d="M172.5 721c-9 8.66699 -13.5 21 -13.5 37c0 15.333 4.5 27.166 13.5 35.499s21.5 12.5 37.5 12.5c15.333 0 27.166 -4.16699 35.499 -12.5s12.5 -20.166 12.5 -35.499c0 -16 -4.16699 -28.333 -12.5 -37s-20.166 -13 -35.499 -13c-16 0 -28.5 4.33301 -37.5 13z
M347.5 721c-9 8.66699 -13.5 20.998 -13.5 36.998c0 14.667 4.5 26.334 13.5 35.001s21.167 13 36.5 13s27.333 -4.16699 36 -12.5s13 -20.166 13 -35.499c0 -16 -4.33301 -28.333 -13 -37s-20.667 -13 -36 -13s-27.5 4.33301 -36.5 13zM493 157.998
c2 0 3.83594 -0.500977 5.50293 -1.50098s2.5 -1.83301 2.5 -2.5c-6.66699 -50.667 -10 -97 -10 -139c0 -5.33301 -1 -9.16602 -3 -11.499s-6 -3.5 -12 -3.5h-434c-2 0 -3 2 -3 6s1 6 3 6c22.667 0 39.167 1.66699 49.5 5s17.333 9.83301 21 19.5s5.5 24.5 5.5 44.5v463
c0 20 -1.83301 34.667 -5.5 44s-10.834 15.833 -21.501 19.5s-27 5.5 -49 5.5c-2 0 -3 2 -3 6s1 6 3 6h416c6.66699 0 10 -3 10 -9l2 -130c0 -1.33301 -1.83301 -2.33301 -5.5 -3s-5.83398 0 -6.50098 2c-16 76 -62.333 114 -139 114h-40c-24 0 -41 -4.33301 -51 -13
s-15 -23.334 -15 -44.001v-204h96c73.333 0 110 24.667 110 74c0 2 1.83301 3 5.5 3s5.5 -1 5.5 -3l-1 -87l1 -47c1.33301 -21.333 2 -38.666 2 -51.999c0 -1.33301 -2 -2 -6 -2s-6 0.666992 -6 2c0 57.333 -37.333 86 -112 86h-95v-227c0 -22 4.16699 -37.333 12.5 -46
s23.166 -13 44.499 -13h49c89.333 0 146 43.333 170 130c0 1.33301 1.33301 2 4 2z" />
    <glyph glyph-name="Igrave" unicode="&#xcc;" horiz-adv-x="339" 
d="M46 756c-6.66699 1.33301 -3.16992 5.33301 10.4971 12s29.334 12.667 47.001 18s28.167 6.66602 31.5 3.99902c20 -14.667 35 -26 45 -34c40.667 -30.667 71.667 -53 93 -67c1.33301 -0.666992 2 -2 2 -4s-0.666992 -3.66699 -2 -5
s-2.66602 -1.66602 -3.99902 -0.999023c-75.333 33.333 -149.666 59 -222.999 77zM222.997 36c3.33301 -9.33301 10.167 -15.667 20.5 -19s26.833 -5 49.5 -5c2 0 3 -2 3 -6s-1 -6 -3 -6c-21.333 -0 -38.333 0.333008 -51 1l-74 1l-72 -1c-12.667 -0.666992 -30 -1 -52 -1
c-2 0 -3 2 -3 6s1 6 3 6c22.667 0 39.167 1.66699 49.5 5s17.5 9.83301 21.5 19.5s6 24.5 6 44.5v463c0 20 -2 34.667 -6 44s-11.167 15.833 -21.5 19.5s-26.833 5.5 -49.5 5.5c-2 0 -3 2 -3 6s1 6 3 6l52 -1c29.333 -1.33301 53.333 -2 72 -2
c20.667 0 45.667 0.666992 75 2l50 1c2 0 3 -2 3 -6s-1 -6 -3 -6c-22 0 -38.167 -2 -48.5 -6s-17.333 -10.833 -21 -20.5s-5.5 -24.5 -5.5 -44.5v-461c0 -20.667 1.66699 -35.667 5 -45z" />
    <glyph glyph-name="Iacute" unicode="&#xcd;" horiz-adv-x="339" 
d="M70 678c-2.66699 0 -4.33398 1.49902 -5.00098 4.49902s0 5.16699 2 6.5c21.333 12.667 50.666 33.667 87.999 63l50 38c3.33301 2.66699 14 1.33398 32 -3.99902s33.833 -11.333 47.5 -18s16.834 -10.667 9.50098 -12c-41.333 -10 -79.166 -21.167 -113.499 -33.5
s-70.5 -26.833 -108.5 -43.5zM223 35.999c3.33301 -9.33301 10.167 -15.667 20.5 -19s26.833 -5 49.5 -5c2 0 3 -2 3 -6s-1 -6 -3 -6c-21.333 0 -38.333 0.333008 -51 1l-74 1l-72 -1c-12.667 -0.666992 -30 -1 -52 -1c-2 0 -3 2 -3 6s1 6 3 6
c22.667 0 39.167 1.66699 49.5 5s17.5 9.83301 21.5 19.5s6 24.5 6 44.5v463c0 20 -2 34.667 -6 44s-11.167 15.833 -21.5 19.5s-26.833 5.5 -49.5 5.5c-2 0 -3 2 -3 6s1 6 3 6l52 -1c29.333 -1.33301 53.333 -2 72 -2c20.667 0 45.667 0.666992 75 2l50 1c2 0 3 -2 3 -6
s-1 -6 -3 -6c-22 0 -38.167 -2 -48.5 -6s-17.333 -10.833 -21 -20.5s-5.5 -24.5 -5.5 -44.5v-461c0 -20.667 1.66699 -35.667 5 -45z" />
    <glyph glyph-name="Icircumflex" unicode="&#xce;" horiz-adv-x="339" 
d="M158 809c3.33301 3.33301 7.33398 4.99902 12.001 4.99902c4 0 7.66699 -1.66699 11 -5l102 -110c0.666992 0 1 -0.666992 1 -2s-0.833008 -2.66602 -2.5 -3.99902s-2.83398 -1.66602 -3.50098 -0.999023l-108 45l-109 -45c-1.33301 -0.666992 -3 0.166016 -5 2.49902
s-2.33301 3.83301 -1 4.5zM223.001 35.999c3.33301 -9.33301 10.167 -15.667 20.5 -19s26.833 -5 49.5 -5c2 0 3 -2 3 -6s-1 -6 -3 -6c-21.333 0 -38.333 0.333008 -51 1l-74 1l-72 -1c-12.667 -0.666992 -30 -1 -52 -1c-2 0 -3 2 -3 6s1 6 3 6
c22.667 0 39.167 1.66699 49.5 5s17.5 9.83301 21.5 19.5s6 24.5 6 44.5v463c0 20 -2 34.667 -6 44s-11.167 15.833 -21.5 19.5s-26.833 5.5 -49.5 5.5c-2 0 -3 2 -3 6s1 6 3 6l52 -1c29.333 -1.33301 53.333 -2 72 -2c20.667 0 45.667 0.666992 75 2l50 1c2 0 3 -2 3 -6
s-1 -6 -3 -6c-22 0 -38.167 -2 -48.5 -6s-17.333 -10.833 -21 -20.5s-5.5 -24.5 -5.5 -44.5v-461c0 -20.667 1.66699 -35.667 5 -45z" />
    <glyph glyph-name="Idieresis" unicode="&#xcf;" horiz-adv-x="339" 
d="M57.5 721c-9 8.66699 -13.5 21.002 -13.5 37.002c0 15.333 4.5 27.166 13.5 35.499s21.5 12.5 37.5 12.5c15.333 0 27.333 -4.33301 36 -13s13 -20.334 13 -35.001c0 -16 -4.33301 -28.333 -13 -37s-20.667 -13 -36 -13c-16 0 -28.5 4.33301 -37.5 13zM207.5 721.002
c-9 8.66699 -13.5 20.998 -13.5 36.998c0 14.667 4.5 26.334 13.5 35.001s21.167 13 36.5 13s27.166 -4.16699 35.499 -12.5s12.5 -20.166 12.5 -35.499c0 -16 -4.16699 -28.333 -12.5 -37s-20.166 -13 -35.499 -13s-27.5 4.33301 -36.5 13zM223 36
c3.33301 -9.33301 10.167 -15.667 20.5 -19s26.833 -5 49.5 -5c2 0 3 -2 3 -6s-1 -6 -3 -6c-21.333 -0 -38.333 0.333008 -51 1l-74 1l-72 -1c-12.667 -0.666992 -30 -1 -52 -1c-2 0 -3 2 -3 6s1 6 3 6c22.667 0 39.167 1.66699 49.5 5s17.5 9.83301 21.5 19.5
s6 24.5 6 44.5v463c0 20 -2 34.667 -6 44s-11.167 15.833 -21.5 19.5s-26.833 5.5 -49.5 5.5c-2 0 -3 2 -3 6s1 6 3 6l52 -1c29.333 -1.33301 53.333 -2 72 -2c20.667 0 45.667 0.666992 75 2l50 1c2 0 3 -2 3 -6s-1 -6 -3 -6c-22 0 -38.167 -2 -48.5 -6
s-17.333 -10.833 -21 -20.5s-5.5 -24.5 -5.5 -44.5v-461c0 -20.667 1.66699 -35.667 5 -45z" />
    <glyph glyph-name="Eth" unicode="&#xd0;" horiz-adv-x="700" 
d="M485 587c52.667 -26.667 93.5039 -63 122.504 -109s43.5 -97.667 43.5 -155c0 -64.667 -15 -121.834 -45 -171.501s-70.333 -88 -121 -115s-106.334 -40.5 -167.001 -40.5c-20.667 0 -44.667 1 -72 3c-10 0.666992 -22.667 1.33398 -38 2.00098s-32.666 1 -51.999 1
l-71 -1c-12.667 -0.666992 -30.334 -1 -53.001 -1c-1.33301 0 -2 2 -2 6s0.666992 6 2 6c22.667 0 39.167 1.66699 49.5 5s17.5 9.83301 21.5 19.5s6 24.5 6 44.5v217h-56c-2.66699 0 -4 4.33301 -4 13s1.33301 13 4 13h56v220c0 20 -1.83301 34.667 -5.5 44
s-10.834 15.833 -21.501 19.5s-27 5.5 -49 5.5c-1.33301 0 -2 2 -2 6s0.666992 6 2 6l53 -1c29.333 -1.33301 52.666 -2 69.999 -2c26.667 0 53.667 1 81 3c33.333 1.33301 55.666 2 66.999 2c68 0 128.333 -13.333 181 -40zM430.504 49c35.667 22 63.5 54.501 83.5 97.501
s30 94.5 30 154.5c0 57.333 -9.5 109.166 -28.5 155.499s-45.833 83 -80.5 110s-75 40.5 -121 40.5c-28 0 -49.667 -1.66699 -65 -5s-26.5 -9.5 -33.5 -18.5s-10.5 -22.833 -10.5 -41.5v-218h136c2.66699 0 4 -4.33301 4 -13s-1.33301 -13 -4 -13h-136v-206
c0 -27.333 7 -46.833 21 -58.5s41.333 -17.5 82 -17.5c46 0 86.833 11 122.5 33z" />
    <glyph glyph-name="Ntilde" unicode="&#xd1;" horiz-adv-x="732" 
d="M257 697c-2 0 -3.83398 0.833008 -5.50098 2.5s-1.83398 3.16699 -0.500977 4.5c28.667 50 57.667 75 87 75c7.33301 0 23 -3.33301 47 -10c30.667 -9.33301 55.667 -14 75 -14c11.333 0 20.5 2 27.5 6s14.5 11 22.5 21h1c2 0 3.83301 -0.833008 5.5 -2.5
s1.83398 -3.16699 0.500977 -4.5c-17.333 -30 -31.666 -50 -42.999 -60s-24 -15 -38 -15c-10.667 0 -22.167 1.66699 -34.5 5s-20.166 5.33301 -23.499 6c-11.333 3.33301 -23 6.33301 -35 9s-23.333 4 -34 4c-11.333 0 -19.833 -1.5 -25.5 -4.5s-10.834 -7 -15.501 -12
l-10 -10.5h-1zM718.999 619c0 -4 -0.666992 -5.99902 -2 -5.99902c-26.667 0 -47.334 -9.5 -62.001 -28.5s-22 -46.167 -22 -81.5v-517c0 -2 -1.66699 -3.33301 -5 -4s-5.66602 -0.333984 -6.99902 0.999023l-469 545v-407c0 -35.333 7 -62.333 21 -81s34.333 -28 61 -28
c1.33301 0 2 -2 2 -6s-0.666992 -6 -2 -6c-18 -0 -31.667 0.333008 -41 1l-53 1l-59 -1c-10.667 -0.666992 -26 -1 -46 -1c-2 0 -3 2 -3 6s1 6 3 6c28.667 0 50.834 9.33301 66.501 28s23.5 45.667 23.5 81v438c-18.667 20 -35.5 34 -50.5 42s-30.5 12 -46.5 12
c-1.33301 0 -2 2 -2 6s0.666992 6 2 6l40 -1c8.66699 -0.666992 21 -1 37 -1l64 1c8 0.666992 17.667 1 29 1c5.33301 0 9.33301 -1.33301 12 -4s6.66699 -8 12 -16c11.333 -15.333 19.666 -26 24.999 -32l359 -424v354c0 35.333 -7 62.5 -21 81.5s-34 28.5 -60 28.5
c-1.33301 0 -2 2 -2 6s0.666992 6 2 6l41 -1c21.333 -1.33301 39 -2 53 -2c13.333 0 31.333 0.666992 54 2l44 1c1.33301 0 2 -2 2 -6z" />
    <glyph glyph-name="Ograve" unicode="&#xd2;" horiz-adv-x="766" 
d="M264 756c-6.66699 1.33301 -3.16992 5.33301 10.4971 12s29.334 12.667 47.001 18s28.167 6.66602 31.5 3.99902c20 -14.667 35 -26 45 -34c40.667 -30.667 71.667 -53 93 -67c1.33301 -0.666992 2 -2 2 -4s-0.666992 -3.66699 -2 -5
s-2.66602 -1.66602 -3.99902 -0.999023c-75.333 33.333 -149.666 59 -222.999 77zM200.497 31.5c-48.333 29 -85.666 68.335 -111.999 118.002s-39.5 103.834 -39.5 162.501c0 68.667 17.333 127.5 52 176.5s79.167 85.833 133.5 110.5s109.833 37 166.5 37
c63.333 0 119 -14.833 167 -44.5s84.833 -68.834 110.5 -117.501s38.5 -100.334 38.5 -155.001c0 -60.667 -16 -116.334 -48 -167.001s-74.833 -90.667 -128.5 -120s-111.834 -44 -174.501 -44c-62 0 -117.167 14.5 -165.5 43.5zM507.497 44.502
c31.667 21.667 56.6689 53.499 75.002 95.499s27.5 92 27.5 150c0 61.333 -10.167 116.333 -30.5 165s-49.333 86.667 -87 114s-81.834 41 -132.501 41c-64.667 0 -114.834 -23.167 -150.501 -69.5s-53.5 -110.5 -53.5 -192.5c0 -63.333 10.5 -120.666 31.5 -171.999
s50 -91.5 87 -120.5s78.833 -43.5 125.5 -43.5c40 0 75.833 10.833 107.5 32.5z" />
    <glyph glyph-name="Oacute" unicode="&#xd3;" horiz-adv-x="766" 
d="M288 678c-2.66699 0 -4.33398 1.49902 -5.00098 4.49902s0 5.16699 2 6.5c21.333 12.667 50.666 33.667 87.999 63l50 38c3.33301 2.66699 14 1.33398 32 -3.99902s33.833 -11.333 47.5 -18s16.834 -10.667 9.50098 -12c-41.333 -10 -79.166 -21.167 -113.499 -33.5
s-70.5 -26.833 -108.5 -43.5zM200.5 31.499c-48.333 29 -85.666 68.335 -111.999 118.002s-39.5 103.834 -39.5 162.501c0 68.667 17.333 127.5 52 176.5s79.167 85.833 133.5 110.5s109.833 37 166.5 37c63.333 0 119 -14.833 167 -44.5s84.833 -68.834 110.5 -117.501
s38.5 -100.334 38.5 -155.001c0 -60.667 -16 -116.334 -48 -167.001s-74.833 -90.667 -128.5 -120s-111.834 -44 -174.501 -44c-62 0 -117.167 14.5 -165.5 43.5zM507.5 44.501c31.667 21.667 56.6689 53.499 75.002 95.499s27.5 92 27.5 150
c0 61.333 -10.167 116.333 -30.5 165s-49.333 86.667 -87 114s-81.834 41 -132.501 41c-64.667 0 -114.834 -23.167 -150.501 -69.5s-53.5 -110.5 -53.5 -192.5c0 -63.333 10.5 -120.666 31.5 -171.999s50 -91.5 87 -120.5s78.833 -43.5 125.5 -43.5
c40 0 75.833 10.833 107.5 32.5z" />
    <glyph glyph-name="Ocircumflex" unicode="&#xd4;" horiz-adv-x="766" 
d="M376 809c3.33301 3.33301 7.33398 4.99902 12.001 4.99902c4 0 7.66699 -1.66699 11 -5l102 -110c0.666992 0 1 -0.666992 1 -2s-0.833008 -2.66602 -2.5 -3.99902s-2.83398 -1.66602 -3.50098 -0.999023l-108 45l-109 -45c-1.33301 -0.666992 -3 0.166016 -5 2.49902
s-2.33301 3.83301 -1 4.5zM200.501 31.499c-48.333 29 -85.666 68.335 -111.999 118.002s-39.5 103.834 -39.5 162.501c0 68.667 17.333 127.5 52 176.5s79.167 85.833 133.5 110.5s109.833 37 166.5 37c63.333 0 119 -14.833 167 -44.5s84.833 -68.834 110.5 -117.501
s38.5 -100.334 38.5 -155.001c0 -60.667 -16 -116.334 -48 -167.001s-74.833 -90.667 -128.5 -120s-111.834 -44 -174.501 -44c-62 0 -117.167 14.5 -165.5 43.5zM507.501 44.501c31.667 21.667 56.6689 53.499 75.002 95.499s27.5 92 27.5 150
c0 61.333 -10.167 116.333 -30.5 165s-49.333 86.667 -87 114s-81.834 41 -132.501 41c-64.667 0 -114.834 -23.167 -150.501 -69.5s-53.5 -110.5 -53.5 -192.5c0 -63.333 10.5 -120.666 31.5 -171.999s50 -91.5 87 -120.5s78.833 -43.5 125.5 -43.5
c40 0 75.833 10.833 107.5 32.5z" />
    <glyph glyph-name="Otilde" unicode="&#xd5;" horiz-adv-x="766" 
d="M494.5 761c7 4 14.499 11 22.499 21h1c2 0 3.83301 -0.833008 5.5 -2.5s1.83398 -3.16699 0.500977 -4.5c-17.333 -30 -31.666 -50 -42.999 -60s-24 -15 -38 -15c-10.667 0 -22.167 1.66699 -34.5 5s-20.166 5.33301 -23.499 6c-11.333 3.33301 -23 6.33301 -35 9
s-23.333 4 -34 4c-11.333 0 -19.833 -1.5 -25.5 -4.5s-10.834 -7 -15.501 -12l-10 -10.5h-1c-2 0 -3.83301 0.833008 -5.5 2.5s-1.83398 3.16699 -0.500977 4.5c28.667 50 57.667 75 87 75c7.33301 0 23 -3.33301 47 -10c30.667 -9.33301 55.667 -14 75 -14
c11.333 0 20.5 2 27.5 6zM200.499 31.5c-48.333 29 -85.666 68.335 -111.999 118.002s-39.5 103.834 -39.5 162.501c0 68.667 17.333 127.5 52 176.5s79.167 85.833 133.5 110.5s109.833 37 166.5 37c63.333 0 119 -14.833 167 -44.5s84.833 -68.834 110.5 -117.501
s38.5 -100.334 38.5 -155.001c0 -60.667 -16 -116.334 -48 -167.001s-74.833 -90.667 -128.5 -120s-111.834 -44 -174.501 -44c-62 0 -117.167 14.5 -165.5 43.5zM507.499 44.502c31.667 21.667 56.6689 53.499 75.002 95.499s27.5 92 27.5 150
c0 61.333 -10.167 116.333 -30.5 165s-49.333 86.667 -87 114s-81.834 41 -132.501 41c-64.667 0 -114.834 -23.167 -150.501 -69.5s-53.5 -110.5 -53.5 -192.5c0 -63.333 10.5 -120.666 31.5 -171.999s50 -91.5 87 -120.5s78.833 -43.5 125.5 -43.5
c40 0 75.833 10.833 107.5 32.5z" />
    <glyph glyph-name="Odieresis" unicode="&#xd6;" horiz-adv-x="766" 
d="M263.5 721c-9 8.66699 -13.5 21 -13.5 37c0 15.333 4.5 27.166 13.5 35.499s21.5 12.5 37.5 12.5c15.333 0 27.166 -4.16699 35.499 -12.5s12.5 -20.166 12.5 -35.499c0 -16 -4.16699 -28.333 -12.5 -37s-20.166 -13 -35.499 -13c-16 0 -28.5 4.33301 -37.5 13z
M438.5 721c-9 8.66699 -13.5 20.998 -13.5 36.998c0 14.667 4.5 26.334 13.5 35.001s21.167 13 36.5 13s27.333 -4.16699 36 -12.5s13 -20.166 13 -35.499c0 -16 -4.33301 -28.333 -13 -37s-20.667 -13 -36 -13s-27.5 4.33301 -36.5 13zM200.5 31.498
c-48.333 29 -85.666 68.335 -111.999 118.002s-39.5 103.834 -39.5 162.501c0 68.667 17.333 127.5 52 176.5s79.167 85.833 133.5 110.5s109.833 37 166.5 37c63.333 0 119 -14.833 167 -44.5s84.833 -68.834 110.5 -117.501s38.5 -100.334 38.5 -155.001
c0 -60.667 -16 -116.334 -48 -167.001s-74.833 -90.667 -128.5 -120s-111.834 -44 -174.501 -44c-62 0 -117.167 14.5 -165.5 43.5zM507.5 44.5c31.667 21.667 56.6689 53.499 75.002 95.499s27.5 92 27.5 150c0 61.333 -10.167 116.333 -30.5 165s-49.333 86.667 -87 114
s-81.834 41 -132.501 41c-64.667 0 -114.834 -23.167 -150.501 -69.5s-53.5 -110.5 -53.5 -192.5c0 -63.333 10.5 -120.666 31.5 -171.999s50 -91.5 87 -120.5s78.833 -43.5 125.5 -43.5c40 0 75.833 10.833 107.5 32.5z" />
    <glyph glyph-name="multiply" unicode="&#xd7;" horiz-adv-x="393" 
d="M316.5 104c-11 -11.333 -17.5 -15.667 -19.5 -13l-100 100l-100 -101c-2.66699 -2 -9.5 2.33301 -20.5 13s-15.833 17 -14.5 19l102 102l-100 100c-2 2 2.16699 8.5 12.5 19.5s16.5 15.833 18.5 14.5l102 -101l99 99c2.66699 2 9.5 -2.5 20.5 -13.5
s15.167 -17.167 12.5 -18.5l-100 -100l100 -100c2.66699 -2 -1.5 -8.66699 -12.5 -20z" />
    <glyph glyph-name="Oslash" unicode="&#xd8;" horiz-adv-x="783" 
d="M694 439c15.333 -38.667 23.001 -78.666 23.001 -119.999c0 -60.667 -16 -116.334 -48 -167.001s-74.833 -90.667 -128.5 -120s-111.834 -44 -174.501 -44c-82 0 -151.667 25 -209 75l-70 -71l-1 -1c-3.33301 0 -7.5 2.66699 -12.5 8s-6.5 9 -4.5 11l70 71
c-29.333 29.333 -51.666 64 -66.999 104s-23 82.333 -23 127c0 68.667 17.333 127.5 52 176.5s79.167 85.833 133.5 110.5s109.833 37 166.5 37c41.333 0 79.833 -6.66699 115.5 -20s67.167 -32 94.5 -56l71 72h1c3.33301 0 7.66602 -2.33301 12.999 -7s7 -8 5 -10l-72 -73
c28 -30 49.667 -64.333 65 -103zM202.001 145.001l352.001 358c-22 34 -49.5 60.333 -82.5 79s-70.167 28 -111.5 28c-64.667 0 -114.834 -23.167 -150.501 -69.5s-53.5 -110.5 -53.5 -192.5c0 -77.333 15.333 -145 46 -203zM507.502 44.501
c31.667 21.667 56.667 53.5 75 95.5s27.5 92 27.5 150c0 72.667 -14 136 -42 190l-353 -358c22 -34.667 49 -61.667 81 -81s66.667 -29 104 -29c40 0 75.833 10.833 107.5 32.5z" />
    <glyph glyph-name="Ugrave" unicode="&#xd9;" horiz-adv-x="701" 
d="M250 756c-6.66699 1.33301 -3.16992 5.33301 10.4971 12s29.334 12.667 47.001 18s28.167 6.66602 31.5 3.99902c20 -14.667 35 -26 45 -34c40.667 -30.667 71.667 -53 93 -67c1.33301 -0.666992 2 -2 2 -4s-0.666992 -3.66699 -2 -5
s-2.66602 -1.66602 -3.99902 -0.999023c-75.333 33.333 -149.666 59 -222.999 77zM547.497 584c-15.667 19.333 -38.167 29 -67.5 29c-1.33301 0 -2 2 -2 6s0.666992 6 2 6l46 -1c25.333 -1.33301 45.333 -2 60 -2c12 0 30 0.666992 54 2l44 1c1.33301 0 2 -2 2 -6
s-0.666992 -6 -2 -6c-26 0 -46.167 -9.66699 -60.5 -29s-21.5 -46.333 -21.5 -81v-280c0 -48 -10.167 -89.833 -30.5 -125.5s-49 -63.167 -86 -82.5s-79.833 -29 -128.5 -29s-92 9.5 -130 28.5s-67.5 46.333 -88.5 82s-31.5 77.5 -31.5 125.5v322c0 20 -2 34.667 -6 44
s-11.167 15.833 -21.5 19.5s-26.5 5.5 -48.5 5.5c-2 0 -3 2 -3 6s1 6 3 6l52 -1c29.333 -1.33301 53 -2 71 -2c20 0 44.667 0.666992 74 2l50 1c2 0 3 -2 3 -6s-1 -6 -3 -6c-22 0 -38.167 -2 -48.5 -6s-17.5 -10.833 -21.5 -20.5s-6 -24.5 -6 -44.5v-285
c0 -79.333 16.5 -138.5 49.5 -177.5s79.167 -58.5 138.5 -58.5c56.667 0 101 17.5 133 52.5s48 84.5 48 148.5v281c0 34.667 -7.83301 61.667 -23.5 81z" />
    <glyph glyph-name="Uacute" unicode="&#xda;" horiz-adv-x="701" 
d="M274 678c-2.66699 0 -4.33398 1.49902 -5.00098 4.49902s0 5.16699 2 6.5c21.333 12.667 50.666 33.667 87.999 63l50 38c3.33301 2.66699 14 1.33398 32 -3.99902s33.833 -11.333 47.5 -18s16.834 -10.667 9.50098 -12c-41.333 -10 -79.166 -21.167 -113.499 -33.5
s-70.5 -26.833 -108.5 -43.5zM547.5 583.999c-15.667 19.333 -38.167 29 -67.5 29c-1.33301 0 -2 2 -2 6s0.666992 6 2 6l46 -1c25.333 -1.33301 45.333 -2 60 -2c12 0 30 0.666992 54 2l44 1c1.33301 0 2 -2 2 -6s-0.666992 -6 -2 -6c-26 0 -46.167 -9.66699 -60.5 -29
s-21.5 -46.333 -21.5 -81v-280c0 -48 -10.167 -89.833 -30.5 -125.5s-49 -63.167 -86 -82.5s-79.833 -29 -128.5 -29s-92 9.5 -130 28.5s-67.5 46.333 -88.5 82s-31.5 77.5 -31.5 125.5v322c0 20 -2 34.667 -6 44s-11.167 15.833 -21.5 19.5s-26.5 5.5 -48.5 5.5
c-2 0 -3 2 -3 6s1 6 3 6l52 -1c29.333 -1.33301 53 -2 71 -2c20 0 44.667 0.666992 74 2l50 1c2 0 3 -2 3 -6s-1 -6 -3 -6c-22 0 -38.167 -2 -48.5 -6s-17.5 -10.833 -21.5 -20.5s-6 -24.5 -6 -44.5v-285c0 -79.333 16.5 -138.5 49.5 -177.5s79.167 -58.5 138.5 -58.5
c56.667 0 101 17.5 133 52.5s48 84.5 48 148.5v281c0 34.667 -7.83301 61.667 -23.5 81z" />
    <glyph glyph-name="Ucircumflex" unicode="&#xdb;" horiz-adv-x="701" 
d="M362 809c3.33301 3.33301 7.33398 4.99902 12.001 4.99902c4 0 7.66699 -1.66699 11 -5l102 -110c0.666992 0 1 -0.666992 1 -2s-0.833008 -2.66602 -2.5 -3.99902s-2.83398 -1.66602 -3.50098 -0.999023l-108 45l-109 -45c-1.33301 -0.666992 -3 0.166016 -5 2.49902
s-2.33301 3.83301 -1 4.5zM547.501 583.999c-15.667 19.333 -38.167 29 -67.5 29c-1.33301 0 -2 2 -2 6s0.666992 6 2 6l46 -1c25.333 -1.33301 45.333 -2 60 -2c12 0 30 0.666992 54 2l44 1c1.33301 0 2 -2 2 -6s-0.666992 -6 -2 -6c-26 0 -46.167 -9.66699 -60.5 -29
s-21.5 -46.333 -21.5 -81v-280c0 -48 -10.167 -89.833 -30.5 -125.5s-49 -63.167 -86 -82.5s-79.833 -29 -128.5 -29s-92 9.5 -130 28.5s-67.5 46.333 -88.5 82s-31.5 77.5 -31.5 125.5v322c0 20 -2 34.667 -6 44s-11.167 15.833 -21.5 19.5s-26.5 5.5 -48.5 5.5
c-2 0 -3 2 -3 6s1 6 3 6l52 -1c29.333 -1.33301 53 -2 71 -2c20 0 44.667 0.666992 74 2l50 1c2 0 3 -2 3 -6s-1 -6 -3 -6c-22 0 -38.167 -2 -48.5 -6s-17.5 -10.833 -21.5 -20.5s-6 -24.5 -6 -44.5v-285c0 -79.333 16.5 -138.5 49.5 -177.5s79.167 -58.5 138.5 -58.5
c56.667 0 101 17.5 133 52.5s48 84.5 48 148.5v281c0 34.667 -7.83301 61.667 -23.5 81z" />
    <glyph glyph-name="Udieresis" unicode="&#xdc;" horiz-adv-x="701" 
d="M249.5 721c-9 8.66699 -13.5 21 -13.5 37c0 15.333 4.5 27.166 13.5 35.499s21.5 12.5 37.5 12.5c15.333 0 27.166 -4.16699 35.499 -12.5s12.5 -20.166 12.5 -35.499c0 -16 -4.16699 -28.333 -12.5 -37s-20.166 -13 -35.499 -13c-16 0 -28.5 4.33301 -37.5 13z
M424.5 721c-9 8.66699 -13.5 20.998 -13.5 36.998c0 14.667 4.5 26.334 13.5 35.001s21.167 13 36.5 13s27.333 -4.16699 36 -12.5s13 -20.166 13 -35.499c0 -16 -4.33301 -28.333 -13 -37s-20.667 -13 -36 -13s-27.5 4.33301 -36.5 13zM547.5 583.998
c-15.667 19.333 -38.167 29 -67.5 29c-1.33301 0 -2 2 -2 6s0.666992 6 2 6l46 -1c25.333 -1.33301 45.333 -2 60 -2c12 0 30 0.666992 54 2l44 1c1.33301 0 2 -2 2 -6s-0.666992 -6 -2 -6c-26 0 -46.167 -9.66699 -60.5 -29s-21.5 -46.333 -21.5 -81v-280
c0 -48 -10.167 -89.833 -30.5 -125.5s-49 -63.167 -86 -82.5s-79.833 -29 -128.5 -29s-92 9.5 -130 28.5s-67.5 46.333 -88.5 82s-31.5 77.5 -31.5 125.5v322c0 20 -2 34.667 -6 44s-11.167 15.833 -21.5 19.5s-26.5 5.5 -48.5 5.5c-2 0 -3 2 -3 6s1 6 3 6l52 -1
c29.333 -1.33301 53 -2 71 -2c20 0 44.667 0.666992 74 2l50 1c2 0 3 -2 3 -6s-1 -6 -3 -6c-22 0 -38.167 -2 -48.5 -6s-17.5 -10.833 -21.5 -20.5s-6 -24.5 -6 -44.5v-285c0 -79.333 16.5 -138.5 49.5 -177.5s79.167 -58.5 138.5 -58.5c56.667 0 101 17.5 133 52.5
s48 84.5 48 148.5v281c0 34.667 -7.83301 61.667 -23.5 81z" />
    <glyph glyph-name="Yacute" unicode="&#xdd;" horiz-adv-x="616" 
d="M223 678c-2.66699 0 -4.33398 1.49902 -5.00098 4.49902s0 5.16699 2 6.5c21.333 12.667 50.666 33.667 87.999 63l50 38c3.33301 2.66699 14 1.33398 32 -3.99902s33.833 -11.333 47.5 -18s16.834 -10.667 9.50098 -12c-41.333 -10 -79.166 -21.167 -113.499 -33.5
s-70.5 -26.833 -108.5 -43.5zM623 618.999c0 -4 -0.668945 -6.00098 -2.00195 -6.00098c-22 0 -47 -11.5 -75 -34.5s-53 -52.5 -75 -88.5l-114 -185v-224c0 -20.667 1.83301 -35.667 5.5 -45s10.667 -15.666 21 -18.999s26.833 -5 49.5 -5c2 0 3 -2 3 -6s-1 -6 -3 -6
c-22 0 -39 0.333008 -51 1l-73 1l-72 -1c-13.333 -0.666992 -31 -1 -53 -1c-1.33301 0 -2 2 -2 6s0.666992 6 2 6c22.667 0 39.167 1.66699 49.5 5s17.5 9.83301 21.5 19.5s6 24.5 6 44.5v206l-152 232c-22.667 35.333 -42.167 59.833 -58.5 73.5s-32.166 20.5 -47.499 20.5
c-2 0 -3 2 -3 6s1 6 3 6l33 -1c14.667 -1.33301 25.334 -2 32.001 -2c22.667 0 54.667 0.666992 96 2l62 1c1.33301 0 2 -2 2 -6s-0.666992 -6 -2 -6c-27.333 0 -41 -9.33301 -41 -28c0 -9.33301 4 -20 12 -32l145 -223l102 167c16.667 27.333 25 51.333 25 72
c0 29.333 -18.333 44 -55 44c-1.33301 0 -2 2 -2 6s0.666992 6 2 6l52 -1c28 -1.33301 53.667 -2 77 -2c11.333 0 25 0.666992 41 2l37 1c1.33301 0 2 -2 2 -6z" />
    <glyph glyph-name="Thorn" unicode="&#xde;" horiz-adv-x="545" 
d="M372 190.5c22.667 29 34.002 70.835 34.002 125.502c0 53.333 -12.167 94 -36.5 122s-57.166 42 -98.499 42c-23.333 0 -45.333 -2 -66 -6v-389c0 -21.333 2.5 -36.833 7.5 -46.5s14.667 -16.5 29 -20.5s36.833 -6 67.5 -6c1.33301 0 2 -2 2 -6s-0.666992 -6 -2 -6
c-28 0 -49.667 0.333008 -65 1l-86 1l-67 -1c-12 -0.666992 -28.333 -1 -49 -1c-2 0 -3 2 -3 6s1 6 3 6c20 0 34.667 1.66699 44 5s15.666 9.83301 18.999 19.5s5 24.5 5 44.5v463c0 20 -1.66699 34.667 -5 44s-9.83301 15.833 -19.5 19.5s-24.167 5.5 -43.5 5.5
c-2 0 -3 2 -3 6s1 6 3 6l49 -1c28 -1.33301 50.333 -2 67 -2c21.333 0 50 0.666992 86 2l65 1c1.33301 0 2 -2 2 -6s-0.666992 -6 -2 -6c-30.667 0 -53.167 -2 -67.5 -6s-24 -11 -29 -21s-7.5 -25.667 -7.5 -47v-46c33.333 4 63.666 6 90.999 6
c65.333 0 117.666 -13.333 156.999 -40s59 -69.334 59 -128.001c0 -43.333 -10.667 -79.833 -32 -109.5s-48.333 -51.834 -81 -66.501s-66 -22 -100 -22c-16 0 -32.333 1.66699 -49 5c-2 0 -3 1.66699 -3 5c0 2 0.5 4 1.5 6s2.16699 2.66699 3.5 2c16 -2.66699 28 -4 36 -4
c33.333 0 61.333 14.5 84 43.5z" />
    <glyph glyph-name="germandbls" unicode="&#xdf;" horiz-adv-x="541" 
d="M430 30.5c9.33301 11 14.001 26.832 14.001 47.499c0 27.333 -8.16699 53 -24.5 77s-44.5 50.667 -84.5 80c-4 3.33301 -6 6.33301 -6 9c0 2 1 4.33301 3 7l76 118c-58 55.333 -109.333 83 -154 83c-32 0 -55.5 -10.833 -70.5 -32.5s-22.5 -59.834 -22.5 -114.501v-224
c0 -20.667 1 -35.667 3 -45s6.16699 -15.666 12.5 -18.999s16.5 -5 30.5 -5c1.33301 0 2 -2 2 -6s-0.666992 -6 -2 -6l-92 1l-108 -1c-2 0 -3 2 -3 6s1 6 3 6c19.333 0 33.666 1.83301 42.999 5.5s15.833 10.167 19.5 19.5s5.5 24 5.5 44v203c0 32 8.16699 63.167 24.5 93.5
s40.333 55 72 74s69.5 28.5 113.5 28.5c42.667 0 88.334 -7.66699 137.001 -23c11.333 -4.66699 20.333 -7 27 -7c5.33301 0 10 1.5 14 4.5s10 8.5 18 16.5l4 2c2.66699 0 4.66699 -0.833008 6 -2.5s1.66602 -3.5 0.999023 -5.5l-106 -162
c48.667 -34.667 83.167 -65.667 103.5 -93s30.5 -55.666 30.5 -84.999c0 -22 -6.5 -43.333 -19.5 -64s-32 -37.5 -57 -50.5s-54.5 -19.5 -88.5 -19.5c-16.667 0 -31.667 1.16699 -45 3.5s-28 6.5 -44 12.5c-3.33301 1.33301 -5.66602 3.33301 -6.99902 6s-2.33301 7 -3 13
l-4 106v1c0 2.66699 1.66699 4.16699 5 4.5s5.66602 -0.5 6.99902 -2.5c18 -36 37.833 -65.167 59.5 -87.5s43.834 -33.5 66.501 -33.5c17.333 0 30.666 5.5 39.999 16.5z" />
    <glyph glyph-name="agrave" unicode="&#xe0;" horiz-adv-x="557" 
d="M159.5 611c13.667 6.66699 29.3311 12.667 46.998 18s28.167 6.66602 31.5 3.99902c20 -14.667 35 -26 45 -34c40.667 -30.667 71.667 -53 93 -67c1.33301 -0.666992 2 -2 2 -4s-0.666992 -3.66699 -2 -5s-2.66602 -1.66602 -3.99902 -0.999023
c-75.333 33.333 -149.666 59 -222.999 77c-6.66699 1.33301 -3.16699 5.33301 10.5 12zM560.997 6c0 -4 -1.33594 -6 -4.00293 -6c-13.333 0 -34 0.666992 -62 2s-48 2 -60 2c-10.667 0 -27.334 -0.666992 -50.001 -2c-21.333 -1.33301 -36.333 -2 -45 -2
c-2.66699 0 -4 2 -4 6s1.33301 6 4 6c16 0 27.5 2 34.5 6s10.5 10.333 10.5 19c0 9.33301 -5 25 -15 47l-63 135h-124l-40 -96c-11.333 -28 -17 -49.333 -17 -64c0 -16.667 5.83301 -28.667 17.5 -36s29.5 -11 53.5 -11c3.33301 0 5 -2 5 -6s-1.66699 -6 -5 -6
c-9.33301 0 -22.666 0.666992 -39.999 2c-18.667 1.33301 -36 2 -52 2c-16.667 0 -36.334 -0.666992 -59.001 -2c-20 -1.33301 -36.333 -2 -49 -2c-3.33301 0 -5 2 -5 6s1.66699 6 5 6c20.667 0 37.334 3 50.001 9s24.334 17.167 35.001 33.5s23.334 42.166 38.001 77.499
l148 351c1.33301 2.66699 3.33301 4 6 4s4.33398 -1.33301 5.00098 -4l161 -346c16.667 -36 30.5 -62.667 41.5 -80s22 -29.166 33 -35.499s25.167 -9.5 42.5 -9.5c2.66699 0 4 -2 4 -6zM191.994 242h104l-55 118z" />
    <glyph glyph-name="aacute" unicode="&#xe1;" horiz-adv-x="557" 
d="M178 521c-2.66699 0 -4.33398 1.49902 -5.00098 4.49902s0 5.16699 2 6.5c21.333 12.667 50.666 33.667 87.999 63l50 38c3.33301 2.66699 14 1.33398 32 -3.99902s33.833 -11.333 47.5 -18s16.834 -10.667 9.50098 -12c-41.333 -10 -79.166 -21.167 -113.499 -33.5
s-70.5 -26.833 -108.5 -43.5zM561 5.99902c0 -4 -1.33594 -6 -4.00293 -6c-13.333 0 -34 0.666992 -62 2s-48 2 -60 2c-10.667 0 -27.334 -0.666992 -50.001 -2c-21.333 -1.33301 -36.333 -2 -45 -2c-2.66699 0 -4 2 -4 6s1.33301 6 4 6c16 0 27.5 2 34.5 6
s10.5 10.333 10.5 19c0 9.33301 -5 25 -15 47l-63 135h-124l-40 -96c-11.333 -28 -17 -49.333 -17 -64c0 -16.667 5.83301 -28.667 17.5 -36s29.5 -11 53.5 -11c3.33301 0 5 -2 5 -6s-1.66699 -6 -5 -6c-9.33301 0 -22.666 0.666992 -39.999 2c-18.667 1.33301 -36 2 -52 2
c-16.667 0 -36.334 -0.666992 -59.001 -2c-20 -1.33301 -36.333 -2 -49 -2c-3.33301 0 -5 2 -5 6s1.66699 6 5 6c20.667 0 37.334 3 50.001 9s24.334 17.167 35.001 33.5s23.334 42.166 38.001 77.499l148 351c1.33301 2.66699 3.33301 4 6 4s4.33398 -1.33301 5.00098 -4
l161 -346c16.667 -36 30.5 -62.667 41.5 -80s22 -29.166 33 -35.499s25.167 -9.5 42.5 -9.5c2.66699 0 4 -2 4 -6zM191.997 241.999h104l-55 118z" />
    <glyph glyph-name="acircumflex" unicode="&#xe2;" horiz-adv-x="557" 
d="M159 528.5c-2 2.33301 -2.33203 3.83203 -0.999023 4.49902l103 110c3.33301 3.33301 7.33301 5 12 5c4 0 7.66699 -1.66699 11 -5l102 -110c0.666992 0 1 -0.666992 1 -2s-0.833008 -2.66602 -2.5 -3.99902s-2.83398 -1.66602 -3.50098 -0.999023l-108 45l-109 -45
c-1.33301 -0.666992 -3 0.166016 -5 2.49902zM561.001 5.99902c0 -4 -1.33594 -6 -4.00293 -6c-13.333 0 -34 0.666992 -62 2s-48 2 -60 2c-10.667 0 -27.334 -0.666992 -50.001 -2c-21.333 -1.33301 -36.333 -2 -45 -2c-2.66699 0 -4 2 -4 6s1.33301 6 4 6
c16 0 27.5 2 34.5 6s10.5 10.333 10.5 19c0 9.33301 -5 25 -15 47l-63 135h-124l-40 -96c-11.333 -28 -17 -49.333 -17 -64c0 -16.667 5.83301 -28.667 17.5 -36s29.5 -11 53.5 -11c3.33301 0 5 -2 5 -6s-1.66699 -6 -5 -6c-9.33301 0 -22.666 0.666992 -39.999 2
c-18.667 1.33301 -36 2 -52 2c-16.667 0 -36.334 -0.666992 -59.001 -2c-20 -1.33301 -36.333 -2 -49 -2c-3.33301 0 -5 2 -5 6s1.66699 6 5 6c20.667 0 37.334 3 50.001 9s24.334 17.167 35.001 33.5s23.334 42.166 38.001 77.499l148 351c1.33301 2.66699 3.33301 4 6 4
s4.33398 -1.33301 5.00098 -4l161 -346c16.667 -36 30.5 -62.667 41.5 -80s22 -29.166 33 -35.499s25.167 -9.5 42.5 -9.5c2.66699 0 4 -2 4 -6zM191.998 241.999h104l-55 118z" />
    <glyph glyph-name="atilde" unicode="&#xe3;" horiz-adv-x="557" 
d="M145 540c-2 0 -3.83008 0.833984 -5.49707 2.50098s-1.83398 3.16699 -0.500977 4.5c12 19.333 26.167 36.666 42.5 51.999s33.833 23 52.5 23c12 0 29.667 -3.66699 53 -11c11.333 -3.33301 23.166 -6.33301 35.499 -9s23.5 -4 33.5 -4c11.333 0 20.333 2 27 6
s14.334 11 23.001 21h1c2 0 3.66699 -0.833008 5 -2.5s1.66602 -3.16699 0.999023 -4.5c-19.333 -29.333 -35.333 -49.166 -48 -59.499s-26.334 -15.5 -41.001 -15.5c-11.333 0 -23.5 1.66699 -36.5 5l-23.5 6c-27.333 8.66699 -50 13 -68 13
c-12.667 0 -21.667 -1.83301 -27 -5.5s-13 -10.834 -23 -21.501h-1zM561.003 6.00098c0 -4 -1.33594 -6 -4.00293 -6c-13.333 0 -34 0.666992 -62 2s-48 2 -60 2c-10.667 0 -27.334 -0.666992 -50.001 -2c-21.333 -1.33301 -36.333 -2 -45 -2c-2.66699 0 -4 2 -4 6
s1.33301 6 4 6c16 0 27.5 2 34.5 6s10.5 10.333 10.5 19c0 9.33301 -5 25 -15 47l-63 135h-124l-40 -96c-11.333 -28 -17 -49.333 -17 -64c0 -16.667 5.83301 -28.667 17.5 -36s29.5 -11 53.5 -11c3.33301 0 5 -2 5 -6s-1.66699 -6 -5 -6
c-9.33301 0 -22.666 0.666992 -39.999 2c-18.667 1.33301 -36 2 -52 2c-16.667 0 -36.334 -0.666992 -59.001 -2c-20 -1.33301 -36.333 -2 -49 -2c-3.33301 0 -5 2 -5 6s1.66699 6 5 6c20.667 0 37.334 3 50.001 9s24.334 17.167 35.001 33.5s23.334 42.166 38.001 77.499
l148 351c1.33301 2.66699 3.33301 4 6 4s4.33398 -1.33301 5.00098 -4l161 -346c16.667 -36 30.5 -62.667 41.5 -80s22 -29.166 33 -35.499s25.167 -9.5 42.5 -9.5c2.66699 0 4 -2 4 -6zM192 242.001h104l-55 118z" />
    <glyph glyph-name="adieresis" unicode="&#xe4;" horiz-adv-x="557" 
d="M148.5 564c-9 8.66699 -13.5 21 -13.5 37c0 15.333 4.5 27.166 13.5 35.499s21.5 12.5 37.5 12.5c15.333 0 27.166 -4.16699 35.499 -12.5s12.5 -20.166 12.5 -35.499c0 -16 -4.16699 -28.333 -12.5 -37s-20.166 -13 -35.499 -13c-16 0 -28.5 4.33301 -37.5 13z
M323.5 564c-9 8.66699 -13.5 20.998 -13.5 36.998c0 14.667 4.5 26.334 13.5 35.001s21.167 13 36.5 13s27.333 -4.16699 36 -12.5s13 -20.166 13 -35.499c0 -16 -4.33301 -28.333 -13 -37s-20.667 -13 -36 -13s-27.5 4.33301 -36.5 13zM561 5.99805
c0 -4 -1.33594 -6 -4.00293 -6c-13.333 0 -34 0.666992 -62 2s-48 2 -60 2c-10.667 0 -27.334 -0.666992 -50.001 -2c-21.333 -1.33301 -36.333 -2 -45 -2c-2.66699 0 -4 2 -4 6s1.33301 6 4 6c16 0 27.5 2 34.5 6s10.5 10.333 10.5 19c0 9.33301 -5 25 -15 47l-63 135h-124
l-40 -96c-11.333 -28 -17 -49.333 -17 -64c0 -16.667 5.83301 -28.667 17.5 -36s29.5 -11 53.5 -11c3.33301 0 5 -2 5 -6s-1.66699 -6 -5 -6c-9.33301 0 -22.666 0.666992 -39.999 2c-18.667 1.33301 -36 2 -52 2c-16.667 0 -36.334 -0.666992 -59.001 -2
c-20 -1.33301 -36.333 -2 -49 -2c-3.33301 0 -5 2 -5 6s1.66699 6 5 6c20.667 0 37.334 3 50.001 9s24.334 17.167 35.001 33.5s23.334 42.166 38.001 77.499l148 351c1.33301 2.66699 3.33301 4 6 4s4.33398 -1.33301 5.00098 -4l161 -346
c16.667 -36 30.5 -62.667 41.5 -80s22 -29.166 33 -35.499s25.167 -9.5 42.5 -9.5c2.66699 0 4 -2 4 -6zM191.997 241.998h104l-55 118z" />
    <glyph glyph-name="aring" unicode="&#xe5;" horiz-adv-x="557" 
d="M190.5 573.5c-18.333 15.667 -27.5 34.167 -27.5 55.5c0 24 11.333 43 34 57s48 21 76 21c27.333 0 50.833 -7.83301 70.5 -23.5s29.5 -34.5 29.5 -56.5c0 -23.333 -11.167 -42 -33.5 -56s-47.833 -21 -76.5 -21c-30 0 -54.167 7.83301 -72.5 23.5zM226 649
c0 -22 4.83301 -41.833 14.5 -59.5s22.5 -26.5 38.5 -26.5c10 0 17.333 3.66699 22 11s7 19 7 35c0 23.333 -5.33301 43.333 -16 60s-23.667 25 -39 25c-18 0 -27 -15 -27 -45zM561 6c0 -4 -1.33594 -6 -4.00293 -6c-13.333 0 -34 0.666992 -62 2s-48 2 -60 2
c-10.667 0 -27.334 -0.666992 -50.001 -2c-21.333 -1.33301 -36.333 -2 -45 -2c-2.66699 0 -4 2 -4 6s1.33301 6 4 6c16 0 27.5 2 34.5 6s10.5 10.333 10.5 19c0 9.33301 -5 25 -15 47l-63 135h-124l-40 -96c-11.333 -28 -17 -49.333 -17 -64
c0 -16.667 5.83301 -28.667 17.5 -36s29.5 -11 53.5 -11c3.33301 0 5 -2 5 -6s-1.66699 -6 -5 -6c-9.33301 0 -22.666 0.666992 -39.999 2c-18.667 1.33301 -36 2 -52 2c-16.667 0 -36.334 -0.666992 -59.001 -2c-20 -1.33301 -36.333 -2 -49 -2c-3.33301 0 -5 2 -5 6
s1.66699 6 5 6c20.667 0 37.334 3 50.001 9s24.334 17.167 35.001 33.5s23.334 42.166 38.001 77.499l148 351c1.33301 2.66699 3.33301 4 6 4s4.33398 -1.33301 5.00098 -4l161 -346c16.667 -36 30.5 -62.667 41.5 -80s22 -29.166 33 -35.499s25.167 -9.5 42.5 -9.5
c2.66699 0 4 -2 4 -6zM191.997 242h104l-55 118z" />
    <glyph glyph-name="ae" unicode="&#xe6;" horiz-adv-x="684" 
d="M640.5 136c3.66699 0 5.50293 -1.00098 5.50293 -3.00098c-4.66699 -36 -7 -75.333 -7 -118c0 -5.33301 -1.16699 -9.16602 -3.5 -11.499s-6.5 -3.5 -12.5 -3.5h-360c-1.33301 0 -2 2 -2 6s0.666992 6 2 6c17.333 0 30.166 1.83301 38.499 5.5s14.166 10.167 17.499 19.5
s5 24 5 44v146h-121l-76 -119c-24 -37.333 -36 -62 -36 -74c0 -8 4 -13.667 12 -17s21.667 -5 41 -5c2.66699 0 4 -2 4 -6s-1.33301 -6 -4 -6c-10 0 -23.667 0.666992 -41 2c-18.667 1.33301 -36 2 -52 2c-13.333 0 -29.333 -0.666992 -48 -2
c-17.333 -1.33301 -30.333 -2 -39 -2c-3.33301 0 -5 2 -5 6s1.66699 6 5 6c20 0 36.167 2.5 48.5 7.5s25 14.833 38 29.5s29.833 37.667 50.5 69l210 322c-5.33301 6 -13.166 10.167 -23.499 12.5s-24.833 3.5 -43.5 3.5c-2 0 -3 2 -3 6s1 6 3 6h362c6 0 9 -2.66699 9 -8
c0 -13.333 0.666992 -34 2 -62l1 -48c0 -2 -1.83301 -3 -5.5 -3s-5.83398 1 -6.50098 3c-23.333 70 -65.333 105 -126 105h-14c-18 0 -31 -1.83301 -39 -5.5s-13.333 -10.167 -16 -19.5s-4 -24 -4 -44v-137c62.667 0.666992 104.5 2.5 125.5 5.5s33.167 4.5 36.5 4.5
c4.66699 0 7 -7.66699 7 -23c0 -6 -0.666992 -11.5 -2 -16.5s-3 -7.5 -5 -7.5c-3.33301 0 -15.5 2.33301 -36.5 7s-62.833 7.33398 -125.5 8.00098v-142c0 -20 1.33301 -34.667 4 -44s8 -15.833 16 -19.5s21 -5.5 39 -5.5h22c31.333 0 60.166 10.667 86.499 32
s46.166 49.666 59.499 84.999c0.666992 2 2.83398 3 6.50098 3zM324.003 248.999v138c0 12 -0.666992 20.667 -2 26l-105 -164h107z" />
    <glyph glyph-name="ccedilla" unicode="&#xe7;" horiz-adv-x="533" 
d="M483 143c3.33301 -0.666992 5.00098 -1.99707 5.00098 -3.99707l-10 -106c-0.666992 -5.33301 -1.66699 -9 -3 -11s-5 -4.33301 -11 -7c-52 -18 -104 -27 -156 -27c-2.66699 -10 -4 -19.667 -4 -29c0 -12 3.16699 -22 9.5 -30s16.833 -16 31.5 -24
c17.333 -10.667 30.833 -21.834 40.5 -33.501s14.5 -26.5 14.5 -44.5c0 -26.667 -9.66699 -50.334 -29 -71.001s-48.333 -31 -87 -31c-47.333 0 -71 15 -71 45c0 9.33301 3.5 17.666 10.5 24.999s15.5 11 25.5 11c11.333 0 19.333 -2.5 24 -7.5s9 -12.167 13 -21.5
c4 -10 8.16699 -17.333 12.5 -22s11.833 -7 22.5 -7c17.333 0 26 9.33301 26 28c0 17.333 -6.16699 33 -18.5 47s-34.166 29.667 -65.499 47c-3.33301 1.33301 -5.83301 3 -7.5 5s-2.5 4.33301 -2.5 7c0 4 1.33301 9.66699 4 17c10.667 26 22 55.667 34 89
c-60.667 2 -110.334 15.833 -149.001 41.5s-66.667 57 -84 94s-26 74.5 -26 112.5c0 45.333 12.167 86.666 36.5 123.999s57.666 66.666 99.999 87.999s89.166 32 140.499 32c24.667 0 51.5 -2.66699 80.5 -8s52.833 -12.333 71.5 -21c4.66699 -2 7.66699 -4.16699 9 -6.5
s2 -5.83301 2 -10.5l7 -103c0 -2 -1.83301 -3.33301 -5.5 -4s-5.83398 0.333008 -6.50098 3c-20.667 44 -45.167 76.667 -73.5 98s-61.5 32 -99.5 32c-49.333 0 -88.166 -19.333 -116.499 -58s-42.5 -89 -42.5 -151c0 -41.333 6.5 -80.666 19.5 -117.999
s33.333 -67.666 61 -90.999s61.834 -35 102.501 -35c36.667 0 67.5 10.667 92.5 32s47.167 55 66.5 101c0.666992 2.66699 2.66699 3.66699 6 3z" />
    <glyph glyph-name="egrave" unicode="&#xe8;" horiz-adv-x="464" 
d="M140.5 611c13.667 6.66699 29.3311 12.667 46.998 18s28.167 6.66602 31.5 3.99902c20 -14.667 35 -26 45 -34c40.667 -30.667 71.667 -53 93 -67c1.33301 -0.666992 2 -2 2 -4s-0.666992 -3.66699 -2 -5s-2.66602 -1.66602 -3.99902 -0.999023
c-75.333 33.333 -149.666 59 -222.999 77c-6.66699 1.33301 -3.16699 5.33301 10.5 12zM420.997 136c3.33301 0 5.00098 -1 5.00098 -3c-4.66699 -48 -7 -87.333 -7 -118c0 -5.33301 -1 -9.16602 -3 -11.499s-6 -3.5 -12 -3.5h-372c-1.33301 0 -2 2 -2 6s0.666992 6 2 6
c20 0 34.667 1.66699 44 5s15.666 9.83301 18.999 19.5s5 24.5 5 44.5v306c0 20 -1.66699 34.667 -5 44s-9.66602 15.833 -18.999 19.5s-24 5.5 -44 5.5c-1.33301 0 -2 2 -2 6s0.666992 6 2 6h354c6.66699 0 10 -2.66699 10 -8l1 -62c0.666992 -12.667 1 -28.667 1 -48
c0 -2 -1.83301 -3 -5.5 -3s-5.83398 1 -6.50098 3c-8.66699 30 -25 55 -49 75s-49.667 30 -77 30h-14c-17.333 0 -30.166 -1.83301 -38.499 -5.5s-14 -10.167 -17 -19.5s-4.5 -24 -4.5 -44v-136c55.333 1.33301 95 3.5 119 6.5s37.667 4.5 41 4.5c2 0 3.5 -2.33301 4.5 -7
s1.5 -9.66699 1.5 -15c0 -6 -0.5 -11.667 -1.5 -17s-2.5 -8 -4.5 -8c-3.33301 0 -17 1.83301 -41 5.5s-63.667 6.16699 -119 7.5v-142c0 -19.333 1.5 -33.833 4.5 -43.5s8.66699 -16.334 17 -20.001s21.166 -5.5 38.499 -5.5h23c30 0 58.667 11 86 33s47.333 50 60 84
c0.666992 2 2.66699 3 6 3z" />
    <glyph glyph-name="eacute" unicode="&#xe9;" horiz-adv-x="464" 
d="M159 521c-2.66699 0 -4.33398 1.49902 -5.00098 4.49902s0 5.16699 2 6.5c21.333 12.667 50.666 33.667 87.999 63l50 38c3.33301 2.66699 14 1.33398 32 -3.99902s33.833 -11.333 47.5 -18s16.834 -10.667 9.50098 -12c-41.333 -10 -79.166 -21.167 -113.499 -33.5
s-70.5 -26.833 -108.5 -43.5zM421 135.999c3.33301 0 5.00098 -1 5.00098 -3c-4.66699 -48 -7 -87.333 -7 -118c0 -5.33301 -1 -9.16602 -3 -11.499s-6 -3.5 -12 -3.5h-372c-1.33301 0 -2 2 -2 6s0.666992 6 2 6c20 0 34.667 1.66699 44 5s15.666 9.83301 18.999 19.5
s5 24.5 5 44.5v306c0 20 -1.66699 34.667 -5 44s-9.66602 15.833 -18.999 19.5s-24 5.5 -44 5.5c-1.33301 0 -2 2 -2 6s0.666992 6 2 6h354c6.66699 0 10 -2.66699 10 -8l1 -62c0.666992 -12.667 1 -28.667 1 -48c0 -2 -1.83301 -3 -5.5 -3s-5.83398 1 -6.50098 3
c-8.66699 30 -25 55 -49 75s-49.667 30 -77 30h-14c-17.333 0 -30.166 -1.83301 -38.499 -5.5s-14 -10.167 -17 -19.5s-4.5 -24 -4.5 -44v-136c55.333 1.33301 95 3.5 119 6.5s37.667 4.5 41 4.5c2 0 3.5 -2.33301 4.5 -7s1.5 -9.66699 1.5 -15c0 -6 -0.5 -11.667 -1.5 -17
s-2.5 -8 -4.5 -8c-3.33301 0 -17 1.83301 -41 5.5s-63.667 6.16699 -119 7.5v-142c0 -19.333 1.5 -33.833 4.5 -43.5s8.66699 -16.334 17 -20.001s21.166 -5.5 38.499 -5.5h23c30 0 58.667 11 86 33s47.333 50 60 84c0.666992 2 2.66699 3 6 3z" />
    <glyph glyph-name="ecircumflex" unicode="&#xea;" horiz-adv-x="464" 
d="M140 528.5c-2 2.33301 -2.33203 3.83203 -0.999023 4.49902l103 110c3.33301 3.33301 7.33301 5 12 5c4 0 7.66699 -1.66699 11 -5l102 -110c0.666992 0 1 -0.666992 1 -2s-0.833008 -2.66602 -2.5 -3.99902s-2.83398 -1.66602 -3.50098 -0.999023l-108 45l-109 -45
c-1.33301 -0.666992 -3 0.166016 -5 2.49902zM421.001 135.999c3.33301 0 5.00098 -1 5.00098 -3c-4.66699 -48 -7 -87.333 -7 -118c0 -5.33301 -1 -9.16602 -3 -11.499s-6 -3.5 -12 -3.5h-372c-1.33301 0 -2 2 -2 6s0.666992 6 2 6c20 0 34.667 1.66699 44 5
s15.666 9.83301 18.999 19.5s5 24.5 5 44.5v306c0 20 -1.66699 34.667 -5 44s-9.66602 15.833 -18.999 19.5s-24 5.5 -44 5.5c-1.33301 0 -2 2 -2 6s0.666992 6 2 6h354c6.66699 0 10 -2.66699 10 -8l1 -62c0.666992 -12.667 1 -28.667 1 -48c0 -2 -1.83301 -3 -5.5 -3
s-5.83398 1 -6.50098 3c-8.66699 30 -25 55 -49 75s-49.667 30 -77 30h-14c-17.333 0 -30.166 -1.83301 -38.499 -5.5s-14 -10.167 -17 -19.5s-4.5 -24 -4.5 -44v-136c55.333 1.33301 95 3.5 119 6.5s37.667 4.5 41 4.5c2 0 3.5 -2.33301 4.5 -7s1.5 -9.66699 1.5 -15
c0 -6 -0.5 -11.667 -1.5 -17s-2.5 -8 -4.5 -8c-3.33301 0 -17 1.83301 -41 5.5s-63.667 6.16699 -119 7.5v-142c0 -19.333 1.5 -33.833 4.5 -43.5s8.66699 -16.334 17 -20.001s21.166 -5.5 38.499 -5.5h23c30 0 58.667 11 86 33s47.333 50 60 84c0.666992 2 2.66699 3 6 3z
" />
    <glyph glyph-name="edieresis" unicode="&#xeb;" horiz-adv-x="464" 
d="M129.5 564c-9 8.66699 -13.5 21 -13.5 37c0 15.333 4.5 27.166 13.5 35.499s21.5 12.5 37.5 12.5c15.333 0 27.166 -4.16699 35.499 -12.5s12.5 -20.166 12.5 -35.499c0 -16 -4.16699 -28.333 -12.5 -37s-20.166 -13 -35.499 -13c-16 0 -28.5 4.33301 -37.5 13z
M304.5 564c-9 8.66699 -13.5 20.998 -13.5 36.998c0 14.667 4.5 26.334 13.5 35.001s21.167 13 36.5 13s27.333 -4.16699 36 -12.5s13 -20.166 13 -35.499c0 -16 -4.33301 -28.333 -13 -37s-20.667 -13 -36 -13s-27.5 4.33301 -36.5 13zM421 135.998
c3.33301 0 5.00098 -1 5.00098 -3c-4.66699 -48 -7 -87.333 -7 -118c0 -5.33301 -1 -9.16602 -3 -11.499s-6 -3.5 -12 -3.5h-372c-1.33301 0 -2 2 -2 6s0.666992 6 2 6c20 0 34.667 1.66699 44 5s15.666 9.83301 18.999 19.5s5 24.5 5 44.5v306c0 20 -1.66699 34.667 -5 44
s-9.66602 15.833 -18.999 19.5s-24 5.5 -44 5.5c-1.33301 0 -2 2 -2 6s0.666992 6 2 6h354c6.66699 0 10 -2.66699 10 -8l1 -62c0.666992 -12.667 1 -28.667 1 -48c0 -2 -1.83301 -3 -5.5 -3s-5.83398 1 -6.50098 3c-8.66699 30 -25 55 -49 75s-49.667 30 -77 30h-14
c-17.333 0 -30.166 -1.83301 -38.499 -5.5s-14 -10.167 -17 -19.5s-4.5 -24 -4.5 -44v-136c55.333 1.33301 95 3.5 119 6.5s37.667 4.5 41 4.5c2 0 3.5 -2.33301 4.5 -7s1.5 -9.66699 1.5 -15c0 -6 -0.5 -11.667 -1.5 -17s-2.5 -8 -4.5 -8c-3.33301 0 -17 1.83301 -41 5.5
s-63.667 6.16699 -119 7.5v-142c0 -19.333 1.5 -33.833 4.5 -43.5s8.66699 -16.334 17 -20.001s21.166 -5.5 38.499 -5.5h23c30 0 58.667 11 86 33s47.333 50 60 84c0.666992 2 2.66699 3 6 3z" />
    <glyph glyph-name="igrave" unicode="&#xec;" horiz-adv-x="300" 
d="M30 599c-6.66699 1.33301 -3.16992 5.33301 10.4971 12s29.334 12.667 47.001 18s28.167 6.66602 31.5 3.99902c20 -14.667 35 -26 45 -34c40.667 -30.667 71.667 -53 93 -67c1.33301 -0.666992 2 -2 2 -4s-0.666992 -3.66699 -2 -5
s-2.66602 -1.66602 -3.99902 -0.999023c-75.333 33.333 -149.666 59 -222.999 77zM198.997 36.5c3.33301 -9.66699 9.66797 -16.167 19.001 -19.5s24 -5 44 -5c1.33301 0 2 -2 2 -6s-0.666992 -6 -2 -6c-20 -0 -35.667 0.333008 -47 1l-66 1l-62 -1
c-12 -0.666992 -28.333 -1 -49 -1c-1.33301 0 -2 2 -2 6s0.666992 6 2 6c20.667 0 35.667 1.66699 45 5s15.666 9.83301 18.999 19.5s5 24.5 5 44.5v306c0 20 -1.66699 34.667 -5 44s-9.83301 15.833 -19.5 19.5s-24.5 5.5 -44.5 5.5c-1.33301 0 -2 2 -2 6s0.666992 6 2 6
l49 -1c25.333 -1.33301 46 -2 62 -2c18 0 40.333 0.666992 67 2l46 1c1.33301 0 2 -2 2 -6s-0.666992 -6 -2 -6c-19.333 0 -33.833 -2 -43.5 -6s-16.167 -10.833 -19.5 -20.5s-5 -24.5 -5 -44.5v-304c0 -20 1.66699 -34.833 5 -44.5z" />
    <glyph glyph-name="iacute" unicode="&#xed;" horiz-adv-x="300" 
d="M58 521c-2.66699 0 -4.33398 1.49902 -5.00098 4.49902s0 5.16699 2 6.5c21.333 12.667 50.666 33.667 87.999 63l50 38c3.33301 2.66699 14 1.33398 32 -3.99902s33.833 -11.333 47.5 -18s16.834 -10.667 9.50098 -12c-41.333 -10 -79.166 -21.167 -113.499 -33.5
s-70.5 -26.833 -108.5 -43.5zM199 36.499c3.33301 -9.66699 9.66797 -16.167 19.001 -19.5s24 -5 44 -5c1.33301 0 2 -2 2 -6s-0.666992 -6 -2 -6c-20 0 -35.667 0.333008 -47 1l-66 1l-62 -1c-12 -0.666992 -28.333 -1 -49 -1c-1.33301 0 -2 2 -2 6s0.666992 6 2 6
c20.667 0 35.667 1.66699 45 5s15.666 9.83301 18.999 19.5s5 24.5 5 44.5v306c0 20 -1.66699 34.667 -5 44s-9.83301 15.833 -19.5 19.5s-24.5 5.5 -44.5 5.5c-1.33301 0 -2 2 -2 6s0.666992 6 2 6l49 -1c25.333 -1.33301 46 -2 62 -2c18 0 40.333 0.666992 67 2l46 1
c1.33301 0 2 -2 2 -6s-0.666992 -6 -2 -6c-19.333 0 -33.833 -2 -43.5 -6s-16.167 -10.833 -19.5 -20.5s-5 -24.5 -5 -44.5v-304c0 -20 1.66699 -34.833 5 -44.5z" />
    <glyph glyph-name="icircumflex" unicode="&#xee;" horiz-adv-x="300" 
d="M142 643c3.33301 3.33301 7.33398 4.99902 12.001 4.99902c4 0 7.66699 -1.66699 11 -5l102 -110c0.666992 0 1 -0.666992 1 -2s-0.833008 -2.66602 -2.5 -3.99902s-2.83398 -1.66602 -3.50098 -0.999023l-108 45l-109 -45c-1.33301 -0.666992 -3 0.166016 -5 2.49902
s-2.33301 3.83301 -1 4.5zM199.001 36.499c3.33301 -9.66699 9.66797 -16.167 19.001 -19.5s24 -5 44 -5c1.33301 0 2 -2 2 -6s-0.666992 -6 -2 -6c-20 0 -35.667 0.333008 -47 1l-66 1l-62 -1c-12 -0.666992 -28.333 -1 -49 -1c-1.33301 0 -2 2 -2 6s0.666992 6 2 6
c20.667 0 35.667 1.66699 45 5s15.666 9.83301 18.999 19.5s5 24.5 5 44.5v306c0 20 -1.66699 34.667 -5 44s-9.83301 15.833 -19.5 19.5s-24.5 5.5 -44.5 5.5c-1.33301 0 -2 2 -2 6s0.666992 6 2 6l49 -1c25.333 -1.33301 46 -2 62 -2c18 0 40.333 0.666992 67 2l46 1
c1.33301 0 2 -2 2 -6s-0.666992 -6 -2 -6c-19.333 0 -33.833 -2 -43.5 -6s-16.167 -10.833 -19.5 -20.5s-5 -24.5 -5 -44.5v-304c0 -20 1.66699 -34.833 5 -44.5z" />
    <glyph glyph-name="idieresis" unicode="&#xef;" horiz-adv-x="300" 
d="M41.5 564c-9 8.66699 -13.5 21.002 -13.5 37.002c0 15.333 4.5 27.166 13.5 35.499s21.5 12.5 37.5 12.5c15.333 0 27.333 -4.33301 36 -13s13 -20.334 13 -35.001c0 -16 -4.33301 -28.333 -13 -37s-20.667 -13 -36 -13c-16 0 -28.5 4.33301 -37.5 13zM191.5 564.002
c-9 8.66699 -13.5 20.998 -13.5 36.998c0 14.667 4.5 26.334 13.5 35.001s21.167 13 36.5 13s27.166 -4.16699 35.499 -12.5s12.5 -20.166 12.5 -35.499c0 -16 -4.16699 -28.333 -12.5 -37s-20.166 -13 -35.499 -13s-27.5 4.33301 -36.5 13zM199 36.5
c3.33301 -9.66699 9.66797 -16.167 19.001 -19.5s24 -5 44 -5c1.33301 0 2 -2 2 -6s-0.666992 -6 -2 -6c-20 -0 -35.667 0.333008 -47 1l-66 1l-62 -1c-12 -0.666992 -28.333 -1 -49 -1c-1.33301 0 -2 2 -2 6s0.666992 6 2 6c20.667 0 35.667 1.66699 45 5
s15.666 9.83301 18.999 19.5s5 24.5 5 44.5v306c0 20 -1.66699 34.667 -5 44s-9.83301 15.833 -19.5 19.5s-24.5 5.5 -44.5 5.5c-1.33301 0 -2 2 -2 6s0.666992 6 2 6l49 -1c25.333 -1.33301 46 -2 62 -2c18 0 40.333 0.666992 67 2l46 1c1.33301 0 2 -2 2 -6
s-0.666992 -6 -2 -6c-19.333 0 -33.833 -2 -43.5 -6s-16.167 -10.833 -19.5 -20.5s-5 -24.5 -5 -44.5v-304c0 -20 1.66699 -34.833 5 -44.5z" />
    <glyph glyph-name="eth" unicode="&#xf0;" horiz-adv-x="567" 
d="M410 440c40.667 -20 71.666 -47.667 92.999 -83s32 -75.333 32 -120c0 -46 -11 -87.333 -33 -124s-52.5 -65.334 -91.5 -86.001s-83.5 -31 -133.5 -31c-18.667 0 -39.667 1 -63 3c-8 0.666992 -18 1.33398 -30 2.00098s-25.667 1 -41 1l-62 -1
c-12 -0.666992 -28.333 -1 -49 -1c-1.33301 0 -2 2 -2 6s0.666992 6 2 6c20.667 0 35.667 1.66699 45 5s15.666 9.83301 18.999 19.5s5 24.5 5 44.5v143h-44c-2.66699 0 -4 4 -4 12s1.33301 12 4 12h44v139c0 20 -1.66699 34.667 -5 44s-9.66602 15.833 -18.999 19.5
s-24 5.5 -44 5.5c-1.33301 0 -2 2 -2 6s0.666992 6 2 6l48 -1c26.667 -1.33301 47.334 -2 62.001 -2c20 0 40.667 1 62 3c26.667 1.33301 46.667 2 60 2c56 0 104.333 -10 145 -30zM389.999 69.5c30 36.333 45.001 88.502 45.001 156.502
c0 65.333 -14.833 119.333 -44.5 162s-74.167 64 -133.5 64c-25.333 0 -43.333 -4.83301 -54 -14.5s-16 -27.167 -16 -52.5v-137h110c1.33301 0 2.5 -1.33301 3.5 -4s1.5 -5.33398 1.5 -8.00098s-0.5 -5.33398 -1.5 -8.00098s-2.16699 -4 -3.5 -4h-110v-132
c0 -28 5.16699 -47.833 15.5 -59.5s31.166 -17.5 62.499 -17.5c53.333 0 95 18.167 125 54.5z" />
    <glyph glyph-name="ntilde" unicode="&#xf1;" horiz-adv-x="566" 
d="M164 540c-2 0 -3.83008 0.833984 -5.49707 2.50098s-1.83398 3.16699 -0.500977 4.5c12 19.333 26.167 36.666 42.5 51.999s33.833 23 52.5 23c12 0 29.667 -3.66699 53 -11c11.333 -3.33301 23.166 -6.33301 35.499 -9s23.5 -4 33.5 -4c11.333 0 20.333 2 27 6
s14.334 11 23.001 21h1c2 0 3.66699 -0.833008 5 -2.5s1.66602 -3.16699 0.999023 -4.5c-19.333 -29.333 -35.333 -49.166 -48 -59.499s-26.334 -15.5 -41.001 -15.5c-11.333 0 -23.5 1.66699 -36.5 5l-23.5 6c-27.333 8.66699 -50 13 -68 13
c-12.667 0 -21.667 -1.83301 -27 -5.5s-13 -10.834 -23 -21.501h-1zM552.003 462.001c0 -4 -1.00195 -5.99902 -3.00195 -5.99902c-26 0 -45 -8.83301 -57 -26.5s-18 -45.5 -18 -83.5v-357c0 -1.33301 -1.66699 -2.33301 -5 -3s-5.66602 -0.333984 -6.99902 0.999023
l-345 399l-2 2v-267c0 -38 5.83301 -65.667 17.5 -83s30.167 -26 55.5 -26c1.33301 0 2 -2 2 -6s-0.666992 -6 -2 -6c-16 0 -28.333 0.333008 -37 1l-45 1l-46 -1c-9.33301 -0.666992 -22.333 -1 -39 -1c-1.33301 0 -2 2 -2 6s0.666992 6 2 6c26 0 44.833 8.66699 56.5 26
s17.5 45 17.5 83v289c-16.667 16.667 -31.167 28.5 -43.5 35.5s-24.5 10.5 -36.5 10.5c-1.33301 0 -2 2 -2 6s0.666992 6 2 6l56 -1c6 0 13.5 0.166992 22.5 0.5s27.833 0.5 56.5 0.5c5.33301 0 10 -1.66699 14 -5s9.33301 -10 16 -20l21 -27l253 -292v222
c0 38.667 -5.66699 66.667 -17 84s-29.666 26 -54.999 26c-2 0 -3 2 -3 6s1 6 3 6l37 -1c18.667 -1.33301 33.667 -2 45 -2s27 0.666992 47 2l38 1c2 0 3 -2 3 -6z" />
    <glyph glyph-name="ograve" unicode="&#xf2;" horiz-adv-x="570" 
d="M162 597c-6.66699 1.33301 -3.16992 5.33301 10.4971 12s29.334 12.667 47.001 18s28.167 6.66602 31.5 3.99902c20 -14.667 35 -26 45 -34c40.667 -30.667 71.667 -53 93 -67c1.33301 -0.666992 2 -2 2 -4s-0.666992 -3.66699 -2 -5
s-2.66602 -1.66602 -3.99902 -0.999023c-75.333 33.333 -149.666 59 -222.999 77zM148.497 21.5c-37 22.333 -65.666 52.1709 -85.999 89.5039s-30.5 78 -30.5 122c0 51.333 13.167 95.666 39.5 132.999s60.166 65.666 101.499 84.999s83.666 29 126.999 29
c47.333 0 89 -11.5 125 -34.5s63.833 -52.833 83.5 -89.5s29.5 -75.334 29.5 -116.001c0 -44.667 -11.667 -86.334 -35 -125.001s-55.166 -69.5 -95.499 -92.5s-84.5 -34.5 -132.5 -34.5c-47.333 0 -89.5 11.167 -126.5 33.5zM400.498 65.0049
c25.667 36.667 38.5 87.333 38.5 152c0 44 -7 84.167 -21 120.5s-34 65.166 -60 86.499s-56.667 32 -92 32c-43.333 0 -76.666 -16.667 -99.999 -50s-35 -81.333 -35 -144c0 -47.333 7.16699 -90.166 21.5 -128.499s34.166 -68.5 59.499 -90.5s54.333 -33 87 -33
c42 0 75.833 18.333 101.5 55z" />
    <glyph glyph-name="oacute" unicode="&#xf3;" horiz-adv-x="570" 
d="M190 519c-2.66699 0 -4.33398 1.49902 -5.00098 4.49902s0 5.16699 2 6.5c21.333 12.667 50.666 33.667 87.999 63l50 38c3.33301 2.66699 14 1.33398 32 -3.99902s33.833 -11.333 47.5 -18s16.834 -10.667 9.50098 -12c-41.333 -10 -79.166 -21.167 -113.499 -33.5
s-70.5 -26.833 -108.5 -43.5zM148.5 21.499c-37 22.333 -65.666 52.1709 -85.999 89.5039s-30.5 78 -30.5 122c0 51.333 13.167 95.666 39.5 132.999s60.166 65.666 101.499 84.999s83.666 29 126.999 29c47.333 0 89 -11.5 125 -34.5s63.833 -52.833 83.5 -89.5
s29.5 -75.334 29.5 -116.001c0 -44.667 -11.667 -86.334 -35 -125.001s-55.166 -69.5 -95.499 -92.5s-84.5 -34.5 -132.5 -34.5c-47.333 0 -89.5 11.167 -126.5 33.5zM400.501 65.0039c25.667 36.667 38.5 87.333 38.5 152c0 44 -7 84.167 -21 120.5s-34 65.166 -60 86.499
s-56.667 32 -92 32c-43.333 0 -76.666 -16.667 -99.999 -50s-35 -81.333 -35 -144c0 -47.333 7.16699 -90.166 21.5 -128.499s34.166 -68.5 59.499 -90.5s54.333 -33 87 -33c42 0 75.833 18.333 101.5 55z" />
    <glyph glyph-name="ocircumflex" unicode="&#xf4;" horiz-adv-x="570" 
d="M274 641c3.33301 3.33301 7.33398 4.99902 12.001 4.99902c4 0 7.66699 -1.66699 11 -5l102 -110c0.666992 0 1 -0.666992 1 -2s-0.833008 -2.66602 -2.5 -3.99902s-2.83398 -1.66602 -3.50098 -0.999023l-108 45l-109 -45c-1.33301 -0.666992 -3 0.166016 -5 2.49902
s-2.33301 3.83301 -1 4.5zM148.501 21.499c-37 22.333 -65.666 52.1709 -85.999 89.5039s-30.5 78 -30.5 122c0 51.333 13.167 95.666 39.5 132.999s60.166 65.666 101.499 84.999s83.666 29 126.999 29c47.333 0 89 -11.5 125 -34.5s63.833 -52.833 83.5 -89.5
s29.5 -75.334 29.5 -116.001c0 -44.667 -11.667 -86.334 -35 -125.001s-55.166 -69.5 -95.499 -92.5s-84.5 -34.5 -132.5 -34.5c-47.333 0 -89.5 11.167 -126.5 33.5zM400.502 65.0039c25.667 36.667 38.5 87.333 38.5 152c0 44 -7 84.167 -21 120.5s-34 65.166 -60 86.499
s-56.667 32 -92 32c-43.333 0 -76.666 -16.667 -99.999 -50s-35 -81.333 -35 -144c0 -47.333 7.16699 -90.166 21.5 -128.499s34.166 -68.5 59.499 -90.5s54.333 -33 87 -33c42 0 75.833 18.333 101.5 55z" />
    <glyph glyph-name="otilde" unicode="&#xf5;" horiz-adv-x="570" 
d="M396 602c6.66699 4 14.3369 11.001 23.0039 21.001h1c2 0 3.66699 -0.833008 5 -2.5s1.66602 -3.16699 0.999023 -4.5c-19.333 -29.333 -35.333 -49.166 -48 -59.499s-26.334 -15.5 -41.001 -15.5c-11.333 0 -23.5 1.66699 -36.5 5l-23.5 6
c-27.333 8.66699 -50 13 -68 13c-12.667 0 -21.667 -1.83301 -27 -5.5s-13 -10.834 -23 -21.501h-1c-2 0 -3.83301 0.833008 -5.5 2.5s-1.83398 3.16699 -0.500977 4.5c12 19.333 26.167 36.666 42.5 51.999s33.833 23 52.5 23c12 0 29.667 -3.66699 53 -11
c11.333 -3.33301 23.166 -6.33301 35.499 -9s23.5 -4 33.5 -4c11.333 0 20.333 2 27 6zM148.503 21.501c-37 22.333 -65.666 52.1709 -85.999 89.5039s-30.5 78 -30.5 122c0 51.333 13.167 95.666 39.5 132.999s60.166 65.666 101.499 84.999s83.666 29 126.999 29
c47.333 0 89 -11.5 125 -34.5s63.833 -52.833 83.5 -89.5s29.5 -75.334 29.5 -116.001c0 -44.667 -11.667 -86.334 -35 -125.001s-55.166 -69.5 -95.499 -92.5s-84.5 -34.5 -132.5 -34.5c-47.333 0 -89.5 11.167 -126.5 33.5zM400.504 65.0059
c25.667 36.667 38.5 87.333 38.5 152c0 44 -7 84.167 -21 120.5s-34 65.166 -60 86.499s-56.667 32 -92 32c-43.333 0 -76.666 -16.667 -99.999 -50s-35 -81.333 -35 -144c0 -47.333 7.16699 -90.166 21.5 -128.499s34.166 -68.5 59.499 -90.5s54.333 -33 87 -33
c42 0 75.833 18.333 101.5 55z" />
    <glyph glyph-name="odieresis" unicode="&#xf6;" horiz-adv-x="570" 
d="M161.5 562c-9 8.66699 -13.5 21 -13.5 37c0 15.333 4.5 27.166 13.5 35.499s21.5 12.5 37.5 12.5c15.333 0 27.166 -4.16699 35.499 -12.5s12.5 -20.166 12.5 -35.499c0 -16 -4.16699 -28.333 -12.5 -37s-20.166 -13 -35.499 -13c-16 0 -28.5 4.33301 -37.5 13z
M336.5 562c-9 8.66699 -13.5 20.998 -13.5 36.998c0 14.667 4.5 26.334 13.5 35.001s21.167 13 36.5 13s27.333 -4.16699 36 -12.5s13 -20.166 13 -35.499c0 -16 -4.33301 -28.333 -13 -37s-20.667 -13 -36 -13s-27.5 4.33301 -36.5 13zM148.5 21.498
c-37 22.333 -65.666 52.1709 -85.999 89.5039s-30.5 78 -30.5 122c0 51.333 13.167 95.666 39.5 132.999s60.166 65.666 101.499 84.999s83.666 29 126.999 29c47.333 0 89 -11.5 125 -34.5s63.833 -52.833 83.5 -89.5s29.5 -75.334 29.5 -116.001
c0 -44.667 -11.667 -86.334 -35 -125.001s-55.166 -69.5 -95.499 -92.5s-84.5 -34.5 -132.5 -34.5c-47.333 0 -89.5 11.167 -126.5 33.5zM400.501 65.0029c25.667 36.667 38.5 87.333 38.5 152c0 44 -7 84.167 -21 120.5s-34 65.166 -60 86.499s-56.667 32 -92 32
c-43.333 0 -76.666 -16.667 -99.999 -50s-35 -81.333 -35 -144c0 -47.333 7.16699 -90.166 21.5 -128.499s34.166 -68.5 59.499 -90.5s54.333 -33 87 -33c42 0 75.833 18.333 101.5 55z" />
    <glyph glyph-name="divide" unicode="&#xf7;" horiz-adv-x="398" 
d="M158 341.5c-10 9.66699 -15 23.167 -15 40.5c0 16 5 28.667 15 38s23.667 14 41 14c16.667 0 29.5 -4.66699 38.5 -14s13.5 -22 13.5 -38c0 -17.333 -4.5 -30.833 -13.5 -40.5s-21.833 -14.5 -38.5 -14.5c-17.333 0 -31 4.83301 -41 14.5zM30.5 215.5
c-1 5 -1.5 10.501 -1.5 16.501c0 5.33301 0.333008 10.166 1 14.499s1.66699 6.5 3 6.5h331c1.33301 0 2.5 -2.33301 3.5 -7s1.5 -9.66699 1.5 -15c0 -6 -0.5 -11.333 -1.5 -16s-2.16699 -7 -3.5 -7h-330c-1.33301 0 -2.5 2.5 -3.5 7.5zM158 44.501
c-10 9.66699 -15 23.167 -15 40.5c0 16 5 28.833 15 38.5s23.667 14.5 41 14.5c16 0 28.667 -4.83301 38 -14.5s14 -22.5 14 -38.5c0 -17.333 -4.5 -30.833 -13.5 -40.5s-21.833 -14.5 -38.5 -14.5c-17.333 0 -31 4.83301 -41 14.5z" />
    <glyph glyph-name="oslash" unicode="&#xf8;" horiz-adv-x="570" 
d="M520 331.5c12 -29.667 17.999 -60.1631 17.999 -91.4961c0 -44.667 -11.667 -86.334 -35 -125.001s-55.166 -69.5 -95.499 -92.5s-84.5 -34.5 -132.5 -34.5c-63.333 0 -117 19.333 -161 58l-53 -54l-2 -1c-2.66699 0 -6.5 2.66699 -11.5 8s-6.5 9 -4.5 11l53 54
c-20.667 22 -36.5 47.5 -47.5 76.5s-16.5 59.833 -16.5 92.5c0 51.333 13.167 95.666 39.5 132.999s60.166 65.666 101.499 84.999s83.666 29 126.999 29c58.667 0 109.334 -18 152.001 -54l50 51l2 1c2.66699 0 6.33398 -2.33301 11.001 -7s6 -8 4 -10l-50 -51
c22 -22.667 39 -48.834 51 -78.501zM155.999 125.004l244.999 249.001c-15.333 26 -34.5 46.167 -57.5 60.5s-48.833 21.5 -77.5 21.5c-43.333 0 -76.666 -16.667 -99.999 -50s-35 -81.333 -35 -144c0 -50.667 8.33301 -96.334 25 -137.001zM400.498 65.0049
c25.667 36.667 38.5 87.333 38.5 152c0 50.667 -9 95.667 -27 135l-245 -251c15.333 -28.667 34.333 -51 57 -67s47.667 -24 75 -24c42 0 75.833 18.333 101.5 55z" />
    <glyph glyph-name="ugrave" unicode="&#xf9;" horiz-adv-x="571" 
d="M187 599c-6.66699 1.33301 -3.16992 5.33301 10.4971 12s29.334 12.667 47.001 18s28.167 6.66602 31.5 3.99902c20 -14.667 35 -26 45 -34c40.667 -30.667 71.667 -53 93 -67c1.33301 -0.666992 2 -2 2 -4s-0.666992 -3.66699 -2 -5
s-2.66602 -1.66602 -3.99902 -0.999023c-75.333 33.333 -149.666 59 -222.999 77zM446.997 433.5c-12.667 15 -34.001 22.5 -64.001 22.5c-2 0 -3 2 -3 6s1 6 3 6l41 -1c21.333 -1.33301 39 -2 53 -2c10.667 0 26 0.666992 46 2l40 1c1.33301 0 2 -2 2 -6
s-0.666992 -6 -2 -6c-26.667 0 -45.667 -7.5 -57 -22.5s-17 -40.167 -17 -75.5v-174c0 -62 -17.167 -110.333 -51.5 -145s-80.5 -52 -138.5 -52c-37.333 0 -71.666 7.5 -102.999 22.5s-56.333 36.5 -75 64.5s-28 61.333 -28 100v213c0 20 -1.66699 34.667 -5 44
s-9.5 15.833 -18.5 19.5s-23.5 5.5 -43.5 5.5c-2 0 -3 2 -3 6s1 6 3 6l47 -1c25.333 -1.33301 46 -2 62 -2c17.333 0 39.333 0.666992 66 2l46 1c1.33301 0 2 -2 2 -6s-0.666992 -6 -2 -6c-20 0 -34.667 -2 -44 -6s-15.833 -10.833 -19.5 -20.5s-5.5 -24.5 -5.5 -44.5v-185
c0 -60 13.667 -104.167 41 -132.5s63 -42.5 107 -42.5c43.333 0 77.5 13.5 102.5 40.5s37.5 65.833 37.5 116.5v176c0 35.333 -6.33301 60.5 -19 75.5z" />
    <glyph glyph-name="uacute" unicode="&#xfa;" horiz-adv-x="571" 
d="M215 521c-2.66699 0 -4.33398 1.49902 -5.00098 4.49902s0 5.16699 2 6.5c21.333 12.667 50.666 33.667 87.999 63l50 38c3.33301 2.66699 14 1.33398 32 -3.99902s33.833 -11.333 47.5 -18s16.834 -10.667 9.50098 -12c-41.333 -10 -79.166 -21.167 -113.499 -33.5
s-70.5 -26.833 -108.5 -43.5zM447 433.499c-12.667 15 -34.001 22.5 -64.001 22.5c-2 0 -3 2 -3 6s1 6 3 6l41 -1c21.333 -1.33301 39 -2 53 -2c10.667 0 26 0.666992 46 2l40 1c1.33301 0 2 -2 2 -6s-0.666992 -6 -2 -6c-26.667 0 -45.667 -7.5 -57 -22.5
s-17 -40.167 -17 -75.5v-174c0 -62 -17.167 -110.333 -51.5 -145s-80.5 -52 -138.5 -52c-37.333 0 -71.666 7.5 -102.999 22.5s-56.333 36.5 -75 64.5s-28 61.333 -28 100v213c0 20 -1.66699 34.667 -5 44s-9.5 15.833 -18.5 19.5s-23.5 5.5 -43.5 5.5c-2 0 -3 2 -3 6
s1 6 3 6l47 -1c25.333 -1.33301 46 -2 62 -2c17.333 0 39.333 0.666992 66 2l46 1c1.33301 0 2 -2 2 -6s-0.666992 -6 -2 -6c-20 0 -34.667 -2 -44 -6s-15.833 -10.833 -19.5 -20.5s-5.5 -24.5 -5.5 -44.5v-185c0 -60 13.667 -104.167 41 -132.5s63 -42.5 107 -42.5
c43.333 0 77.5 13.5 102.5 40.5s37.5 65.833 37.5 116.5v176c0 35.333 -6.33301 60.5 -19 75.5z" />
    <glyph glyph-name="ucircumflex" unicode="&#xfb;" horiz-adv-x="571" 
d="M299 643c3.33301 3.33301 7.33398 4.99902 12.001 4.99902c4 0 7.66699 -1.66699 11 -5l102 -110c0.666992 0 1 -0.666992 1 -2s-0.833008 -2.66602 -2.5 -3.99902s-2.83398 -1.66602 -3.50098 -0.999023l-108 45l-109 -45c-1.33301 -0.666992 -3 0.166016 -5 2.49902
s-2.33301 3.83301 -1 4.5zM447.001 433.499c-12.667 15 -34.001 22.5 -64.001 22.5c-2 0 -3 2 -3 6s1 6 3 6l41 -1c21.333 -1.33301 39 -2 53 -2c10.667 0 26 0.666992 46 2l40 1c1.33301 0 2 -2 2 -6s-0.666992 -6 -2 -6c-26.667 0 -45.667 -7.5 -57 -22.5
s-17 -40.167 -17 -75.5v-174c0 -62 -17.167 -110.333 -51.5 -145s-80.5 -52 -138.5 -52c-37.333 0 -71.666 7.5 -102.999 22.5s-56.333 36.5 -75 64.5s-28 61.333 -28 100v213c0 20 -1.66699 34.667 -5 44s-9.5 15.833 -18.5 19.5s-23.5 5.5 -43.5 5.5c-2 0 -3 2 -3 6
s1 6 3 6l47 -1c25.333 -1.33301 46 -2 62 -2c17.333 0 39.333 0.666992 66 2l46 1c1.33301 0 2 -2 2 -6s-0.666992 -6 -2 -6c-20 0 -34.667 -2 -44 -6s-15.833 -10.833 -19.5 -20.5s-5.5 -24.5 -5.5 -44.5v-185c0 -60 13.667 -104.167 41 -132.5s63 -42.5 107 -42.5
c43.333 0 77.5 13.5 102.5 40.5s37.5 65.833 37.5 116.5v176c0 35.333 -6.33301 60.5 -19 75.5z" />
    <glyph glyph-name="udieresis" unicode="&#xfc;" horiz-adv-x="571" 
d="M186.5 564c-9 8.66699 -13.5 21 -13.5 37c0 15.333 4.5 27.166 13.5 35.499s21.5 12.5 37.5 12.5c15.333 0 27.166 -4.16699 35.499 -12.5s12.5 -20.166 12.5 -35.499c0 -16 -4.16699 -28.333 -12.5 -37s-20.166 -13 -35.499 -13c-16 0 -28.5 4.33301 -37.5 13z
M361.5 564c-9 8.66699 -13.5 20.998 -13.5 36.998c0 14.667 4.5 26.334 13.5 35.001s21.167 13 36.5 13s27.333 -4.16699 36 -12.5s13 -20.166 13 -35.499c0 -16 -4.33301 -28.333 -13 -37s-20.667 -13 -36 -13s-27.5 4.33301 -36.5 13zM447 433.498
c-12.667 15 -34.001 22.5 -64.001 22.5c-2 0 -3 2 -3 6s1 6 3 6l41 -1c21.333 -1.33301 39 -2 53 -2c10.667 0 26 0.666992 46 2l40 1c1.33301 0 2 -2 2 -6s-0.666992 -6 -2 -6c-26.667 0 -45.667 -7.5 -57 -22.5s-17 -40.167 -17 -75.5v-174
c0 -62 -17.167 -110.333 -51.5 -145s-80.5 -52 -138.5 -52c-37.333 0 -71.666 7.5 -102.999 22.5s-56.333 36.5 -75 64.5s-28 61.333 -28 100v213c0 20 -1.66699 34.667 -5 44s-9.5 15.833 -18.5 19.5s-23.5 5.5 -43.5 5.5c-2 0 -3 2 -3 6s1 6 3 6l47 -1
c25.333 -1.33301 46 -2 62 -2c17.333 0 39.333 0.666992 66 2l46 1c1.33301 0 2 -2 2 -6s-0.666992 -6 -2 -6c-20 0 -34.667 -2 -44 -6s-15.833 -10.833 -19.5 -20.5s-5.5 -24.5 -5.5 -44.5v-185c0 -60 13.667 -104.167 41 -132.5s63 -42.5 107 -42.5
c43.333 0 77.5 13.5 102.5 40.5s37.5 65.833 37.5 116.5v176c0 35.333 -6.33301 60.5 -19 75.5z" />
    <glyph glyph-name="yacute" unicode="&#xfd;" horiz-adv-x="493" 
d="M173 521c-2.66699 0 -4.33398 1.49902 -5.00098 4.49902s0 5.16699 2 6.5c21.333 12.667 50.666 33.667 87.999 63l50 38c3.33301 2.66699 14 1.33398 32 -3.99902s33.833 -11.333 47.5 -18s16.834 -10.667 9.50098 -12c-41.333 -10 -79.166 -21.167 -113.499 -33.5
s-70.5 -26.833 -108.5 -43.5zM495 461.999c0 -4 -1.00195 -6.00195 -3.00195 -6.00195c-20.667 0 -40.667 -7.66699 -60 -23s-37.666 -37.666 -54.999 -66.999l-77 -136v-149c0 -20.667 1.83301 -35.667 5.5 -45s10.667 -15.666 21 -18.999s27.5 -5 51.5 -5
c1.33301 0 2 -2 2 -6s-0.666992 -6 -2 -6c-21.333 0 -38.333 0.333008 -51 1l-73 1l-69 -1c-13.333 -0.666992 -31.333 -1 -54 -1c-2 0 -3 2 -3 6s1 6 3 6c22.667 0 39.5 1.66699 50.5 5s18.5 9.83301 22.5 19.5s6 24.5 6 44.5v133l-111 171
c-16.667 25.333 -32.167 43.5 -46.5 54.5s-29.833 16.5 -46.5 16.5c-1.33301 0 -2 2 -2 6s0.666992 6 2 6l37 -1l36 -2c19.333 0 49 0.666992 89 2l58 1c1.33301 0 2 -2 2 -6s-0.666992 -6 -2 -6c-31.333 0 -47 -8 -47 -24c0 -7.33301 3.66699 -16.666 11 -27.999l98 -153
l64 116c10.667 19.333 16 35.666 16 48.999c0 12.667 -4.16699 22.5 -12.5 29.5s-20.166 10.5 -35.499 10.5c-2 0 -3 2 -3 6s1 6 3 6l46 -1c24 -1.33301 47 -2 69 -2c8.66699 0 19 0.666992 31 2l26 1c2 0 3 -2 3 -6z" />
    <glyph glyph-name="thorn" unicode="&#xfe;" horiz-adv-x="466" 
d="M434 254c0 -34 -8.83398 -62.8311 -26.501 -86.498s-40 -41.167 -67 -52.5s-54.5 -17 -82.5 -17c-16.667 0 -30.334 1.66699 -41.001 5c-1.33301 0 -2 1.66699 -2 5c0 2 0.5 4 1.5 6s2.16699 2.66699 3.5 2c8 -2.66699 17 -4 27 -4c24.667 0 45.834 10.5 63.501 31.5
s26.5 51.167 26.5 90.5c0 41.333 -9.33301 72.666 -28 93.999s-43.667 32 -75 32c-20.667 0 -36.667 -1.33301 -48 -4v-271c0 -21.333 1.66699 -36.833 5 -46.5s9.83301 -16.5 19.5 -20.5s24.5 -6 44.5 -6c1.33301 0 2 -2 2 -6s-0.666992 -6 -2 -6
c-20.667 0 -36.667 0.333008 -48 1l-64 1l-62 -1c-12 -0.666992 -28.333 -1 -49 -1c-1.33301 0 -2 2 -2 6s0.666992 6 2 6c20.667 0 35.5 1.66699 44.5 5s15.167 9.66602 18.5 18.999s5 24.333 5 45v306c0 20 -1.66699 34.667 -5 44s-9.66602 15.833 -18.999 19.5
s-24 5.5 -44 5.5c-1.33301 0 -2 2 -2 6s0.666992 6 2 6l49 -1c25.333 -1.33301 46 -2 62 -2s37.333 0.666992 64 2l48 1c1.33301 0 2 -2 2 -6s-0.666992 -6 -2 -6c-20 0 -34.833 -2 -44.5 -6s-16.167 -11 -19.5 -21s-5 -25.667 -5 -47v-10c26 4 50 6 72 6
c117.333 0 176 -41.333 176 -124z" />
    <glyph glyph-name="ydieresis" unicode="&#xff;" horiz-adv-x="493" 
d="M144.5 564c-9 8.66699 -13.5 21 -13.5 37c0 15.333 4.5 27.166 13.5 35.499s21.5 12.5 37.5 12.5c15.333 0 27.166 -4.16699 35.499 -12.5s12.5 -20.166 12.5 -35.499c0 -16 -4.16699 -28.333 -12.5 -37s-20.166 -13 -35.499 -13c-16 0 -28.5 4.33301 -37.5 13z
M319.5 564c-9 8.66699 -13.5 20.998 -13.5 36.998c0 14.667 4.5 26.334 13.5 35.001s21.167 13 36.5 13s27.333 -4.16699 36 -12.5s13 -20.166 13 -35.499c0 -16 -4.33301 -28.333 -13 -37s-20.667 -13 -36 -13s-27.5 4.33301 -36.5 13zM495 461.998
c0 -4 -1.00195 -6.00195 -3.00195 -6.00195c-20.667 0 -40.667 -7.66699 -60 -23s-37.666 -37.666 -54.999 -66.999l-77 -136v-149c0 -20.667 1.83301 -35.667 5.5 -45s10.667 -15.666 21 -18.999s27.5 -5 51.5 -5c1.33301 0 2 -2 2 -6s-0.666992 -6 -2 -6
c-21.333 0 -38.333 0.333008 -51 1l-73 1l-69 -1c-13.333 -0.666992 -31.333 -1 -54 -1c-2 0 -3 2 -3 6s1 6 3 6c22.667 0 39.5 1.66699 50.5 5s18.5 9.83301 22.5 19.5s6 24.5 6 44.5v133l-111 171c-16.667 25.333 -32.167 43.5 -46.5 54.5s-29.833 16.5 -46.5 16.5
c-1.33301 0 -2 2 -2 6s0.666992 6 2 6l37 -1l36 -2c19.333 0 49 0.666992 89 2l58 1c1.33301 0 2 -2 2 -6s-0.666992 -6 -2 -6c-31.333 0 -47 -8 -47 -24c0 -7.33301 3.66699 -16.666 11 -27.999l98 -153l64 116c10.667 19.333 16 35.666 16 48.999
c0 12.667 -4.16699 22.5 -12.5 29.5s-20.166 10.5 -35.499 10.5c-2 0 -3 2 -3 6s1 6 3 6l46 -1c24 -1.33301 47 -2 69 -2c8.66699 0 19 0.666992 31 2l26 1c2 0 3 -2 3 -6z" />
    <glyph glyph-name="Amacron" unicode="&#x100;" horiz-adv-x="711" 
d="M218 721.5c-1.33301 3.66699 -2 7.5 -2 11.5c0 4.66699 0.666992 8.66699 2 12s3.33301 5 6 5h251c2.66699 0 4.83398 -1.66699 6.50098 -5s2.5 -7.33301 2.5 -12s-0.833008 -8.66699 -2.5 -12s-3.83398 -5 -6.50098 -5h-251c-2.66699 0 -4.66699 1.83301 -6 5.5zM716 6
c0 -4 -1.66699 -6 -5 -6c-12.667 0 -33 0.666992 -61 2s-48.333 2 -61 2c-16.667 0 -36.334 -0.666992 -59.001 -2s-40.334 -2 -53.001 -2c-2.66699 0 -4 2 -4 6s1.33301 6 4 6c19.333 0 33.5 2.16699 42.5 6.5s13.5 11.5 13.5 21.5s-5.66699 27 -17 51l-108 219h-181
l-77 -173c-8.66699 -20 -13 -38 -13 -54c0 -23.333 8.33301 -41 25 -53s40 -18 70 -18c3.33301 0 5 -2 5 -6s-1.66699 -6 -5 -6c-12 0 -29.333 0.666992 -52 2c-25.333 1.33301 -47.333 2 -66 2c-18 0 -39 -0.666992 -63 -2c-21.333 -1.33301 -39 -2 -53 -2
c-3.33301 0 -5 2 -5 6s1.66699 6 5 6c18.667 0 34.334 3.66699 47.001 11s25 20.5 37 39.5s26.333 47.167 43 84.5l215 484c1.33301 2 4.33301 3 9 3s7.33398 -1 8.00098 -3l245 -494c23.333 -48 42.833 -80.833 58.5 -98.5s32.5 -26.5 50.5 -26.5c3.33301 0 5 -2 5 -6z
M238 335h158l-83 168z" />
    <glyph glyph-name="amacron" unicode="&#x101;" horiz-adv-x="557" 
d="M140 564.5c-1.33301 3.66699 -2 7.5 -2 11.5c0 4.66699 0.666992 8.66699 2 12s3.33301 5 6 5h251c2.66699 0 4.83398 -1.66699 6.50098 -5s2.5 -7.33301 2.5 -12s-0.833008 -8.66699 -2.5 -12s-3.83398 -5 -6.50098 -5h-251c-2.66699 0 -4.66699 1.83301 -6 5.5zM561 6
c0 -4 -1.33594 -6 -4.00293 -6c-13.333 0 -34 0.666992 -62 2s-48 2 -60 2c-10.667 0 -27.334 -0.666992 -50.001 -2c-21.333 -1.33301 -36.333 -2 -45 -2c-2.66699 0 -4 2 -4 6s1.33301 6 4 6c16 0 27.5 2 34.5 6s10.5 10.333 10.5 19c0 9.33301 -5 25 -15 47l-63 135h-124
l-40 -96c-11.333 -28 -17 -49.333 -17 -64c0 -16.667 5.83301 -28.667 17.5 -36s29.5 -11 53.5 -11c3.33301 0 5 -2 5 -6s-1.66699 -6 -5 -6c-9.33301 0 -22.666 0.666992 -39.999 2c-18.667 1.33301 -36 2 -52 2c-16.667 0 -36.334 -0.666992 -59.001 -2
c-20 -1.33301 -36.333 -2 -49 -2c-3.33301 0 -5 2 -5 6s1.66699 6 5 6c20.667 0 37.334 3 50.001 9s24.334 17.167 35.001 33.5s23.334 42.166 38.001 77.499l148 351c1.33301 2.66699 3.33301 4 6 4s4.33398 -1.33301 5.00098 -4l161 -346
c16.667 -36 30.5 -62.667 41.5 -80s22 -29.166 33 -35.499s25.167 -9.5 42.5 -9.5c2.66699 0 4 -2 4 -6zM191.997 242h104l-55 118z" />
    <glyph glyph-name="Abreve" unicode="&#x102;" horiz-adv-x="711" 
d="M275.5 721c-17.667 20.667 -27.168 50.334 -28.501 89.001c0 2.66699 1.66699 4 5 4s5.33301 -0.666992 6 -2c1.33301 -14 11 -26.833 29 -38.5s39 -17.5 63 -17.5c23.333 0 44 5.83301 62 17.5s27.667 24.5 29 38.5c0 2 1.83301 2.83301 5.5 2.5s5.5 -1.83301 5.5 -4.5
c-1.33301 -38.667 -10.666 -68.334 -27.999 -89.001s-42 -31 -74 -31s-56.833 10.333 -74.5 31zM715.999 6c0 -4 -1.66699 -6 -5 -6c-12.667 0 -33 0.666992 -61 2s-48.333 2 -61 2c-16.667 0 -36.334 -0.666992 -59.001 -2s-40.334 -2 -53.001 -2c-2.66699 0 -4 2 -4 6
s1.33301 6 4 6c19.333 0 33.5 2.16699 42.5 6.5s13.5 11.5 13.5 21.5s-5.66699 27 -17 51l-108 219h-181l-77 -173c-8.66699 -20 -13 -38 -13 -54c0 -23.333 8.33301 -41 25 -53s40 -18 70 -18c3.33301 0 5 -2 5 -6s-1.66699 -6 -5 -6c-12 0 -29.333 0.666992 -52 2
c-25.333 1.33301 -47.333 2 -66 2c-18 0 -39 -0.666992 -63 -2c-21.333 -1.33301 -39 -2 -53 -2c-3.33301 0 -5 2 -5 6s1.66699 6 5 6c18.667 0 34.334 3.66699 47.001 11s25 20.5 37 39.5s26.333 47.167 43 84.5l215 484c1.33301 2 4.33301 3 9 3s7.33398 -1 8.00098 -3
l245 -494c23.333 -48 42.833 -80.833 58.5 -98.5s32.5 -26.5 50.5 -26.5c3.33301 0 5 -2 5 -6zM237.999 335h158l-83 168z" />
    <glyph glyph-name="abreve" unicode="&#x103;" horiz-adv-x="557" 
d="M195.5 564c-17.667 20.667 -26.501 50.334 -26.501 89.001c0 2.66699 1.83301 4.16699 5.5 4.5s5.5 -0.5 5.5 -2.5c0 -14 9 -26.833 27 -38.5s39.667 -17.5 65 -17.5c24.667 0 46 5.83301 64 17.5s27 24.5 27 38.5c0 2 1.83301 2.83301 5.5 2.5s5.5 -1.83301 5.5 -4.5
c0 -38.667 -8.66699 -68.334 -26 -89.001s-42.666 -31 -75.999 -31s-58.833 10.333 -76.5 31zM560.999 6c0 -4 -1.33594 -6 -4.00293 -6c-13.333 0 -34 0.666992 -62 2s-48 2 -60 2c-10.667 0 -27.334 -0.666992 -50.001 -2c-21.333 -1.33301 -36.333 -2 -45 -2
c-2.66699 0 -4 2 -4 6s1.33301 6 4 6c16 0 27.5 2 34.5 6s10.5 10.333 10.5 19c0 9.33301 -5 25 -15 47l-63 135h-124l-40 -96c-11.333 -28 -17 -49.333 -17 -64c0 -16.667 5.83301 -28.667 17.5 -36s29.5 -11 53.5 -11c3.33301 0 5 -2 5 -6s-1.66699 -6 -5 -6
c-9.33301 0 -22.666 0.666992 -39.999 2c-18.667 1.33301 -36 2 -52 2c-16.667 0 -36.334 -0.666992 -59.001 -2c-20 -1.33301 -36.333 -2 -49 -2c-3.33301 0 -5 2 -5 6s1.66699 6 5 6c20.667 0 37.334 3 50.001 9s24.334 17.167 35.001 33.5s23.334 42.166 38.001 77.499
l148 351c1.33301 2.66699 3.33301 4 6 4s4.33398 -1.33301 5.00098 -4l161 -346c16.667 -36 30.5 -62.667 41.5 -80s22 -29.166 33 -35.499s25.167 -9.5 42.5 -9.5c2.66699 0 4 -2 4 -6zM191.996 242h104l-55 118z" />
    <glyph glyph-name="Aogonek" unicode="&#x104;" horiz-adv-x="712" 
d="M716 3.5c0 -3.66699 -1.67285 -5.50098 -5.00586 -5.50098c-16 0 -36 0.666992 -60 2l-47 1c-34 0 -60.833 -10.833 -80.5 -32.5s-29.5 -51.167 -29.5 -88.5c0 -35.333 8.5 -63.666 25.5 -84.999s39.5 -32 67.5 -32c16.667 0 32.334 4 47.001 12h1c2 0 3.83301 -1 5.5 -3
s1.83398 -3.66699 0.500977 -5c-17.333 -14.667 -34.666 -25.334 -51.999 -32.001s-36.333 -10 -57 -10c-37.333 0 -66.666 9.83301 -87.999 29.5s-32 45.834 -32 78.501c0 24.667 5.5 45.167 16.5 61.5s27.167 34.5 48.5 54.5c18.667 18 32.334 33.167 41.001 45.5
s13 26.833 13 43.5c0 15.333 -5 33 -15 53l-109 219h-180l-77 -173c-8.66699 -19.333 -13 -37.333 -13 -54c0 -22.667 8.33301 -40.167 25 -52.5s40 -18.5 70 -18.5c3.33301 0 5 -2 5 -6s-1.66699 -6 -5 -6c-12 0 -29.333 0.666992 -52 2c-25.333 1.33301 -47.333 2 -66 2
c-18 0 -39 -0.666992 -63 -2c-21.333 -1.33301 -39 -2 -53 -2c-3.33301 0 -5 2 -5 6s1.66699 6 5 6c18.667 0 34.5 3.66699 47.5 11s25.5 20.5 37.5 39.5s26 47.167 42 84.5l215 484c1.33301 2 4.33301 3 9 3s7.33398 -1 8.00098 -3l245 -495
c22 -46 41.167 -78.667 57.5 -98s33.5 -29 51.5 -29c3.33301 0 5 -1.83301 5 -5.5zM237.994 334.999h157l-83 166z" />
    <glyph glyph-name="aogonek" unicode="&#x105;" horiz-adv-x="549" 
d="M553 6c0 -4 -1.33789 -5.99902 -4.00488 -5.99902c-16 0 -36 0.666992 -60 2l-47 1c-32 0 -58.333 -12.5 -79 -37.5s-31 -53.833 -31 -86.5c0 -32 8.83301 -59.667 26.5 -83s40.5 -35 68.5 -35c8.66699 0 16 1.16699 22 3.5s13.667 5.83301 23 10.5h1
c2 0 3.83301 -1 5.5 -3s1.83398 -3.66699 0.500977 -5c-16.667 -14.667 -33.334 -25.334 -50.001 -32.001s-34.667 -10 -54 -10c-35.333 0 -63.166 8.66699 -83.499 26s-30.5 41.333 -30.5 72c0 24 5.33301 44.833 16 62.5s26.667 38.5 48 62.5c18 19.333 31.5 36 40.5 50
s13.5 29.333 13.5 46c0 14.667 -3.66699 29.334 -11 44.001l-61 131h-124l-40 -96c-11.333 -28 -17 -49.333 -17 -64c0 -16.667 5.83301 -28.667 17.5 -36s29.5 -11 53.5 -11c3.33301 0 5 -2 5 -6s-1.66699 -6 -5 -6c-9.33301 0 -22.666 0.666992 -39.999 2
c-18.667 1.33301 -36 2 -52 2c-16.667 0 -36.334 -0.666992 -59.001 -2c-20 -1.33301 -36.333 -2 -49 -2c-3.33301 0 -5 2 -5 6s1.66699 6 5 6c20.667 0 37.334 3 50.001 9s24.334 17.167 35.001 33.5s23.334 42.166 38.001 77.499l148 351c1.33301 2.66699 3.33301 4 6 4
s4.33398 -1.33301 5.00098 -4l161 -346c20.667 -45.333 39.5 -77.5 56.5 -96.5s34.5 -28.5 52.5 -28.5c2.66699 0 4 -2 4 -6zM191.995 242.001h104l-55 118z" />
    <glyph glyph-name="Cacute" unicode="&#x106;" horiz-adv-x="669" 
d="M280 678c-2.66699 0 -4.33398 1.49902 -5.00098 4.49902s0 5.16699 2 6.5c21.333 12.667 50.666 33.667 87.999 63l50 38c3.33301 2.66699 14 1.33398 32 -3.99902s33.833 -11.333 47.5 -18s16.834 -10.667 9.50098 -12c-41.333 -10 -79.166 -21.167 -113.499 -33.5
s-70.5 -26.833 -108.5 -43.5zM512.5 627.999c32.333 -5.33301 57.8301 -12.6699 76.4971 -22.0029c6 -2 9.83301 -4.5 11.5 -7.5s2.83398 -8.16699 3.50098 -15.5l12 -130c0 -2 -1.66699 -3.33301 -5 -4s-5.33301 0.333008 -6 3c-19.333 52 -48.5 91.667 -87.5 119
s-84.833 41 -137.5 41c-69.333 0 -123.666 -24.333 -162.999 -73s-59 -114 -59 -196c0 -61.333 10.833 -117.666 32.5 -168.999s51.667 -92 90 -122s81.166 -45 128.499 -45c90 0 158.333 56 205 168c0.666992 2.66699 2.83398 3.66699 6.50098 3s5.5 -2 5.5 -4l-15 -128
c-1.33301 -8 -2.83301 -13.167 -4.5 -15.5s-5.5 -4.83301 -11.5 -7.5c-58 -23.333 -119.667 -35 -185 -35c-81.333 0 -149 16.167 -203 48.5s-93.833 73.5 -119.5 123.5s-38.5 102 -38.5 156c0 62.667 17.167 118.334 51.5 167.001s79.833 86.334 136.5 113.001
s117.334 40 182.001 40c30 0 61.167 -2.66699 93.5 -8z" />
    <glyph glyph-name="cacute" unicode="&#x107;" horiz-adv-x="533" 
d="M199 521c-2.66699 0 -4.33398 1.49902 -5.00098 4.49902s0 5.16699 2 6.5c21.333 12.667 50.666 33.667 87.999 63l50 38c3.33301 2.66699 14 1.33398 32 -3.99902s33.833 -11.333 47.5 -18s16.834 -10.667 9.50098 -12c-41.333 -10 -79.166 -21.167 -113.499 -33.5
s-70.5 -26.833 -108.5 -43.5zM389.5 471.999c29 -5.33301 52.833 -12.333 71.5 -21c4.66699 -2 7.66699 -4.16699 9 -6.5s2 -5.83301 2 -10.5l7 -103c0 -2 -1.83301 -3.33301 -5.5 -4s-5.83398 0.333008 -6.50098 3c-20.667 44 -45.167 76.667 -73.5 98s-61.5 32 -99.5 32
c-49.333 0 -88.166 -19.333 -116.499 -58s-42.5 -89 -42.5 -151c0 -41.333 6.5 -80.666 19.5 -117.999s33.333 -67.666 61 -90.999s61.834 -35 102.501 -35c36.667 0 67.5 10.667 92.5 32s47.167 55 66.5 101c0.666992 2.66699 2.66699 3.66699 6 3s5 -2 5 -4l-10 -106
c-0.666992 -5.33301 -1.66699 -9 -3 -11s-5 -4.33301 -11 -7c-51.333 -18 -104.666 -27 -159.999 -27c-63.333 0 -115.333 12.667 -156 38s-70.167 57 -88.5 95s-27.5 76.333 -27.5 115c0 45.333 12.167 86.666 36.5 123.999s57.666 66.666 99.999 87.999
s89.166 32 140.499 32c24.667 0 51.5 -2.66699 80.5 -8z" />
    <glyph glyph-name="Ccircumflex" unicode="&#x108;" horiz-adv-x="669" 
d="M368 809c3.33301 3.33301 7.33398 4.99902 12.001 4.99902c4 0 7.66699 -1.66699 11 -5l102 -110c0.666992 0 1 -0.666992 1 -2s-0.833008 -2.66602 -2.5 -3.99902s-2.83398 -1.66602 -3.50098 -0.999023l-108 45l-109 -45c-1.33301 -0.666992 -3 0.166016 -5 2.49902
s-2.33301 3.83301 -1 4.5zM512.501 627.999c32.333 -5.33301 57.8301 -12.6699 76.4971 -22.0029c6 -2 9.83301 -4.5 11.5 -7.5s2.83398 -8.16699 3.50098 -15.5l12 -130c0 -2 -1.66699 -3.33301 -5 -4s-5.33301 0.333008 -6 3c-19.333 52 -48.5 91.667 -87.5 119
s-84.833 41 -137.5 41c-69.333 0 -123.666 -24.333 -162.999 -73s-59 -114 -59 -196c0 -61.333 10.833 -117.666 32.5 -168.999s51.667 -92 90 -122s81.166 -45 128.499 -45c90 0 158.333 56 205 168c0.666992 2.66699 2.83398 3.66699 6.50098 3s5.5 -2 5.5 -4l-15 -128
c-1.33301 -8 -2.83301 -13.167 -4.5 -15.5s-5.5 -4.83301 -11.5 -7.5c-58 -23.333 -119.667 -35 -185 -35c-81.333 0 -149 16.167 -203 48.5s-93.833 73.5 -119.5 123.5s-38.5 102 -38.5 156c0 62.667 17.167 118.334 51.5 167.001s79.833 86.334 136.5 113.001
s117.334 40 182.001 40c30 0 61.167 -2.66699 93.5 -8z" />
    <glyph glyph-name="ccircumflex" unicode="&#x109;" horiz-adv-x="533" 
d="M283 643c3.33301 3.33301 7.33398 4.99902 12.001 4.99902c4 0 7.66699 -1.66699 11 -5l102 -110c0.666992 0 1 -0.666992 1 -2s-0.833008 -2.66602 -2.5 -3.99902s-2.83398 -1.66602 -3.50098 -0.999023l-108 45l-109 -45c-1.33301 -0.666992 -3 0.166016 -5 2.49902
s-2.33301 3.83301 -1 4.5zM389.501 471.999c29 -5.33301 52.833 -12.333 71.5 -21c4.66699 -2 7.66699 -4.16699 9 -6.5s2 -5.83301 2 -10.5l7 -103c0 -2 -1.83301 -3.33301 -5.5 -4s-5.83398 0.333008 -6.50098 3c-20.667 44 -45.167 76.667 -73.5 98s-61.5 32 -99.5 32
c-49.333 0 -88.166 -19.333 -116.499 -58s-42.5 -89 -42.5 -151c0 -41.333 6.5 -80.666 19.5 -117.999s33.333 -67.666 61 -90.999s61.834 -35 102.501 -35c36.667 0 67.5 10.667 92.5 32s47.167 55 66.5 101c0.666992 2.66699 2.66699 3.66699 6 3s5 -2 5 -4l-10 -106
c-0.666992 -5.33301 -1.66699 -9 -3 -11s-5 -4.33301 -11 -7c-51.333 -18 -104.666 -27 -159.999 -27c-63.333 0 -115.333 12.667 -156 38s-70.167 57 -88.5 95s-27.5 76.333 -27.5 115c0 45.333 12.167 86.666 36.5 123.999s57.666 66.666 99.999 87.999
s89.166 32 140.499 32c24.667 0 51.5 -2.66699 80.5 -8z" />
    <glyph glyph-name="Cdotaccent" unicode="&#x10a;" horiz-adv-x="669" 
d="M339.5 727.5c-9.66699 9.66699 -14.5 23.167 -14.5 40.5c0 16 4.83301 28.833 14.5 38.5s23.167 14.5 40.5 14.5c16.667 0 29.667 -4.83301 39 -14.5s14 -22.5 14 -38.5c0 -17.333 -4.66699 -30.833 -14 -40.5s-22.333 -14.5 -39 -14.5
c-17.333 0 -30.833 4.83301 -40.5 14.5zM512.5 628c32.333 -5.33301 57.8301 -12.6699 76.4971 -22.0029c6 -2 9.83301 -4.5 11.5 -7.5s2.83398 -8.16699 3.50098 -15.5l12 -130c0 -2 -1.66699 -3.33301 -5 -4s-5.33301 0.333008 -6 3c-19.333 52 -48.5 91.667 -87.5 119
s-84.833 41 -137.5 41c-69.333 0 -123.666 -24.333 -162.999 -73s-59 -114 -59 -196c0 -61.333 10.833 -117.666 32.5 -168.999s51.667 -92 90 -122s81.166 -45 128.499 -45c90 0 158.333 56 205 168c0.666992 2.66699 2.83398 3.66699 6.50098 3s5.5 -2 5.5 -4l-15 -128
c-1.33301 -8 -2.83301 -13.167 -4.5 -15.5s-5.5 -4.83301 -11.5 -7.5c-58 -23.333 -119.667 -35 -185 -35c-81.333 0 -149 16.167 -203 48.5s-93.833 73.5 -119.5 123.5s-38.5 102 -38.5 156c0 62.667 17.167 118.334 51.5 167.001s79.833 86.334 136.5 113.001
s117.334 40 182.001 40c30 0 61.167 -2.66699 93.5 -8z" />
    <glyph glyph-name="cdotaccent" unicode="&#x10b;" horiz-adv-x="533" 
d="M253.5 562.5c-9.66699 9.66699 -14.5 23.167 -14.5 40.5c0 16 4.83301 28.667 14.5 38s23.167 14 40.5 14c16.667 0 29.667 -4.66699 39 -14s14 -22 14 -38c0 -17.333 -4.66699 -30.833 -14 -40.5s-22.333 -14.5 -39 -14.5c-17.333 0 -30.833 4.83301 -40.5 14.5z
M389.5 472c29 -5.33301 52.833 -12.333 71.5 -21c4.66699 -2 7.66699 -4.16699 9 -6.5s2 -5.83301 2 -10.5l7 -103c0 -2 -1.83301 -3.33301 -5.5 -4s-5.83398 0.333008 -6.50098 3c-20.667 44 -45.167 76.667 -73.5 98s-61.5 32 -99.5 32
c-49.333 0 -88.166 -19.333 -116.499 -58s-42.5 -89 -42.5 -151c0 -41.333 6.5 -80.666 19.5 -117.999s33.333 -67.666 61 -90.999s61.834 -35 102.501 -35c36.667 0 67.5 10.667 92.5 32s47.167 55 66.5 101c0.666992 2.66699 2.66699 3.66699 6 3s5 -2 5 -4l-10 -106
c-0.666992 -5.33301 -1.66699 -9 -3 -11s-5 -4.33301 -11 -7c-51.333 -18 -104.666 -27 -159.999 -27c-63.333 0 -115.333 12.667 -156 38s-70.167 57 -88.5 95s-27.5 76.333 -27.5 115c0 45.333 12.167 86.666 36.5 123.999s57.666 66.666 99.999 87.999
s89.166 32 140.499 32c24.667 0 51.5 -2.66699 80.5 -8z" />
    <glyph glyph-name="Ccaron" unicode="&#x10c;" horiz-adv-x="669" 
d="M264 796v0.999023c0 2 0.833008 3.83301 2.5 5.5s2.83398 1.83398 3.50098 0.500977l109 -45l108 46h1c2 0 3.5 -0.833008 4.5 -2.5s0.833008 -3.16699 -0.5 -4.5l-102 -110c-2.66699 -2.66699 -6.33398 -4 -11.001 -4c-5.33301 0 -9.33301 1.33301 -12 4zM512.5 627.999
c32.333 -5.33301 57.8301 -12.6699 76.4971 -22.0029c6 -2 9.83301 -4.5 11.5 -7.5s2.83398 -8.16699 3.50098 -15.5l12 -130c0 -2 -1.66699 -3.33301 -5 -4s-5.33301 0.333008 -6 3c-19.333 52 -48.5 91.667 -87.5 119s-84.833 41 -137.5 41
c-69.333 0 -123.666 -24.333 -162.999 -73s-59 -114 -59 -196c0 -61.333 10.833 -117.666 32.5 -168.999s51.667 -92 90 -122s81.166 -45 128.499 -45c90 0 158.333 56 205 168c0.666992 2.66699 2.83398 3.66699 6.50098 3s5.5 -2 5.5 -4l-15 -128
c-1.33301 -8 -2.83301 -13.167 -4.5 -15.5s-5.5 -4.83301 -11.5 -7.5c-58 -23.333 -119.667 -35 -185 -35c-81.333 0 -149 16.167 -203 48.5s-93.833 73.5 -119.5 123.5s-38.5 102 -38.5 156c0 62.667 17.167 118.334 51.5 167.001s79.833 86.334 136.5 113.001
s117.334 40 182.001 40c30 0 61.167 -2.66699 93.5 -8z" />
    <glyph glyph-name="ccaron" unicode="&#x10d;" horiz-adv-x="533" 
d="M179 640c-0.666992 0 -0.999023 0.166992 -0.999023 0.5v0.5c0 1.33301 0.833008 2.83301 2.5 4.5s3.16699 2.16699 4.5 1.5l109 -46l108 46h1c2 0 3.5 -0.833008 4.5 -2.5s0.833008 -3.16699 -0.5 -4.5l-102 -110c-2.66699 -2.66699 -6.33398 -4 -11.001 -4
c-5.33301 0 -9.33301 1.33301 -12 4zM389.501 472c29 -5.33301 52.833 -12.333 71.5 -21c4.66699 -2 7.66699 -4.16699 9 -6.5s2 -5.83301 2 -10.5l7 -103c0 -2 -1.83301 -3.33301 -5.5 -4s-5.83398 0.333008 -6.50098 3c-20.667 44 -45.167 76.667 -73.5 98
s-61.5 32 -99.5 32c-49.333 0 -88.166 -19.333 -116.499 -58s-42.5 -89 -42.5 -151c0 -41.333 6.5 -80.666 19.5 -117.999s33.333 -67.666 61 -90.999s61.834 -35 102.501 -35c36.667 0 67.5 10.667 92.5 32s47.167 55 66.5 101c0.666992 2.66699 2.66699 3.66699 6 3
s5 -2 5 -4l-10 -106c-0.666992 -5.33301 -1.66699 -9 -3 -11s-5 -4.33301 -11 -7c-51.333 -18 -104.666 -27 -159.999 -27c-63.333 0 -115.333 12.667 -156 38s-70.167 57 -88.5 95s-27.5 76.333 -27.5 115c0 45.333 12.167 86.666 36.5 123.999
s57.666 66.666 99.999 87.999s89.166 32 140.499 32c24.667 0 51.5 -2.66699 80.5 -8z" />
    <glyph glyph-name="Dcaron" unicode="&#x10e;" horiz-adv-x="700" 
d="M206 796v0.999023c0 2 0.833008 3.83301 2.5 5.5s2.83398 1.83398 3.50098 0.500977l109 -45l108 46h1c2 0 3.5 -0.833008 4.5 -2.5s0.833008 -3.16699 -0.5 -4.5l-102 -110c-2.66699 -2.66699 -6.33398 -4 -11.001 -4c-5.33301 0 -9.33301 1.33301 -12 4zM246 -1.00098
c-10 0.666992 -22.6631 1.33398 -37.9961 2.00098s-32.666 1 -51.999 1l-71 -1c-12.667 -0.666992 -30.334 -1 -53.001 -1c-1.33301 0 -2 2 -2 6s0.666992 6 2 6c22.667 0 39.167 1.66699 49.5 5s17.5 9.83301 21.5 19.5s6 24.5 6 44.5v463c0 20 -1.83301 34.667 -5.5 44
s-10.834 15.833 -21.501 19.5s-27 5.5 -49 5.5c-1.33301 0 -2 2 -2 6s0.666992 6 2 6l53 -1c29.333 -1.33301 52.666 -2 69.999 -2c26.667 0 53.667 1 81 3c33.333 1.33301 55.666 2 66.999 2c68 0 128.333 -13.333 181 -40s93.5 -63 122.5 -109s43.5 -97.667 43.5 -155
c0 -64.667 -15 -121.834 -45 -171.501s-70.333 -88 -121 -115s-106.334 -40.5 -167.001 -40.5c-20.667 0 -44.667 1 -72 3zM430.504 48.999c35.667 22 63.5 54.501 83.5 97.501s30 94.5 30 154.5c0 57.333 -9.5 109.166 -28.5 155.499s-45.833 83 -80.5 110
s-75 40.5 -121 40.5c-28 0 -49.667 -1.66699 -65 -5s-26.5 -9.5 -33.5 -18.5s-10.5 -22.833 -10.5 -41.5v-450c0 -27.333 7 -46.833 21 -58.5s41.333 -17.5 82 -17.5c46 0 86.833 11 122.5 33z" />
    <glyph glyph-name="dcaron" unicode="&#x10f;" horiz-adv-x="567" 
d="M169 640c-0.666992 0 -0.999023 0.166992 -0.999023 0.5v0.5c0 1.33301 0.833008 2.83301 2.5 4.5s3.16699 2.16699 4.5 1.5l109 -46l108 46h1c2 0 3.5 -0.833008 4.5 -2.5s0.833008 -3.16699 -0.5 -4.5l-102 -110c-2.66699 -2.66699 -6.33398 -4 -11.001 -4
c-5.33301 0 -9.33301 1.33301 -12 4zM214.001 -1c-8 0.666992 -18.001 1.33398 -30.001 2.00098s-25.667 1 -41 1l-62 -1c-12 -0.666992 -28.333 -1 -49 -1c-1.33301 0 -2 2 -2 6s0.666992 6 2 6c20.667 0 35.667 1.66699 45 5s15.666 9.83301 18.999 19.5s5 24.5 5 44.5
v306c0 20 -1.66699 34.667 -5 44s-9.66602 15.833 -18.999 19.5s-24 5.5 -44 5.5c-1.33301 0 -2 2 -2 6s0.666992 6 2 6l48 -1c26.667 -1.33301 47.334 -2 62.001 -2c20 0 40.667 1 62 3c26.667 1.33301 46.667 2 60 2c56 0 104.333 -10 145 -30s71.667 -47.667 93 -83
s32 -75.333 32 -120c0 -46 -11 -87.333 -33 -124s-52.5 -65.334 -91.5 -86.001s-83.5 -31 -133.5 -31c-18.667 0 -39.667 1 -63 3zM390 69.5c30 36.333 45.001 88.5 45.001 156.5c0 65.333 -14.833 119.333 -44.5 162s-74.167 64 -133.5 64
c-25.333 0 -43.333 -4.83301 -54 -14.5s-16 -27.167 -16 -52.5v-293c0 -28 5.16699 -47.833 15.5 -59.5s31.166 -17.5 62.499 -17.5c53.333 0 95 18.167 125 54.5z" />
    </font>
</defs>
</svg>
